G04 ================== begin FILE IDENTIFICATION RECORD ==================*
G04 Layout Name:  C:/tempPCBDir/adfc7a8bf2efe4c205e85b00f260adc3/HQBrdTmp.brd*
G04 Film Name:    2GND*
G04 File Format:  Gerber RS274X*
G04 File Origin:  Cadence Allegro -unreleased*
G04 Origin Date:  Sun May  8 00:01:21 2022*
G04 *
G04 Layer:  ETCH/2GND*
G04 Layer:  PIN/2GND*
G04 Layer:  VIA CLASS/2GND*
G04 *
G04 Offset:    (0.00 0.00)*
G04 Mirror:    No*
G04 Mode:      Positive*
G04 Rotation:  0*
G04 FullContactRelief:  No*
G04 UndefLineWidth:     0.11*
G04 ================== end FILE IDENTIFICATION RECORD ====================*
%FSLAX25Y25*MOIN*%
%IR0*IPPOS*OFA0.00000B0.00000*MIA0B0*SFA1.00000B1.00000*%
%ADD12C,.031*%
%ADD16C,.032*%
%ADD10C,.05906*%
%ADD14C,.06299*%
%AMMACRO11*
21,1,.05906,.05906,0.0,0.0,45.*%
%ADD11MACRO11*%
%ADD13R,.05906X.05906*%
%ADD15O,.08661X.05512*%
%ADD17C,.01181*%
%ADD18C,.02362*%
%ADD19C,.01575*%
%ADD20C,.01287*%
%ADD24C,.04101*%
%ADD26C,.04102*%
%ADD25C,.04201*%
%ADD28C,.04202*%
%ADD29C,.07301*%
%ADD31C,.06906*%
%ADD23C,.06907*%
%ADD22C,.06908*%
%ADD30C,.38583*%
%ADD21C,.38585*%
%ADD27R,.06907X.06907*%
G75*
%LPD*%
G75*
G36*
G01X220325Y179340D02*
X118401Y87264D01*
G02X87264Y118401I-14778J16359D01*
G01X179340Y220325D01*
G02X179920Y220340I297J-268D01*
G01X193493Y206767D01*
G02X193195Y206084I-283J-283D01*
G03X183242Y202172I-487J-13377D01*
G01X121996Y140927D01*
G03X140927Y121996I9466J-9466D01*
G01X202172Y183242D01*
G03X206084Y193195I-9465J9466D01*
G02X206767Y193493I400J15D01*
G01X220340Y179920D01*
G02X220325Y179340I-283J-283D01*
G37*
G36*
G01X118401Y466438D02*
X230378Y365281D01*
G02X230392Y364701I-268J-297D01*
G01X227083Y361392D01*
X224573D01*
X213525Y350344D01*
X205831D01*
G03Y348161I-1736J-1092D01*
G01X214429D01*
X219248Y352980D01*
X221889Y350339D01*
G03X222859Y349370I1851J883D01*
G01X225338Y346890D01*
X206598Y328150D01*
X206159D01*
X199646Y334663D01*
X188665Y323682D01*
G02X188085Y323696I-283J282D01*
G01X87264Y435301D01*
G02X118401Y466438I16359J14778D01*
G37*
G36*
G01X220367Y183234D02*
X204428Y199173D01*
G03X199173Y204428I-11721J-6466D01*
G01X184403Y219197D01*
G02X184673Y219880I283J283D01*
G03X185183Y219962I-68J2049D01*
G01X185210Y219970D01*
X188729D01*
X191607Y222847D01*
Y226918D01*
X191604Y226921D01*
Y229631D01*
X192706Y230852D01*
Y257571D01*
X194742Y259607D01*
X194960D01*
G02X195152Y258856I0J-400D01*
G03X198471I1660J-3029D01*
G02X198663Y259607I192J351D01*
G01X207008D01*
Y254764D01*
X226969D01*
Y265945D01*
X231894D01*
G02X232221Y265315I0J-400D01*
G03X235575I1677J-1180D01*
G02X235902Y265945I327J230D01*
G01X258088D01*
X258780Y266637D01*
Y267616D01*
X258662Y267734D01*
Y360996D01*
X323555D01*
X331401Y353150D01*
X331047Y352797D01*
G02X330370Y353014I-283J283D01*
G03X328011Y350655I-2023J-336D01*
G02X328228Y349977I-66J-395D01*
G01X326165Y347914D01*
X325968D01*
X325276Y347222D01*
Y346244D01*
X339419Y332101D01*
G02X339136Y331418I-283J-283D01*
G01X272048D01*
Y271497D01*
X298637D01*
G02X298988Y270905I0J-400D01*
G03X298737Y269899I1800J-983D01*
G02X298298Y269497I-400J-4D01*
G03X296050Y267332I-201J-2041D01*
G02X295632Y266908I-399J-24D01*
G03X293497Y264600I-101J-2048D01*
G02X292948Y264180I-397J-50D01*
G03X290119Y262155I-782J-1896D01*
G02X289701Y261730I-399J-25D01*
G03X291654Y259811I-94J-2049D01*
G02X292071Y260236I399J25D01*
G03X294200Y262544I95J2048D01*
G02X294749Y262964I397J50D01*
G03X297579Y264984I783J1896D01*
G02X297997Y265407I399J24D01*
G03X300148Y267479I100J2048D01*
G02X300587Y267881I400J4D01*
G03X302833Y270072I201J2041D01*
G02X303328Y270490I399J30D01*
G03X305619Y271497I492J1991D01*
G01X363857D01*
Y231953D01*
X372176Y222744D01*
X352408Y202976D01*
G03X350726Y201294I8587J-10269D01*
G01X335737Y186305D01*
G02X335054Y186586I-283J283D01*
G03X330860Y186403I-2101J-11D01*
G02X330193Y186073I-399J-33D01*
G01X322850Y192706D01*
X279220D01*
G02X278925Y193376I0J400D01*
G03X273832I-2547J2333D01*
G02X273537Y192706I-295J-270D01*
G01X269220D01*
G02X268925Y193376I0J400D01*
G03X263832I-2547J2333D01*
G02X263537Y192706I-295J-270D01*
G01X259220D01*
G02X258925Y193376I0J400D01*
G03X253832I-2547J2333D01*
G02X253537Y192706I-295J-270D01*
G01X249220D01*
G02X248925Y193376I0J400D01*
G03X243832I-2547J2333D01*
G02X243537Y192706I-295J-270D01*
G01X239832D01*
Y199163D01*
X232925D01*
Y192706D01*
X230852D01*
X220367Y183234D01*
G37*
G36*
G01X231382Y349658D02*
X228138Y352903D01*
X224914D01*
G03X222754Y353019I-1173J-1682D01*
G01X222623Y352947D01*
X222301Y353268D01*
X228242Y359209D01*
X256300D01*
Y281540D01*
G03Y277438I0J-2051D01*
G01Y268308D01*
X226553D01*
X226474Y268386D01*
X225495D01*
X224607Y267498D01*
Y257127D01*
X209371D01*
Y261969D01*
X203336D01*
G02X203002Y262588I1J400D01*
G03X200276Y267627I-2726J1782D01*
G01X197127D01*
G03X194401Y262588I0J-3257D01*
G02X194066Y261969I-335J-219D01*
G01X189845D01*
Y321521D01*
X199646Y331322D01*
X200493Y330476D01*
G02X200253Y329795I-283J-283D01*
G03X202512Y327536I220J-2039D01*
G02X203192Y327776I398J-43D01*
G01X205181Y325788D01*
X207577D01*
X227993Y346204D01*
Y347616D01*
X227301Y348308D01*
X227262D01*
X226371Y349198D01*
G02X226513Y349539I142J141D01*
G01X226745D01*
X229004Y347280D01*
X229016Y347221D01*
G03X231441Y349646I2008J417D01*
G01X231382Y349658D01*
G37*
G36*
G01X354194Y332090D02*
X364179Y322105D01*
X363857Y321749D01*
Y321143D01*
X337047D01*
Y273859D01*
X305338D01*
G03X302301I-1518J-1378D01*
G01X274410D01*
Y306131D01*
G02X275034Y306462I400J0D01*
G03X277551Y309689I1149J1699D01*
G02Y310284I267J297D01*
G03X275034Y313511I-1368J1528D01*
G02X274410Y313843I-224J332D01*
G01Y323476D01*
X276003D01*
G03Y326053I1596J1288D01*
G01X274410D01*
Y329056D01*
X342464D01*
X345889Y325631D01*
X347734D01*
X354194Y332090D01*
G37*
G36*
G01X466438Y435301D02*
X366047Y324172D01*
G02X365467Y324158I-297J268D01*
G01X354703Y334922D01*
X353684D01*
X346812Y328049D01*
X328226Y346634D01*
X334742Y353150D01*
X330765Y357127D01*
X335398Y361760D01*
X335457Y361772D01*
G03X333032Y364197I-417J2008D01*
G01X333020Y364138D01*
X328387Y359505D01*
X323247Y364645D01*
G02X323262Y365225I283J283D01*
G01X435301Y466438D01*
G02X466438Y435301I14778J-16359D01*
G37*
G36*
G01X374044Y220677D02*
X466438Y118401D01*
G02X435301Y87264I-16359J-14778D01*
G01X333025Y179658D01*
G02X333010Y180238I268J297D01*
G01X346980Y194207D01*
G02X347661Y193889I283J-283D01*
G03X351530Y183242I13334J-1181D01*
G01X412775Y121996D01*
G03X431706Y140927I9466J9465D01*
G01X370460Y202172D01*
G03X359813Y206041I-9466J-9465D01*
G02X359495Y206722I-35J398D01*
G01X373464Y220692D01*
G02X374044Y220677I283J-283D01*
G37*
%LPC*%
G75*
G36*
G01X144341Y168197D02*
X139457Y163314D01*
X134573Y168197D01*
X139457Y173081D01*
X144341Y168197D01*
G37*
G36*
G01X145522Y386686D02*
X140638Y381802D01*
X135755Y386686D01*
X140638Y391570D01*
X145522Y386686D01*
G37*
G36*
G01X121996Y412775D02*
G02X140927Y431706I9465J9466D01*
G01X202172Y370460D01*
G02X183242Y351530I-9465J-9465D01*
G01X121996Y412775D01*
G37*
G36*
G01X283308Y210233D02*
G03X283314Y209597I245J-316D01*
G02X283303Y206301I-1227J-1644D01*
G03X283309Y205653I237J-322D01*
G02X280911Y205629I-1182J-1676D01*
G03X280905Y206278I-237J322D01*
G02X280827Y209571I1182J1675D01*
G03X280821Y210208I-245J316D01*
G02X283308Y210233I1227J1643D01*
G37*
G36*
G01X218231Y247780D02*
G02X216759Y248822I-1832J-1028D01*
G03X217179Y249408I69J394D01*
G02X220988Y249995I1798J987D01*
G03X221528Y249545I392J-78D01*
G02X220273Y248038I757J-1906D01*
G03X219733Y248488I-392J78D01*
G02X218644Y248371I-756J1906D01*
G03X218231Y247780I-64J-395D01*
G37*
G36*
G01X197127Y293791D02*
G02Y300305I0J3257D01*
G01X200276D01*
G02Y293791I0J-3257D01*
G01X197127D01*
G37*
G36*
G01X277771Y302546D02*
G03X277781Y303141I-262J302D01*
G02X280518Y303097I1393J1505D01*
G03X280509Y302502I263J-302D01*
G02X277771Y302546I-1394J-1505D01*
G37*
G36*
G01X419129Y385505D02*
X414245Y380621D01*
X409361Y385505D01*
X414245Y390388D01*
X419129Y385505D01*
G37*
G36*
G01X370460Y351530D02*
G02X351530Y370460I-9465J9465D01*
G01X412775Y431706D01*
G02X431706Y412775I9465J-9465D01*
G01X370460Y351530D01*
G37*
G36*
G01X419522Y165835D02*
X414638Y160951D01*
X409755Y165835D01*
X414638Y170719D01*
X419522Y165835D01*
G37*
G54D24*
X188190Y328465D03*
X182520Y341654D03*
X192953Y215552D03*
X209686Y249646D03*
X236457Y250355D03*
X230079Y250394D03*
X260618Y242256D03*
X278820Y239449D03*
X271497Y266379D03*
X270001Y337993D03*
X301320Y199272D03*
X294371Y208977D03*
X320631Y338502D03*
X217638Y268229D03*
X232875Y312402D03*
X282835Y309095D03*
X345709Y345119D03*
G54D26*
X215906Y361024D03*
X198032Y221930D03*
X225670Y200788D03*
X243347Y222087D03*
X264410Y215945D03*
X254115Y221201D03*
X256418Y215040D03*
X250414Y233524D03*
X263544Y230001D03*
X278347Y231969D03*
X288347Y199804D03*
X306654Y217008D03*
X294489Y243780D03*
X297166Y235906D03*
X325355Y213190D03*
X323898Y246182D03*
X337481Y192323D03*
X332481Y198505D03*
X287910Y314508D03*
X369489Y339961D03*
X371103Y212127D03*
G54D25*
X215827Y372520D03*
X285827Y246208D03*
X249764Y309804D03*
X300945Y322205D03*
G54D28*
X222796Y189489D03*
X234410Y221260D03*
X305591Y256772D03*
X295043Y295355D03*
X315296Y314351D03*
X341615Y372245D03*
G54D29*
X198701Y272835D03*
Y280709D03*
Y288583D03*
G54D31*
X407174Y378434D03*
G54D23*
X147709Y379615D03*
X196812Y245827D03*
X276064Y346733D03*
X286064D03*
X276064Y356575D03*
X286064D03*
X296064Y346733D03*
X306064D03*
X296064Y356575D03*
X306064D03*
X196457Y319449D03*
X407568Y172906D03*
G54D22*
X146528Y175268D03*
X286024Y336890D03*
X306024D03*
X296024D03*
X359095Y231418D03*
Y241418D03*
Y251418D03*
G54D30*
X450079Y450079D03*
Y103623D03*
G54D21*
X103623D03*
Y450079D03*
G54D27*
X196812Y235828D03*
X276024Y336890D03*
X316064Y346732D03*
Y356576D03*
X359096Y261418D03*
X196458Y309450D03*
%LPD*%
G75*
G54D10*
X146529Y175269D03*
X147710Y379614D03*
X196812Y255827D03*
Y245827D03*
X196457Y319449D03*
X256379Y195709D03*
X246379D03*
X276379D03*
X266379D03*
X276064Y346733D03*
Y356575D03*
X286064Y346733D03*
X296064D03*
X296024Y336890D03*
X286024D03*
X286064Y356575D03*
X296064D03*
X306064Y346733D03*
X306024Y336890D03*
X306064Y356575D03*
X359095Y231418D03*
Y241418D03*
Y251418D03*
X407567Y172907D03*
X407173Y378433D03*
G54D20*
G01X193670Y297048D02*
X198701D01*
G01X192804Y319449D02*
X196457D01*
G01X196812Y232174D02*
Y235827D01*
G01D02*
Y239481D01*
G01Y235827D02*
X200465D01*
G01X198701Y264370D02*
Y264371D01*
X203733D01*
G01X198701Y264370D02*
Y267827D01*
G01Y293591D02*
Y297048D01*
G01D02*
Y300505D01*
G01Y297048D02*
X203733D01*
G01X196457Y315796D02*
Y319449D01*
G01D02*
Y323103D01*
G01Y319449D02*
X200111D01*
G01X246379Y195709D02*
Y199363D01*
G01X242725Y195709D02*
X246379D01*
G01D02*
X250032D01*
G01X286024Y333237D02*
Y336890D01*
G01D02*
Y340544D01*
G01X282371Y336890D02*
X286024D01*
G01D02*
X289678D01*
G01X302410Y356575D02*
X306064D01*
G01X302410Y346733D02*
X306064D01*
G01Y343079D02*
Y346733D01*
G01Y352922D02*
Y356575D01*
G01D02*
Y360229D01*
G01Y356575D02*
X309717D01*
G01X306064Y346733D02*
Y350386D01*
G01Y346733D02*
X309717D01*
G01X359095Y247764D02*
Y251418D01*
G01D02*
Y255071D01*
G01X355442Y251418D02*
X359095D01*
G01D02*
X362749D01*
G54D11*
X139457Y168197D03*
X140638Y386686D03*
X414639Y165835D03*
X414245Y385505D03*
G54D12*
X174882Y211890D03*
X192953Y215552D03*
X184607Y221930D03*
X186694Y224882D03*
X188190Y328465D03*
X182520Y341654D03*
X211851Y179449D03*
X198032Y221930D03*
X209686Y249646D03*
X217638Y268229D03*
X200473Y327757D03*
X215906Y361024D03*
X204095Y349253D03*
X225670Y200788D03*
X237402Y234686D03*
X222284Y247638D03*
X236457Y250355D03*
X218977Y250394D03*
X230079D03*
X233898Y264134D03*
X232875Y312402D03*
X231024Y347638D03*
X223741Y351221D03*
X218583Y368977D03*
X256418Y215040D03*
X250414Y233524D03*
X254115Y221201D03*
X243347Y222087D03*
X259056Y228505D03*
X247127Y218623D03*
X260618Y242256D03*
X252008Y259134D03*
X256300Y279489D03*
X264410Y215945D03*
X282048Y211851D03*
X282087Y207953D03*
X282127Y203977D03*
X278347Y231969D03*
X263544Y230001D03*
X278820Y239449D03*
X273583Y257087D03*
X271497Y266379D03*
X279116Y300997D03*
X279174Y304646D03*
X276182Y311812D03*
Y308162D03*
X270001Y337993D03*
X277599Y324764D03*
X301320Y199272D03*
X294371Y208977D03*
X288347Y199804D03*
X297166Y235906D03*
X294489Y243780D03*
X289607Y259682D03*
X298097Y267456D03*
X295531Y264860D03*
X300788Y269922D03*
X292166Y262284D03*
X287910Y314508D03*
X282835Y309095D03*
X300945Y306142D03*
X285945Y325749D03*
X306654Y217008D03*
X323898Y246182D03*
X303820Y272481D03*
X320631Y338502D03*
X337481Y192323D03*
X343780Y176615D03*
X325355Y213190D03*
X332481Y198505D03*
X345709Y345119D03*
X328347Y352678D03*
X335040Y363780D03*
X336260Y374528D03*
X371103Y212127D03*
X375552Y199528D03*
X369371Y205434D03*
X369489Y339961D03*
X368623Y333662D03*
G54D13*
X196812Y235827D03*
X196457Y309449D03*
X236379Y195709D03*
X276024Y336890D03*
X316064Y346733D03*
Y356575D03*
X359095Y261418D03*
G54D14*
X198701Y272835D03*
Y280709D03*
Y288583D03*
G54D15*
Y264370D03*
Y297048D03*
G54D16*
X217796Y195355D03*
X206300Y236103D03*
X204410Y229213D03*
X216398Y246753D03*
X203898Y318426D03*
X214489Y328623D03*
X215827Y372520D03*
X222796Y189489D03*
X236457Y217599D03*
X234410Y221260D03*
X225434Y230119D03*
X219607Y220945D03*
X226024Y244095D03*
X231654Y276851D03*
X236694Y272127D03*
X222205Y277048D03*
X226851Y336694D03*
X245473Y248977D03*
X251654Y249292D03*
X259134Y252835D03*
X244292Y272520D03*
X249764Y309804D03*
X253465Y311300D03*
X244331Y311536D03*
X268977Y219764D03*
X262402Y356379D03*
X293780Y200867D03*
X285827Y246208D03*
X289371Y294764D03*
X285631Y289843D03*
X290709Y289804D03*
X295043Y295355D03*
X294922Y319253D03*
X287953Y319174D03*
X300945Y322205D03*
X303623Y212284D03*
X315906Y222796D03*
X315473Y245749D03*
X324056Y253505D03*
X305591Y256772D03*
X321733Y276851D03*
X319213Y268071D03*
X309804Y268229D03*
X312048Y294804D03*
X317402Y294961D03*
X319528Y316339D03*
X315296Y314351D03*
X314410Y336772D03*
X323426Y351457D03*
X332953Y186575D03*
X336615Y221851D03*
X324882Y223308D03*
X330237Y259922D03*
X328190Y279528D03*
X333938Y279607D03*
X325906Y323268D03*
X330394Y323308D03*
X328268Y337953D03*
X341615Y372245D03*
X350827Y227796D03*
X357166Y220552D03*
X346851Y259764D03*
G54D17*
G01X259948Y360300D02*
X225025D01*
X213977Y349253D01*
X204095D01*
G01X327245Y355945D02*
Y356024D01*
X327284D01*
G54D18*
G01X184607Y221930D02*
X185077D01*
X185355Y221651D01*
X188032D01*
X189925Y223544D01*
Y226221D01*
X189922Y226224D01*
Y230279D01*
X191024Y231499D01*
Y258268D01*
X197127Y264371D01*
X198701D01*
Y264370D01*
G01X211851Y179449D02*
X218686D01*
G01X338154Y176615D02*
X322203Y191024D01*
X231499D01*
X218686Y179449D01*
G01X223741Y351221D02*
X227442D01*
X231024Y347638D01*
G01X336260Y374528D02*
X324410Y362678D01*
X231499D01*
X224526Y368977D01*
G01D02*
X218583D01*
G01X343780Y176615D02*
X338154D01*
G01X327284Y356024D02*
X335040Y363780D01*
G54D19*
G01X270749Y324764D02*
X277599D01*
M02*
