G04 ================== begin FILE IDENTIFICATION RECORD ==================*
G04 Layout Name:  C:/tempPCBDir/adfc7a8bf2efe4c205e85b00f260adc3/HQBrdTmp.brd*
G04 Film Name:    BOTTOM*
G04 File Format:  Gerber RS274X*
G04 File Origin:  Cadence Allegro -unreleased*
G04 Origin Date:  Sun May  8 00:01:21 2022*
G04 *
G04 Layer:  ETCH/BOTTOM*
G04 Layer:  PIN/BOTTOM*
G04 Layer:  VIA CLASS/BOTTOM*
G04 *
G04 Offset:    (0.00 0.00)*
G04 Mirror:    No*
G04 Mode:      Positive*
G04 Rotation:  0*
G04 FullContactRelief:  No*
G04 UndefLineWidth:     0.11*
G04 ================== end FILE IDENTIFICATION RECORD ====================*
%FSLAX25Y25*MOIN*%
%IR0*IPPOS*OFA0.00000B0.00000*MIA0B0*SFA1.00000B1.00000*%
%ADD12C,.031*%
%ADD16C,.032*%
%ADD10C,.05906*%
%ADD14C,.06299*%
%AMMACRO11*
21,1,.05906,.05906,0.0,0.0,45.*%
%ADD11MACRO11*%
%ADD13R,.05906X.05906*%
%ADD15O,.08661X.05512*%
%ADD17C,.01287*%
%ADD18C,.00787*%
%ADD22C,.04101*%
%ADD24C,.04201*%
%ADD23C,.04102*%
%ADD26C,.04202*%
%ADD27C,.07301*%
%ADD29C,.06906*%
%ADD21C,.06907*%
%ADD20C,.06908*%
%ADD28C,.38583*%
%ADD19C,.38585*%
%ADD25R,.06907X.06907*%
G75*
%LPD*%
G75*
G36*
G01X220325Y179340D02*
X118401Y87264D01*
G02X87264Y118401I-14778J16359D01*
G01X179340Y220325D01*
G02X179920Y220340I297J-268D01*
G01X193493Y206767D01*
G02X193195Y206084I-283J-283D01*
G03X183242Y202172I-487J-13377D01*
G01X121996Y140927D01*
G03X140927Y121996I9466J-9466D01*
G01X202172Y183242D01*
G03X206084Y193195I-9465J9466D01*
G02X206767Y193493I400J15D01*
G01X220340Y179920D01*
G02X220325Y179340I-283J-283D01*
G37*
G36*
G01X118401Y466438D02*
X230378Y365281D01*
G02X230392Y364701I-268J-297D01*
G01X229855Y364163D01*
X217780D01*
X216581Y362964D01*
X216468Y362997D01*
G03X217879Y361586I-562J-1973D01*
G01X217846Y361699D01*
X218521Y362374D01*
X227100D01*
G02X227383Y361691I0J-400D01*
G01X218960Y353268D01*
X221889Y350339D01*
G03X222859Y349370I1851J883D01*
G01X225338Y346890D01*
X213122Y334675D01*
X190765D01*
X184460Y340979D01*
X184493Y341092D01*
G03X183082Y339682I-1972J563D01*
G01X183195Y339714D01*
X190024Y332886D01*
X196903D01*
G02X197186Y332203I0J-400D01*
G01X188665Y323682D01*
G02X188085Y323696I-283J282D01*
G01X87264Y435301D01*
G02X118401Y466438I16359J14778D01*
G37*
G36*
G01X222393Y181208D02*
X204428Y199173D01*
G03X199173Y204428I-11721J-6466D01*
G01X184403Y219197D01*
G02X184673Y219880I283J283D01*
G03X186611Y222366I-66J2050D01*
G02X186951Y222848I391J85D01*
G03X186244Y226883I-256J2035D01*
G02X185860Y227542I-87J390D01*
G01X188764Y230756D01*
G02X189460Y230488I296J-268D01*
G01Y217780D01*
X191013Y216227D01*
X190981Y216114D01*
G03X192392Y217524I1972J-563D01*
G01X192278Y217492D01*
X191249Y218521D01*
Y259607D01*
X194960D01*
G02X195152Y258856I0J-400D01*
G03X198471I1660J-3029D01*
G02X198663Y259607I192J351D01*
G01X207008D01*
Y254764D01*
X226969D01*
Y265945D01*
X231894D01*
G02X232221Y265315I0J-400D01*
G03X235575I1677J-1180D01*
G02X235902Y265945I327J230D01*
G01X258088D01*
X258117Y265974D01*
X281205Y242886D01*
X284358D01*
X284424Y242820D01*
X287231D01*
X287297Y242886D01*
X292644D01*
G03Y244675I1845J894D01*
G01X288057D01*
G02X287700Y245256I0J400D01*
G03X283955I-1872J952D01*
G02X283598Y244675I-357J-181D01*
G01X281946D01*
X258662Y267958D01*
Y362374D01*
X321559D01*
X327453Y356481D01*
Y354523D01*
G03X328011Y350655I894J-1845D01*
G02X328228Y349977I-66J-395D01*
G01X326165Y347914D01*
X325968D01*
X325276Y347222D01*
Y346244D01*
X339419Y332101D01*
G02X339136Y331418I-283J-283D01*
G01X272048D01*
Y308943D01*
X264736Y301631D01*
Y275457D01*
X271160Y269032D01*
G02X270979Y268363I-283J-282D01*
G03X273481Y265860I518J-1984D01*
G02X274151Y266042I387J-101D01*
G01X281406Y258787D01*
X287762D01*
G03X291654Y259811I1845J895D01*
G02X292071Y260236I399J25D01*
G03X294200Y262544I95J2048D01*
G02X294749Y262964I397J50D01*
G03X297579Y264984I783J1896D01*
G02X297997Y265407I399J24D01*
G03X300148Y267479I100J2048D01*
G02X300587Y267881I400J4D01*
G03X302833Y270072I201J2041D01*
G02X303328Y270490I399J30D01*
G03X305619Y271497I492J1991D01*
G01X323870D01*
Y268836D01*
X295378Y240344D01*
X280665D01*
G03Y238555I-1845J-895D01*
G01X296119D01*
X325659Y268095D01*
Y271497D01*
X363857D01*
Y231953D01*
X372176Y222744D01*
X366963Y217531D01*
X358403Y226092D01*
X332221D01*
X325450Y232864D01*
X280192D01*
G03Y231075I-1845J-894D01*
G01X324709D01*
X331481Y224303D01*
X357662D01*
X365698Y216266D01*
X352408Y202976D01*
G03X350726Y201294I8587J-10269D01*
G01X335737Y186305D01*
G02X335054Y186586I-283J283D01*
G03X332943Y184475I-2101J-10D01*
G02X333224Y183792I-2J-400D01*
G01X330958Y181526D01*
X323077Y188645D01*
G02X323345Y189342I268J297D01*
G01X335765D01*
X336806Y190383D01*
X336919Y190351D01*
G03X335508Y191762I562J1973D01*
G01X335541Y191648D01*
X335024Y191131D01*
X231001D01*
X226564Y195568D01*
Y198943D01*
G03X224775I-894J1845D01*
G01Y194827D01*
X230260Y189342D01*
X230357D01*
G02X230625Y188645I0J-400D01*
G01X222393Y181208D01*
G37*
G36*
G01X191249Y322925D02*
X195186Y326862D01*
X198628D01*
G03X202512Y327536I1845J895D01*
G02X203192Y327776I398J-43D01*
G01X205181Y325788D01*
X207577D01*
X214674Y332886D01*
X222544D01*
X227334Y328095D01*
Y321599D01*
X242518Y306416D01*
X251376D01*
X255405Y302386D01*
Y281334D01*
G03X256300Y277438I895J-1845D01*
G01Y269123D01*
X219484D01*
G03Y267334I-1845J-895D01*
G01X224607D01*
Y257127D01*
X209371D01*
Y261969D01*
X203336D01*
G02X203002Y262588I1J400D01*
G03X200276Y267627I-2726J1782D01*
G01X197127D01*
G03X194401Y262588I0J-3257D01*
G02X194066Y261969I-335J-219D01*
G01X191249D01*
Y322925D01*
G37*
G36*
G01X255617Y304704D02*
X252117Y308205D01*
X251959D01*
G02X251608Y308796I0J400D01*
G03X247921I-1844J1008D01*
G02X247570Y308205I-351J-191D01*
G01X243258D01*
X229123Y322340D01*
Y328836D01*
X223284Y334675D01*
X217429D01*
G02X217146Y335357I0J400D01*
G01X227993Y346204D01*
Y347616D01*
X227301Y348308D01*
X227262D01*
X225462Y350107D01*
G03X222754Y353019I-1722J1114D01*
G01X222623Y352947D01*
X222301Y353268D01*
X231407Y362374D01*
X256300D01*
Y304987D01*
G02X255617Y304704I-400J0D01*
G37*
G36*
G01X274410Y295027D02*
X278440Y299057D01*
X278554Y299025D01*
G03X280509Y302502I562J1972D01*
G02X280518Y303097I272J293D01*
G03X277329Y305541I-1344J1549D01*
G01X276335D01*
X275093Y304299D01*
G02X274410Y304582I-283J283D01*
G01Y305125D01*
X275507Y306222D01*
X275620Y306190D01*
G03X277551Y309689I562J1972D01*
G02Y310284I267J297D01*
G03X275034Y313511I-1368J1528D01*
G02X274410Y313843I-224J332D01*
G01Y329056D01*
X342464D01*
X342567Y328953D01*
G02X342425Y328612I-142J-141D01*
G01X339473D01*
X323870Y313009D01*
Y273859D01*
X305338D01*
G03X302301I-1518J-1378D01*
G01X283628D01*
X277745Y279741D01*
Y286717D01*
X288861Y297832D01*
Y311866D01*
X288808Y311918D01*
Y312406D01*
X288805Y312410D01*
Y312659D01*
X288907Y312716D01*
G03X287016Y312663I-996J1792D01*
G01Y311669D01*
X287020Y311665D01*
Y311177D01*
X287072Y311125D01*
Y298573D01*
X275957Y287458D01*
Y279000D01*
X280415Y274542D01*
G02X280132Y273859I-283J-283D01*
G01X279612D01*
X275305Y278166D01*
Y290339D01*
X283730Y298764D01*
Y307250D01*
G03X281941I-895J1845D01*
G01Y299505D01*
X275093Y292657D01*
G02X274410Y292940I-283J283D01*
G01Y295027D01*
G37*
G36*
G01X466438Y435301D02*
X366047Y324172D01*
G02X365467Y324158I-297J268D01*
G01X360208Y329416D01*
X368814Y338021D01*
X368927Y337989D01*
G03X367516Y339399I561J1973D01*
G01X367549Y339286D01*
X358944Y330681D01*
X354703Y334922D01*
X353684D01*
X347374Y328612D01*
X346249D01*
X328226Y346634D01*
X334742Y353150D01*
X323247Y364645D01*
G02X323262Y365225I283J283D01*
G01X435301Y466438D01*
G02X466438Y435301I14778J-16359D01*
G37*
G36*
G01X374044Y220677D02*
X466438Y118401D01*
G02X435301Y87264I-16359J-14778D01*
G01X333025Y179658D01*
G02X333010Y180238I268J297D01*
G01X346980Y194207D01*
G02X347661Y193889I283J-283D01*
G03X351530Y183242I13334J-1181D01*
G01X412775Y121996D01*
G03X431706Y140927I9466J9465D01*
G01X370460Y202172D01*
G03X359813Y206041I-9466J-9465D01*
G02X359495Y206722I-35J398D01*
G01X367369Y214596D01*
X369163Y212802D01*
X369131Y212688D01*
G03X370541Y214099I1972J-561D01*
G01X370428Y214067D01*
X368634Y215861D01*
X373464Y220692D01*
G02X374044Y220677I283J-283D01*
G37*
G36*
G01X325659Y312268D02*
X340214Y326823D01*
X344697D01*
X345889Y325631D01*
X347734D01*
X348926Y326823D01*
X357615D01*
X358538Y327745D01*
X364179Y322105D01*
X363857Y321749D01*
Y321143D01*
X337047D01*
Y273859D01*
X325659D01*
Y312268D01*
G37*
%LPC*%
G75*
G36*
G01X144341Y168197D02*
X139457Y163314D01*
X134573Y168197D01*
X139457Y173081D01*
X144341Y168197D01*
G37*
G36*
G01X145522Y386686D02*
X140638Y381802D01*
X135755Y386686D01*
X140638Y391570D01*
X145522Y386686D01*
G37*
G36*
G01X121996Y412775D02*
G02X140927Y431706I9465J9466D01*
G01X202172Y370460D01*
G02X183242Y351530I-9465J-9465D01*
G01X121996Y412775D01*
G37*
G36*
G01X272892Y355210D02*
G03X272241Y355334I-367J-158D01*
G01X270895Y353988D01*
Y339838D01*
G02X269106I-894J-1845D01*
G01Y354729D01*
X271847Y357470D01*
X272725D01*
X272769Y357610D01*
G02X272892Y355210I3295J-1034D01*
G37*
G36*
G01X264438Y237232D02*
Y231846D01*
G02X262649I-894J-1845D01*
G01Y236491D01*
X259724Y239417D01*
Y240410D01*
G02X261616Y240464I894J1846D01*
G01X261513Y240407D01*
Y240158D01*
X264438Y237232D01*
G37*
G36*
G01X308481Y208082D02*
X296216D01*
G02Y209871I-1845J894D01*
G01X307740D01*
X311953Y214084D01*
X323510D01*
G02Y212295I1845J-895D01*
G01X312694D01*
X308481Y208082D01*
G37*
G36*
G01X235419Y199163D02*
G03X235702Y199845I0J400D01*
G01X208831Y226717D01*
Y246792D01*
X208791Y246832D01*
Y247801D01*
G02X210683Y247854I895J1845D01*
G01X210580Y247797D01*
Y247573D01*
X210620Y247533D01*
Y245985D01*
G03X211020Y245585I400J0D01*
G02X211226Y245527I-1J-400D01*
G03X211287Y245492I1051J1761D01*
G01X211390Y245435D01*
Y245186D01*
X211350Y245147D01*
Y227701D01*
X238012Y201040D01*
G02X238070Y200898I-142J-141D01*
G03X238270Y200698I200J0D01*
G01X286502D01*
G02Y198909I1845J-894D01*
G01X279026D01*
G03X278751Y198219I0J-400D01*
G02X274006I-2373J-2510D01*
G03X273731Y198909I-275J290D01*
G01X269026D01*
G03X268751Y198219I0J-400D01*
G02X264006I-2373J-2510D01*
G03X263731Y198909I-275J290D01*
G01X259026D01*
G03X258751Y198219I0J-400D01*
G02X254006I-2373J-2510D01*
G03X253731Y198909I-275J290D01*
G01X249026D01*
G03X248751Y198219I0J-400D01*
G02X244006I-2373J-2510D01*
G03X243731Y198909I-275J290D01*
G01X239832D01*
Y192256D01*
X232925D01*
Y199163D01*
X235419D01*
G37*
G36*
G01X283309Y205653D02*
G02X280281Y203082I-1183J-1676D01*
G01X240142D01*
X218082Y225142D01*
Y231762D01*
X218110Y231789D01*
Y233094D01*
X218082Y233121D01*
Y244607D01*
G03X217477Y244950I-400J0D01*
G02X216759Y248822I-1079J1803D01*
G03X217179Y249408I69J394D01*
G02X220988Y249995I1798J987D01*
G03X221528Y249545I392J-78D01*
G02X224129Y248533I756J-1906D01*
G01X228112D01*
G03X228433Y249171I0J400D01*
G02X231726I1646J1223D01*
G03X232047Y248533I321J-238D01*
G01X233370D01*
X234517Y249680D01*
X234485Y249793D01*
G02X235895Y248382I1973J561D01*
G01X235782Y248415D01*
X234111Y246744D01*
X224129D01*
G02X223179Y245793I-1846J894D01*
G01Y227340D01*
X241670Y208848D01*
X280242D01*
G02X280827Y209571I1845J-895D01*
G03X280821Y210208I-245J316D01*
G02X280203Y210957I1228J1642D01*
G01X252544D01*
X248988Y214512D01*
Y219276D01*
X247071Y221193D01*
X245192D01*
G02Y222982I-1845J895D01*
G01X247812D01*
X250777Y220017D01*
Y215253D01*
X253284Y212745D01*
X254863D01*
G03X255117Y213455I1J400D01*
G02X256980Y217012I1301J1585D01*
G01X257093Y216980D01*
X276914Y236801D01*
X295321D01*
G02Y235012I1845J-895D01*
G01X277655D01*
X258358Y215715D01*
X258390Y215602D01*
G02X257719Y213455I-1972J-562D01*
G03X257973Y212745I253J-310D01*
G01X280203D01*
G02X283308Y210233I1845J-894D01*
G03X283314Y209597I245J-316D01*
G02X283303Y206301I-1227J-1644D01*
G03X283309Y205653I237J-322D01*
G37*
G36*
G01X197127Y293791D02*
G02Y300305I0J3257D01*
G01X200276D01*
G02Y293791I0J-3257D01*
G01X197127D01*
G37*
G36*
G01X419129Y385505D02*
X414245Y380621D01*
X409361Y385505D01*
X414245Y390388D01*
X419129Y385505D01*
G37*
G36*
G01X370460Y351530D02*
G02X351530Y370460I-9465J9465D01*
G01X412775Y431706D01*
G02X431706Y412775I9465J-9465D01*
G01X370460Y351530D01*
G37*
G36*
G01X419522Y165835D02*
X414638Y160951D01*
X409755Y165835D01*
X414638Y170719D01*
X419522Y165835D01*
G37*
G54D22*
X188190Y328465D03*
X301320Y199272D03*
X320631Y338502D03*
X232875Y312402D03*
X345709Y345119D03*
G54D24*
X215827Y372520D03*
X300945Y322205D03*
G54D23*
X204095Y349253D03*
X198032Y221930D03*
X264410Y215945D03*
X254115Y221201D03*
X250414Y233524D03*
X306654Y217008D03*
X323898Y246182D03*
X332481Y198505D03*
X231024Y347638D03*
X277599Y324764D03*
X335040Y363780D03*
G54D26*
X222796Y189489D03*
X234410Y221260D03*
X305591Y256772D03*
X295043Y295355D03*
X315296Y314351D03*
X341615Y372245D03*
G54D27*
X198701Y272835D03*
Y280709D03*
Y288583D03*
G54D29*
X407174Y378434D03*
G54D21*
X147709Y379615D03*
X196812Y245827D03*
X276064Y346733D03*
X286064D03*
Y356575D03*
X296064Y346733D03*
X306064D03*
X296064Y356575D03*
X306064D03*
X196457Y319449D03*
X407568Y172906D03*
G54D20*
X146528Y175268D03*
X286024Y336890D03*
X306024D03*
X296024D03*
X359095Y231418D03*
Y241418D03*
Y251418D03*
G54D28*
X450079Y450079D03*
Y103623D03*
G54D19*
X103623D03*
Y450079D03*
G54D25*
X196812Y235828D03*
X276024Y336890D03*
X316064Y346732D03*
Y356576D03*
X359096Y261418D03*
X196458Y309450D03*
%LPD*%
G75*
G54D10*
X146529Y175269D03*
X147710Y379614D03*
X196812Y255827D03*
Y245827D03*
X196457Y319449D03*
X256379Y195709D03*
X246379D03*
X276379D03*
X266379D03*
X276064Y346733D03*
Y356575D03*
X286064Y346733D03*
X296064D03*
X296024Y336890D03*
X286024D03*
X286064Y356575D03*
X296064D03*
X306064Y346733D03*
X306024Y336890D03*
X306064Y356575D03*
X359095Y231418D03*
Y241418D03*
Y251418D03*
X407567Y172907D03*
X407173Y378433D03*
G54D11*
X139457Y168197D03*
X140638Y386686D03*
X414639Y165835D03*
X414245Y385505D03*
G54D12*
X174882Y211890D03*
X192953Y215552D03*
X184607Y221930D03*
X186694Y224882D03*
X188190Y328465D03*
X182520Y341654D03*
X211851Y179449D03*
X198032Y221930D03*
X209686Y249646D03*
X217638Y268229D03*
X200473Y327757D03*
X215906Y361024D03*
X204095Y349253D03*
X225670Y200788D03*
X237402Y234686D03*
X222284Y247638D03*
X236457Y250355D03*
X218977Y250394D03*
X230079D03*
X233898Y264134D03*
X232875Y312402D03*
X231024Y347638D03*
X223741Y351221D03*
X218583Y368977D03*
X256418Y215040D03*
X250414Y233524D03*
X254115Y221201D03*
X243347Y222087D03*
X259056Y228505D03*
X247127Y218623D03*
X260618Y242256D03*
X252008Y259134D03*
X256300Y279489D03*
X264410Y215945D03*
X282048Y211851D03*
X282087Y207953D03*
X282127Y203977D03*
X278347Y231969D03*
X263544Y230001D03*
X278820Y239449D03*
X273583Y257087D03*
X271497Y266379D03*
X279116Y300997D03*
X279174Y304646D03*
X276182Y311812D03*
Y308162D03*
X270001Y337993D03*
X277599Y324764D03*
X301320Y199272D03*
X294371Y208977D03*
X288347Y199804D03*
X297166Y235906D03*
X294489Y243780D03*
X289607Y259682D03*
X298097Y267456D03*
X295531Y264860D03*
X300788Y269922D03*
X292166Y262284D03*
X287910Y314508D03*
X282835Y309095D03*
X300945Y306142D03*
X285945Y325749D03*
X306654Y217008D03*
X323898Y246182D03*
X303820Y272481D03*
X320631Y338502D03*
X337481Y192323D03*
X343780Y176615D03*
X325355Y213190D03*
X332481Y198505D03*
X345709Y345119D03*
X328347Y352678D03*
X335040Y363780D03*
X336260Y374528D03*
X371103Y212127D03*
X375552Y199528D03*
X369371Y205434D03*
X369489Y339961D03*
X368623Y333662D03*
G54D13*
X196812Y235827D03*
X196457Y309449D03*
X236379Y195709D03*
X276024Y336890D03*
X316064Y346733D03*
Y356575D03*
X359095Y261418D03*
G54D14*
X198701Y272835D03*
Y280709D03*
Y288583D03*
G54D15*
Y264370D03*
Y297048D03*
G54D16*
X217796Y195355D03*
X206300Y236103D03*
X204410Y229213D03*
X216398Y246753D03*
X203898Y318426D03*
X214489Y328623D03*
X215827Y372520D03*
X222796Y189489D03*
X236457Y217599D03*
X234410Y221260D03*
X225434Y230119D03*
X219607Y220945D03*
X226024Y244095D03*
X231654Y276851D03*
X236694Y272127D03*
X222205Y277048D03*
X226851Y336694D03*
X245473Y248977D03*
X251654Y249292D03*
X259134Y252835D03*
X244292Y272520D03*
X249764Y309804D03*
X253465Y311300D03*
X244331Y311536D03*
X268977Y219764D03*
X262402Y356379D03*
X293780Y200867D03*
X285827Y246208D03*
X289371Y294764D03*
X285631Y289843D03*
X290709Y289804D03*
X295043Y295355D03*
X294922Y319253D03*
X287953Y319174D03*
X300945Y322205D03*
X303623Y212284D03*
X315906Y222796D03*
X315473Y245749D03*
X324056Y253505D03*
X305591Y256772D03*
X321733Y276851D03*
X319213Y268071D03*
X309804Y268229D03*
X312048Y294804D03*
X317402Y294961D03*
X319528Y316339D03*
X315296Y314351D03*
X314410Y336772D03*
X323426Y351457D03*
X332953Y186575D03*
X336615Y221851D03*
X324882Y223308D03*
X330237Y259922D03*
X328190Y279528D03*
X333938Y279607D03*
X325906Y323268D03*
X330394Y323308D03*
X328268Y337953D03*
X341615Y372245D03*
X350827Y227796D03*
X357166Y220552D03*
X346851Y259764D03*
G54D17*
G01X193158Y235827D02*
X196812D01*
G01X193670Y264371D02*
X198701D01*
Y264370D01*
G01X193670Y297048D02*
X198701D01*
G01X192804Y319449D02*
X196457D01*
G01X196812Y232174D02*
Y235827D01*
G01D02*
Y239481D01*
G01Y235827D02*
X200465D01*
G01X198701Y264370D02*
Y264371D01*
X203733D01*
G01X198701Y264370D02*
Y267827D01*
G01Y293591D02*
Y297048D01*
G01D02*
Y300505D01*
G01Y297048D02*
X203733D01*
G01X196457Y315796D02*
Y319449D01*
G01D02*
Y323103D01*
G01Y319449D02*
X200111D01*
G01X246379Y192056D02*
Y195709D01*
G01X242725D02*
X246379D01*
G01D02*
X250032D01*
G01X286024Y333237D02*
Y336890D01*
G01D02*
Y340544D01*
G01X282371Y336890D02*
X286024D01*
G01D02*
X289678D01*
G01X302410Y356575D02*
X306064D01*
G01X302410Y346733D02*
X306064D01*
G01Y343079D02*
Y346733D01*
G01Y352922D02*
Y356575D01*
G01D02*
Y360229D01*
G01Y356575D02*
X309717D01*
G01X306064Y346733D02*
Y350386D01*
G01Y346733D02*
X309717D01*
G01X359095Y247764D02*
Y251418D01*
G01D02*
Y255071D01*
G01X355442Y251418D02*
X359095D01*
G01D02*
X362749D01*
G54D18*
G01X192953Y215552D02*
X190355Y218150D01*
Y323780D01*
X194331Y327757D01*
X200473D01*
G01X256300Y279489D02*
Y302757D01*
X251746Y307310D01*
X242888D01*
X228229Y321969D01*
Y328465D01*
X222914Y333780D01*
X190394D01*
X182520Y341654D01*
G01X209686Y249646D02*
Y247202D01*
X209725Y247163D01*
Y227087D01*
X237008Y199804D01*
X288347D01*
G01X215906Y361024D02*
X218150Y363268D01*
X321930D01*
X328347Y356851D01*
Y352678D01*
G01X337481Y192323D02*
X335394Y190237D01*
X230631D01*
X225670Y195197D01*
Y200788D01*
G01X282087Y207953D02*
X241300D01*
X222284Y226969D01*
Y247638D01*
G01X218977Y250394D02*
Y233492D01*
X219005Y233464D01*
Y231419D01*
X218977Y231391D01*
Y225512D01*
X240512Y203977D01*
X282127D01*
G01X222284Y247638D02*
X233741D01*
X236457Y250355D01*
G01X294489Y243780D02*
X286927D01*
X286860Y243714D01*
X284794D01*
X284728Y243780D01*
X281575D01*
X257127Y268229D01*
X217638D01*
G01X297166Y235906D02*
X277284D01*
X256418Y215040D01*
G01X282048Y211851D02*
X252914D01*
X249882Y214882D01*
Y219647D01*
X247442Y222087D01*
X243347D01*
G01X371103Y212127D02*
X358032Y225197D01*
X331851D01*
X325079Y231969D01*
X278347D01*
G01X263544Y230001D02*
Y236862D01*
X260618Y239787D01*
Y242256D01*
G01X278820Y239449D02*
X295749D01*
X324764Y268465D01*
Y312638D01*
X339843Y327717D01*
X357245D01*
X369489Y339961D01*
G01X303820Y272481D02*
X283741D01*
X276851Y279371D01*
Y287087D01*
X287967Y298203D01*
Y311495D01*
X287914Y311548D01*
Y312036D01*
X287910Y312040D01*
Y314508D01*
G01X298097Y267456D02*
X280774D01*
X271694Y276536D01*
Y293575D01*
X279116Y300997D01*
G01X295531Y264860D02*
X281165D01*
X269961Y276064D01*
Y297902D01*
X276705Y304646D01*
X279174D01*
G01X289607Y259682D02*
X281776D01*
X265631Y275827D01*
Y301260D01*
X276182Y311812D01*
G01X300788Y269922D02*
X298320D01*
X298317Y269924D01*
X282282D01*
X274410Y277796D01*
Y290709D01*
X282835Y299134D01*
Y309095D01*
G01X292166Y262284D02*
X281457D01*
X267560Y276182D01*
Y299540D01*
X276182Y308162D01*
G01X276064Y356575D02*
X272217D01*
X270001Y354359D01*
Y337993D01*
G01X294371Y208977D02*
X308111D01*
X312323Y213190D01*
X325355D01*
M02*
