G04 ================== begin FILE IDENTIFICATION RECORD ==================*
G04 Layout Name:  C:/tempPCBDir/adfc7a8bf2efe4c205e85b00f260adc3/HQBrdTmp.brd*
G04 Film Name:    MASKTOP*
G04 File Format:  Gerber RS274X*
G04 File Origin:  Cadence Allegro -unreleased*
G04 Origin Date:  Sun May  8 00:01:21 2022*
G04 *
G04 Layer:  BOARD GEOMETRY/OUTLINE*
G04 Layer:  BOARD GEOMETRY/SOLDERMASK_TOP*
G04 Layer:  PACKAGE GEOMETRY/SOLDERMASK_TOP*
G04 Layer:  PIN/SOLDERMASK_TOP*
G04 *
G04 Offset:    (0.00 0.00)*
G04 Mirror:    No*
G04 Mode:      Positive*
G04 Rotation:  0*
G04 FullContactRelief:  No*
G04 UndefLineWidth:     0.11*
G04 ================== end FILE IDENTIFICATION RECORD ====================*
%FSLAX25Y25*MOIN*%
%IR0*IPPOS*OFA0.00000B0.00000*MIA0B0*SFA1.00000B1.00000*%
%AMMACRO32*
4,1,10,-.02362,-.1122,
.02362,-.1122,
.02362,-.0374,
.04724,-.01378,
.04724,.07283,
.00787,.1122,
-.00787,.1122,
-.04724,.07283,
-.04724,-.01378,
-.02362,-.0374,
-.02362,-.1122,
0.0*
%
%ADD32MACRO32*%
%ADD16C,.05118*%
%AMMACRO17*
21,1,.08268,.04331,0.0,0.0,135.*%
%ADD17MACRO17*%
%AMMACRO14*
21,1,.02756,.03543,0.0,0.0,135.*%
%ADD14MACRO14*%
%AMMACRO10*
21,1,.05118,.05118,0.0,0.0,45.*%
%ADD10MACRO10*%
%ADD29R,.03543X.03543*%
%ADD24R,.09055X.22913*%
%ADD23R,.01772X.01772*%
%ADD19C,.06693*%
%ADD31R,.0748X.0748*%
%ADD12C,.06299*%
%AMMACRO11*
21,1,.02756,.02756,0.0,0.0,45.*%
%ADD11MACRO11*%
%ADD22R,.02756X.02756*%
%AMMACRO13*
21,1,.06299,.06299,0.0,0.0,45.*%
%ADD13MACRO13*%
%ADD18R,.06299X.06299*%
%ADD28R,.10236X.10236*%
%ADD38R,.0374X.04331*%
%AMMACRO21*
21,1,.08268,.04331,0.0,0.0,45.*%
%ADD21MACRO21*%
%AMMACRO15*
21,1,.02756,.03543,0.0,0.0,45.*%
%ADD15MACRO15*%
%ADD35R,.05906X.05118*%
%ADD25R,.05118X.02756*%
%ADD20O,.09055X.05906*%
%ADD39R,.05118X.08268*%
%ADD30R,.04724X.06693*%
%AMMACRO34*
4,1,40,-.02795,.00551,
.02795,.00551,
.028429,.005469,
.028893,.005345,
.029328,.005143,
.029722,.004868,
.030062,.004529,
.030339,.004136,
.030542,.003701,
.030667,.003238,
.03071,.00276,
.03071,-.00276,
.030667,-.003238,
.030542,-.003702,
.030338,-.004137,
.030062,-.00453,
.029722,-.004869,
.029328,-.005144,
.028892,-.005346,
.028428,-.005469,
.02795,-.00551,
-.02795,-.00551,
-.028429,-.005469,
-.028893,-.005345,
-.029328,-.005143,
-.029722,-.004868,
-.030062,-.004529,
-.030339,-.004136,
-.030542,-.003701,
-.030667,-.003238,
-.03071,-.00276,
-.03071,.00276,
-.030667,.003238,
-.030542,.003702,
-.030338,.004137,
-.030062,.00453,
-.029722,.004869,
-.029328,.005144,
-.028892,.005346,
-.028428,.005469,
-.02795,.00551,
0.0*
%
%ADD34MACRO34*%
%AMMACRO33*
4,1,40,.00551,.02795,
.00551,-.02795,
.005469,-.028429,
.005345,-.028893,
.005143,-.029328,
.004868,-.029722,
.004529,-.030062,
.004136,-.030339,
.003701,-.030542,
.003238,-.030667,
.00276,-.03071,
-.00276,-.03071,
-.003238,-.030667,
-.003702,-.030542,
-.004137,-.030338,
-.00453,-.030062,
-.004869,-.029722,
-.005144,-.029328,
-.005346,-.028892,
-.005469,-.028428,
-.00551,-.02795,
-.00551,.02795,
-.005469,.028429,
-.005345,.028893,
-.005143,.029328,
-.004868,.029722,
-.004529,.030062,
-.004136,.030339,
-.003701,.030542,
-.003238,.030667,
-.00276,.03071,
.00276,.03071,
.003238,.030667,
.003702,.030542,
.004137,.030338,
.00453,.030062,
.004869,.029722,
.005144,.029328,
.005346,.028892,
.005469,.028428,
.00551,.02795,
0.0*
%
%ADD33MACRO33*%
%AMMACRO26*
4,1,40,.00512,.01467,
.00512,-.01467,
.0051,-.014891,
.005041,-.015106,
.004946,-.015307,
.004818,-.015489,
.00466,-.015645,
.004477,-.015772,
.004275,-.015865,
.00406,-.015922,
.00384,-.01594,
-.00384,-.01594,
-.004062,-.015921,
-.004277,-.015864,
-.004479,-.015771,
-.004661,-.015644,
-.004819,-.015487,
-.004947,-.015306,
-.005042,-.015104,
-.0051,-.01489,
-.00512,-.01467,
-.00512,.01467,
-.0051,.014891,
-.005041,.015106,
-.004946,.015307,
-.004818,.015489,
-.00466,.015645,
-.004477,.015772,
-.004275,.015865,
-.00406,.015922,
-.00384,.01594,
.00384,.01594,
.004062,.015921,
.004277,.015864,
.004479,.015771,
.004661,.015644,
.004819,.015487,
.004947,.015306,
.005042,.015104,
.0051,.01489,
.00512,.01467,
0.0*
%
%ADD26MACRO26*%
%AMMACRO27*
4,1,40,.01467,-.00512,
-.01467,-.00512,
-.014891,-.0051,
-.015106,-.005041,
-.015307,-.004946,
-.015489,-.004818,
-.015645,-.00466,
-.015772,-.004477,
-.015865,-.004275,
-.015922,-.00406,
-.01594,-.00384,
-.01594,.00384,
-.015921,.004062,
-.015864,.004277,
-.015771,.004479,
-.015644,.004661,
-.015487,.004819,
-.015306,.004947,
-.015104,.005042,
-.01489,.0051,
-.01467,.00512,
.01467,.00512,
.014891,.0051,
.015106,.005041,
.015307,.004946,
.015489,.004818,
.015645,.00466,
.015772,.004477,
.015865,.004275,
.015922,.00406,
.01594,.00384,
.01594,-.00384,
.015921,-.004062,
.015864,-.004277,
.015771,-.004479,
.015644,-.004661,
.015487,-.004819,
.015306,-.004947,
.015104,-.005042,
.01489,-.0051,
.01467,-.00512,
0.0*
%
%ADD27MACRO27*%
%AMMACRO36*
4,1,44,.00512,.01526,
.00512,-.01526,
.005101,-.015482,
.005043,-.015698,
.004949,-.0159,
.004821,-.016082,
.004664,-.01624,
.004481,-.016368,
.004279,-.016463,
.004064,-.01652,
.003842,-.01654,
.00384,-.01654,
-.00384,-.01654,
-.004062,-.016521,
-.004278,-.016463,
-.00448,-.016369,
-.004662,-.016241,
-.00482,-.016084,
-.004948,-.015901,
-.005043,-.015699,
-.0051,-.015484,
-.00512,-.015262,
-.00512,-.01526,
-.00512,.01526,
-.005101,.015482,
-.005043,.015698,
-.004949,.0159,
-.004821,.016082,
-.004664,.01624,
-.004481,.016368,
-.004279,.016463,
-.004064,.01652,
-.003842,.01654,
-.00384,.01654,
.00384,.01654,
.004062,.016521,
.004278,.016463,
.00448,.016369,
.004662,.016241,
.00482,.016084,
.004948,.015901,
.005043,.015699,
.0051,.015484,
.00512,.015262,
.00512,.01526,
0.0*
%
%ADD36MACRO36*%
%AMMACRO37*
4,1,44,.01526,-.00512,
-.01526,-.00512,
-.015482,-.005101,
-.015698,-.005043,
-.0159,-.004949,
-.016082,-.004821,
-.01624,-.004664,
-.016368,-.004481,
-.016463,-.004279,
-.01652,-.004064,
-.01654,-.003842,
-.01654,-.00384,
-.01654,.00384,
-.016521,.004062,
-.016463,.004278,
-.016369,.00448,
-.016241,.004662,
-.016084,.00482,
-.015901,.004948,
-.015699,.005043,
-.015484,.0051,
-.015262,.00512,
-.01526,.00512,
.01526,.00512,
.015482,.005101,
.015698,.005043,
.0159,.004949,
.016082,.004821,
.01624,.004664,
.016368,.004481,
.016463,.004279,
.01652,.004064,
.01654,.003842,
.01654,.00384,
.01654,-.00384,
.016521,-.004062,
.016463,-.004278,
.016369,-.00448,
.016241,-.004662,
.016084,-.00482,
.015901,-.004948,
.015699,-.005043,
.015484,-.0051,
.015262,-.00512,
.01526,-.00512,
0.0*
%
%ADD37MACRO37*%
%ADD40C,.00011*%
G75*
%LPD*%
G75*
G36*
G01X351615Y286890D02*
X360276D01*
Y281379D01*
X351615D01*
Y286890D01*
G37*
G36*
G01Y308544D02*
X360276D01*
Y303032D01*
X351615D01*
Y308544D01*
G37*
G54D10*
X124171Y151730D03*
X116933Y144492D03*
X124171Y401972D03*
X116933Y409210D03*
X429531Y151730D03*
Y401972D03*
X436769Y144492D03*
Y409210D03*
G54D20*
X198701Y264370D03*
Y297048D03*
G54D11*
X132504Y157419D03*
X129860Y160063D03*
Y393639D03*
X132504Y396283D03*
X162025Y196946D03*
X167143Y190411D03*
X169787Y193055D03*
X164669Y199590D03*
X171086Y359781D03*
X168442Y362425D03*
X162734Y356874D03*
X165378Y354230D03*
X178757Y216198D03*
X181401Y218842D03*
X224033Y359000D03*
X226677Y356356D03*
X383167Y194354D03*
X385811Y191710D03*
X388600Y353954D03*
X385575Y362110D03*
X382931Y359466D03*
X391677Y196277D03*
X389033Y198921D03*
X391244Y356598D03*
X423842Y160063D03*
X421198Y157419D03*
Y396283D03*
X423842Y393639D03*
G54D30*
X237795Y338859D03*
X249607D03*
G54D21*
X198023Y343152D03*
X206932Y334243D03*
X219459Y346770D03*
X210550Y355679D03*
X343152Y198023D03*
X346770Y219459D03*
X334243Y206932D03*
X355679Y210550D03*
G54D12*
X146529Y175269D03*
X147710Y379614D03*
X196812Y255827D03*
Y245827D03*
X196457Y319449D03*
X256379Y195709D03*
X246379D03*
X276379D03*
X266379D03*
X276064Y346733D03*
Y356575D03*
X286064Y346733D03*
X296064D03*
X296024Y336890D03*
X286024D03*
X286064Y356575D03*
X296064D03*
X306064Y346733D03*
X306024Y336890D03*
X306064Y356575D03*
X359095Y231418D03*
Y241418D03*
Y251418D03*
X407567Y172907D03*
X407173Y378433D03*
G54D40*
G01X188268Y321142D02*
X86094Y434244D01*
G02X119458Y467608I17529J15835D01*
G01X232560Y365434D01*
X321142D01*
X434244Y467608D01*
G02X467608Y434244I15835J-17529D01*
G01X365434Y321142D01*
Y232560D01*
X467608Y119458D01*
G02X434244Y86094I-17529J-15835D01*
G01X321142Y188268D01*
X232560D01*
X119458Y86094D01*
G02X86094Y119458I-15835J17529D01*
G01X188268Y232560D01*
Y321142D01*
G01X86094Y119458D02*
G03X119458Y86094I17529J-15835D01*
G01X121339Y103623D02*
G03I-17716J0D01*
G01X188268Y232560D02*
X86094Y119458D01*
G01X119458Y467608D02*
G03X86094Y434244I-15835J-17529D01*
G01X121339Y450079D02*
G03I-17716J0D01*
G01X188268Y321142D02*
X86094Y434244D01*
G01X232560Y188268D02*
X119458Y86094D01*
G01X201058Y184355D02*
X139813Y123110D01*
G02X123110Y139813I-8351J8351D01*
G01X184355Y201058D01*
G02X201058Y184355I8352J-8351D01*
G01X123110Y139813D02*
G03X139813Y123110I8352J-8352D01*
G01X123110Y139813D02*
X184355Y201058D01*
G01Y352644D02*
X123110Y413889D01*
G02X139813Y430592I8351J8352D01*
G01X201058Y369347D01*
G02X184355Y352644I-8351J-8352D01*
G01X123110Y413889D02*
X184355Y352644D01*
G01X139813Y430592D02*
G03X123110Y413889I-8352J-8351D01*
G01X232560Y365434D02*
X119458Y467608D01*
G01X139813Y123110D02*
X201058Y184355D01*
G01X139813Y430592D02*
X201058Y369347D01*
G01Y184355D02*
G03X184355Y201058I-8351J8352D01*
G01X188268Y321142D02*
Y232560D01*
G01X184355Y352644D02*
G03X201058Y369347I8352J8351D01*
G01X232560Y188268D02*
X321142D01*
G01X232560Y365434D02*
X321142D01*
G01Y188268D02*
X434244Y86094D01*
G01X321142Y365434D02*
X434244Y467608D01*
G01X413889Y123110D02*
X352644Y184355D01*
G02X369347Y201058I8351J8352D01*
G01X430592Y139813D01*
G02X413889Y123110I-8351J-8352D01*
G01D02*
X352644Y184355D01*
G01X369347Y201058D02*
G03X352644Y184355I-8352J-8351D01*
G01X365434Y232560D02*
Y321142D01*
G01Y232560D02*
X467608Y119458D01*
G01X365434Y321142D02*
X467608Y434244D01*
G01X430592Y413889D02*
X369347Y352644D01*
G02X352644Y369347I-8352J8351D01*
G01X413889Y430592D01*
G02X430592Y413889I8351J-8351D01*
G01X352644Y369347D02*
G03X369347Y352644I8351J-8352D01*
G01X413889Y430592D02*
X352644Y369347D01*
G01X430592Y139813D02*
X369347Y201058D01*
G01X430592Y413889D02*
X369347Y352644D01*
G01X413889Y123110D02*
G03X430592Y139813I8352J8351D01*
G01Y413889D02*
G03X413889Y430592I-8352J8352D01*
G01X434244Y86094D02*
G03X467608Y119458I15835J17529D01*
G01X467796Y103623D02*
G03I-17717J0D01*
G01Y450079D02*
G03I-17717J0D01*
G01X467608Y434244D02*
G03X434244Y467608I-17529J15835D01*
G54D13*
X139457Y168197D03*
X140638Y386686D03*
X414639Y165835D03*
X414245Y385505D03*
G54D22*
X210060Y228229D03*
X213800D03*
X205237Y249627D03*
Y245887D03*
X212481Y260099D03*
Y263839D03*
X212638Y269154D03*
Y272894D03*
X209863Y322757D03*
X213603D03*
X229312Y215670D03*
X233052D03*
X222697Y225434D03*
X218957D03*
X219686Y260099D03*
X233898Y256083D03*
Y259823D03*
X221162Y272914D03*
X224902D03*
X219686Y263839D03*
X238249Y318465D03*
X227363Y311654D03*
Y315394D03*
X223898Y322717D03*
X220158D03*
X223878Y327914D03*
X220138D03*
X243603Y215631D03*
X239863D03*
X255040Y237264D03*
Y233524D03*
X257481Y221201D03*
Y224941D03*
X245079Y259705D03*
Y255965D03*
X239882Y256044D03*
Y259784D03*
X251418Y265532D03*
Y269272D03*
X253426Y293682D03*
Y289942D03*
X241989Y318465D03*
X249764Y317894D03*
Y321634D03*
X253485Y327166D03*
X249745D03*
X253485Y332008D03*
X249745D03*
X239942Y332205D03*
X243682D03*
X269213Y208091D03*
Y211831D03*
X264410D03*
Y208091D03*
X275650Y266418D03*
X279390D03*
X281556Y320197D03*
X277816D03*
X301319Y203386D03*
X297579D03*
X291536Y280729D03*
Y284469D03*
X294115Y324174D03*
X290375D03*
X311162Y217087D03*
X314902D03*
X311319Y203229D03*
X307579D03*
X311319Y197402D03*
X307579D03*
X323898Y238367D03*
X319134D03*
X323898Y242107D03*
X319134D03*
X308524Y262205D03*
X312264D03*
X318465Y283761D03*
Y287501D03*
X311556Y323032D03*
X315296D03*
X311556Y318583D03*
X315296D03*
X305867Y322678D03*
X311556Y327442D03*
X315296D03*
X305867Y326418D03*
X320552Y328524D03*
Y332264D03*
X340414Y228780D03*
X336674D03*
X336989Y259725D03*
X340729D03*
X334922Y302068D03*
X334272Y292993D03*
X330532D03*
X334272Y287875D03*
X330532D03*
X334941Y315040D03*
X331201D03*
X334922Y305808D03*
G54D31*
X245394Y283386D03*
Y299922D03*
G54D23*
X216398Y235532D03*
X213839D03*
X216398Y241240D03*
X213839D03*
X221517Y235532D03*
X218958D03*
X221517Y241240D03*
X218958D03*
G54D14*
X153117Y180676D03*
X156096Y188945D03*
X161386Y183655D03*
X397606Y364757D03*
X392316Y370047D03*
X400585Y373026D03*
G54D32*
X243701Y346733D03*
G54D33*
X279922Y218465D03*
X277953D03*
Y251379D03*
X279922D03*
X299607Y218465D03*
X297638D03*
X295670D03*
X293701D03*
X291733D03*
X289764D03*
X287796D03*
X285827D03*
X283859D03*
X281890D03*
Y251379D03*
X283859D03*
X285827D03*
X287796D03*
X289764D03*
X291733D03*
X293701D03*
X295670D03*
X297638D03*
X299607D03*
G54D15*
X153117Y373026D03*
X156096Y364757D03*
X161386Y370047D03*
X392316Y183655D03*
X397606Y188945D03*
X400585Y180676D03*
G54D24*
X214016Y291654D03*
X233702D03*
G54D34*
X272323Y224095D03*
Y226064D03*
Y228032D03*
Y230001D03*
Y231969D03*
Y233938D03*
Y235906D03*
Y237875D03*
Y239843D03*
Y241812D03*
Y243780D03*
Y245749D03*
X305237Y237875D03*
Y235906D03*
Y233938D03*
Y231969D03*
Y230001D03*
Y228032D03*
Y226064D03*
Y224095D03*
Y239843D03*
Y245749D03*
Y243780D03*
Y241812D03*
G54D25*
X209843Y317284D03*
Y313544D03*
Y309804D03*
X220079Y317284D03*
Y313544D03*
Y309804D03*
G54D16*
X176457Y205985D03*
Y347717D03*
X377245Y205985D03*
Y347717D03*
G54D26*
X236418Y227009D03*
X234449D03*
X232481D03*
X238386D03*
X232481Y242363D03*
X234449D03*
X236418D03*
X238386D03*
X242323Y227009D03*
X240355D03*
Y242363D03*
X242323D03*
G54D35*
X301181Y280749D03*
Y287441D03*
X309843Y280749D03*
Y287441D03*
G54D17*
X198023Y210550D03*
X210550Y198023D03*
X219459Y206932D03*
X206932Y219459D03*
X334243Y346770D03*
X346770Y334243D03*
X343152Y355679D03*
X355679Y343152D03*
G54D36*
X300945Y298524D03*
X298976D03*
X297008D03*
Y313760D03*
X298976D03*
X300945D03*
X302914Y298524D03*
X304882D03*
X302914Y313760D03*
X304882D03*
G54D27*
X229725Y229765D03*
Y231733D03*
Y233702D03*
Y235670D03*
Y237639D03*
Y239607D03*
X245079Y237639D03*
Y235670D03*
Y233702D03*
Y231733D03*
Y229765D03*
Y239607D03*
G54D18*
X196812Y235827D03*
X196457Y309449D03*
X236379Y195709D03*
X276024Y336890D03*
X316064Y346733D03*
Y356575D03*
X359095Y261418D03*
G54D37*
X293327Y302205D03*
Y304173D03*
Y306142D03*
Y308111D03*
Y310079D03*
X308563Y302205D03*
Y310079D03*
Y308111D03*
Y306142D03*
Y304173D03*
G54D28*
X237402Y234686D03*
X300945Y306142D03*
G54D19*
X198701Y272835D03*
Y280709D03*
Y288583D03*
G54D38*
X318347Y302658D03*
X324804Y295532D03*
Y301634D03*
X318347Y308760D03*
X325079Y315099D03*
Y308997D03*
G54D29*
X238229Y325906D03*
X244135D03*
X322678Y197363D03*
X316772D03*
X322678Y203249D03*
X316772D03*
G54D39*
X343387Y237127D03*
X334725D03*
X343387Y251693D03*
X334725D03*
M02*
