G04 ================== begin FILE IDENTIFICATION RECORD ==================*
G04 Layout Name:  C:/tempPCBDir/adfc7a8bf2efe4c205e85b00f260adc3/HQBrdTmp.brd*
G04 Film Name:    MASKBOTTOM*
G04 File Format:  Gerber RS274X*
G04 File Origin:  Cadence Allegro -unreleased*
G04 Origin Date:  Sun May  8 00:01:21 2022*
G04 *
G04 Layer:  BOARD GEOMETRY/OUTLINE*
G04 Layer:  BOARD GEOMETRY/SOLDERMASK_BOTTOM*
G04 Layer:  PACKAGE GEOMETRY/SOLDERMASK_BOTTOM*
G04 Layer:  PIN/SOLDERMASK_BOTTOM*
G04 *
G04 Offset:    (0.00 0.00)*
G04 Mirror:    No*
G04 Mode:      Positive*
G04 Rotation:  0*
G04 FullContactRelief:  No*
G04 UndefLineWidth:     0.11*
G04 ================== end FILE IDENTIFICATION RECORD ====================*
%FSLAX25Y25*MOIN*%
%IR0*IPPOS*OFA0.00000B0.00000*MIA0B0*SFA1.00000B1.00000*%
%ADD11C,.06693*%
%ADD10C,.06299*%
%ADD12O,.09055X.05906*%
%ADD13C,.00011*%
G75*
%LPD*%
G75*
G54D10*
X146529Y175269D03*
X139457Y168197D03*
X147710Y379614D03*
X140638Y386686D03*
X196812Y235827D03*
Y255827D03*
Y245827D03*
X196457Y319449D03*
Y309449D03*
X236379Y195709D03*
X256379D03*
X246379D03*
X276379D03*
X266379D03*
X276064Y346733D03*
X276024Y336890D03*
X276064Y356575D03*
X286064Y346733D03*
X296064D03*
X296024Y336890D03*
X286024D03*
X286064Y356575D03*
X296064D03*
X306064Y346733D03*
X316064D03*
X306024Y336890D03*
X306064Y356575D03*
X316064D03*
X359095Y231418D03*
Y241418D03*
Y251418D03*
Y261418D03*
X407567Y172907D03*
X407173Y378433D03*
X414639Y165835D03*
X414245Y385505D03*
G54D11*
X198701Y272835D03*
Y280709D03*
Y288583D03*
G54D12*
Y264370D03*
Y297048D03*
G54D13*
G01X188268Y321142D02*
X86094Y434244D01*
G02X119458Y467608I17529J15835D01*
G01X232560Y365434D01*
X321142D01*
X434244Y467608D01*
G02X467608Y434244I15835J-17529D01*
G01X365434Y321142D01*
Y232560D01*
X467608Y119458D01*
G02X434244Y86094I-17529J-15835D01*
G01X321142Y188268D01*
X232560D01*
X119458Y86094D01*
G02X86094Y119458I-15835J17529D01*
G01X188268Y232560D01*
Y321142D01*
G01X86094Y119458D02*
G03X119458Y86094I17529J-15835D01*
G01X121339Y103623D02*
G03I-17716J0D01*
G01X188268Y232560D02*
X86094Y119458D01*
G01X119458Y467608D02*
G03X86094Y434244I-15835J-17529D01*
G01X121339Y450079D02*
G03I-17716J0D01*
G01X188268Y321142D02*
X86094Y434244D01*
G01X232560Y188268D02*
X119458Y86094D01*
G01X201058Y184355D02*
X139813Y123110D01*
G02X123110Y139813I-8351J8351D01*
G01X184355Y201058D01*
G02X201058Y184355I8352J-8351D01*
G01X123110Y139813D02*
G03X139813Y123110I8352J-8352D01*
G01X123110Y139813D02*
X184355Y201058D01*
G01Y352644D02*
X123110Y413889D01*
G02X139813Y430592I8351J8352D01*
G01X201058Y369347D01*
G02X184355Y352644I-8351J-8352D01*
G01X123110Y413889D02*
X184355Y352644D01*
G01X139813Y430592D02*
G03X123110Y413889I-8352J-8351D01*
G01X232560Y365434D02*
X119458Y467608D01*
G01X139813Y123110D02*
X201058Y184355D01*
G01X139813Y430592D02*
X201058Y369347D01*
G01Y184355D02*
G03X184355Y201058I-8351J8352D01*
G01X188268Y321142D02*
Y232560D01*
G01X184355Y352644D02*
G03X201058Y369347I8352J8351D01*
G01X232560Y188268D02*
X321142D01*
G01X232560Y365434D02*
X321142D01*
G01Y188268D02*
X434244Y86094D01*
G01X321142Y365434D02*
X434244Y467608D01*
G01X413889Y123110D02*
X352644Y184355D01*
G02X369347Y201058I8351J8352D01*
G01X430592Y139813D01*
G02X413889Y123110I-8351J-8352D01*
G01D02*
X352644Y184355D01*
G01X369347Y201058D02*
G03X352644Y184355I-8352J-8351D01*
G01X365434Y232560D02*
Y321142D01*
G01Y232560D02*
X467608Y119458D01*
G01X365434Y321142D02*
X467608Y434244D01*
G01X430592Y413889D02*
X369347Y352644D01*
G02X352644Y369347I-8352J8351D01*
G01X413889Y430592D01*
G02X430592Y413889I8351J-8351D01*
G01X352644Y369347D02*
G03X369347Y352644I8351J-8352D01*
G01X413889Y430592D02*
X352644Y369347D01*
G01X430592Y139813D02*
X369347Y201058D01*
G01X430592Y413889D02*
X369347Y352644D01*
G01X413889Y123110D02*
G03X430592Y139813I8352J8351D01*
G01Y413889D02*
G03X413889Y430592I-8352J8352D01*
G01X434244Y86094D02*
G03X467608Y119458I15835J17529D01*
G01X467796Y103623D02*
G03I-17717J0D01*
G01Y450079D02*
G03I-17717J0D01*
G01X467608Y434244D02*
G03X434244Y467608I-17529J15835D01*
M02*
