G04 ================== begin FILE IDENTIFICATION RECORD ==================*
G04 Layout Name:  C:/tempPCBDir/adfc7a8bf2efe4c205e85b00f260adc3/HQBrdTmp.brd*
G04 Film Name:    SIKTOP*
G04 File Format:  Gerber RS274X*
G04 File Origin:  Cadence Allegro -unreleased*
G04 Origin Date:  Sun May  8 00:01:21 2022*
G04 *
G04 Layer:  BOARD GEOMETRY/OUTLINE*
G04 Layer:  BOARD GEOMETRY/SILKSCREEN_TOP*
G04 Layer:  PACKAGE GEOMETRY/SILKSCREEN_TOP*
G04 Layer:  REF DES/SILKSCREEN_TOP*
G04 *
G04 Offset:    (0.00 0.00)*
G04 Mirror:    No*
G04 Mode:      Positive*
G04 Rotation:  0*
G04 FullContactRelief:  No*
G04 UndefLineWidth:     0.11*
G04 ================== end FILE IDENTIFICATION RECORD ====================*
%FSLAX25Y25*MOIN*%
%IR0*IPPOS*OFA0.00000B0.00000*MIA0B0*SFA1.00000B1.00000*%
%ADD10C,.005*%
%ADD11C,.00011*%
%ADD12C,.00394*%
%ADD13C,.00787*%
G75*
%LPD*%
G75*
G36*
G01X214521Y233308D02*
G03I-623J0D01*
G37*
G36*
G01X222981Y306615D02*
G03I-1012J0D01*
G37*
G36*
G01X235144Y325788D02*
G03I-419J0D01*
G37*
G36*
G01X240749Y326654D02*
Y325158D01*
X241497Y325906D01*
X240749Y326654D01*
G37*
G36*
G01X319292Y198111D02*
Y196615D01*
X320040Y197363D01*
X319292Y198111D01*
G37*
G36*
G01X313687Y197245D02*
G03I-419J0D01*
G37*
G36*
G01X319292Y203997D02*
Y202501D01*
X320040Y203249D01*
X319292Y203997D01*
G37*
G36*
G01X313687Y203131D02*
G03I-419J0D01*
G37*
G54D10*
G01X230709Y226812D02*
X229528D01*
Y227993D01*
G01X230709Y242560D02*
X229528D01*
Y241379D01*
G01X234843Y342796D02*
X252560D01*
Y352638D01*
X234843D01*
Y342796D01*
G01X244095Y226812D02*
X245276D01*
Y227993D01*
G01X244095Y242560D02*
X245276D01*
Y241379D01*
G01X274607Y222284D02*
Y220749D01*
X276142D01*
G01Y249095D02*
X274607D01*
Y247560D01*
G01X301418Y220749D02*
X302953D01*
Y222284D01*
G01Y247560D02*
Y249095D01*
X301418D01*
G01X295237Y298268D02*
X293071D01*
Y300434D01*
G01X295237Y314016D02*
X293071D01*
Y311851D01*
G01X306654Y298268D02*
X308820D01*
Y300434D01*
G01X306654Y314016D02*
X308820D01*
Y311851D01*
G54D11*
G01X188268Y321142D02*
X86094Y434244D01*
G02X119458Y467608I17529J15835D01*
G01X232560Y365434D01*
X321142D01*
X434244Y467608D01*
G02X467608Y434244I15835J-17529D01*
G01X365434Y321142D01*
Y232560D01*
X467608Y119458D01*
G02X434244Y86094I-17529J-15835D01*
G01X321142Y188268D01*
X232560D01*
X119458Y86094D01*
G02X86094Y119458I-15835J17529D01*
G01X188268Y232560D01*
Y321142D01*
G01X86094Y119458D02*
G03X119458Y86094I17529J-15835D01*
G01X121339Y103623D02*
G03I-17716J0D01*
G01X188268Y232560D02*
X86094Y119458D01*
G01X119458Y467608D02*
G03X86094Y434244I-15835J-17529D01*
G01X121339Y450079D02*
G03I-17716J0D01*
G01X188268Y321142D02*
X86094Y434244D01*
G01X110152Y412278D02*
X108384Y414046D01*
X108761Y414423D01*
X109000Y414485D01*
X109231Y414480D01*
X109502Y414398D01*
X109784Y414267D01*
X110098Y413991D01*
X110373Y413678D01*
X110504Y413396D01*
X110587Y413125D01*
X110591Y412894D01*
X110529Y412655D01*
X110152Y412278D01*
G01X112349Y414475D02*
X110581Y416243D01*
X111150Y414278D01*
X112093Y415221D01*
G01X232560Y188268D02*
X119458Y86094D01*
G01X201058Y184355D02*
X139813Y123110D01*
G02X123110Y139813I-8351J8351D01*
G01X184355Y201058D01*
G02X201058Y184355I8352J-8351D01*
G01X123110Y139813D02*
G03X139813Y123110I8352J-8352D01*
G01X123110Y139813D02*
X184355Y201058D01*
G01X124089Y142081D02*
X122321Y143849D01*
X122698Y144226D01*
X122937Y144288D01*
X123168Y144283D01*
X123439Y144201D01*
X123721Y144070D01*
X124035Y143794D01*
X124310Y143481D01*
X124441Y143199D01*
X124524Y142928D01*
X124528Y142697D01*
X124466Y142458D01*
X124089Y142081D01*
G01X125291Y143990D02*
X125611Y143897D01*
X125879Y143930D01*
X126079Y144071D01*
X126200Y144251D01*
X126204Y144549D01*
X126121Y144820D01*
X125963Y145016D01*
X125719Y145184D01*
X125440Y145200D01*
X125249Y145126D01*
X125079Y144957D01*
G01X125249Y145126D02*
X125274Y145328D01*
X125221Y145570D01*
X125082Y145784D01*
X124867Y145923D01*
X124625Y145976D01*
X124367Y145895D01*
X124227Y145696D01*
X124175Y145408D01*
G01X133101Y154216D02*
X132900Y154191D01*
X132709Y154118D01*
X132558Y153967D01*
X132476Y153709D01*
X132492Y153430D01*
X132574Y153159D01*
X132793Y152789D01*
X133040Y152505D01*
X133343Y152277D01*
X133576Y152157D01*
X133866Y152093D01*
X134116Y152108D01*
X134307Y152181D01*
X134439Y152313D01*
X134512Y152504D01*
X134537Y152705D01*
X134513Y152917D01*
G01X135863Y153737D02*
X134095Y155504D01*
X134222Y154925D01*
G01X135636Y153510D02*
X136089Y153963D01*
G01X137419Y155293D02*
X137521Y155454D01*
X137584Y155693D01*
X137531Y155935D01*
X137362Y156179D01*
X137118Y156347D01*
X136828Y156411D01*
X136570Y156330D01*
X136382Y156141D01*
X136210Y156087D01*
X135968Y156140D01*
X135724Y156309D01*
X135574Y156571D01*
X135559Y156851D01*
X135651Y157060D01*
X135861Y157152D01*
X136140Y157137D01*
X136403Y156987D01*
X136571Y156743D01*
X136624Y156502D01*
X136570Y156330D01*
X136382Y156141D01*
X136300Y155883D01*
X136364Y155593D01*
X136532Y155349D01*
X136776Y155181D01*
X137018Y155128D01*
X137257Y155190D01*
X137419Y155293D01*
G01X184355Y352644D02*
X123110Y413889D01*
G02X139813Y430592I8351J8352D01*
G01X201058Y369347D01*
G02X184355Y352644I-8351J-8352D01*
G01X123110Y413889D02*
X184355Y352644D01*
G01X134531Y400916D02*
X134506Y401117D01*
X134433Y401308D01*
X134282Y401459D01*
X134024Y401541D01*
X133745Y401525D01*
X133474Y401443D01*
X133104Y401224D01*
X132820Y400977D01*
X132592Y400674D01*
X132472Y400441D01*
X132408Y400151D01*
X132423Y399901D01*
X132496Y399710D01*
X132628Y399578D01*
X132819Y399505D01*
X133020Y399480D01*
X133232Y399504D01*
G01X134052Y398154D02*
X135819Y399922D01*
X135240Y399795D01*
G01X133825Y398381D02*
X134278Y397928D01*
G01X135493Y397125D02*
X135478Y396846D01*
X135570Y396636D01*
X135780Y396544D01*
X136088Y396589D01*
X136448Y396760D01*
X136751Y396987D01*
X137075Y397311D01*
X137302Y397614D01*
X137444Y397944D01*
X137449Y398175D01*
X137375Y398366D01*
X137166Y398458D01*
X136935Y398453D01*
X136682Y398352D01*
X136409Y398154D01*
X136241Y397910D01*
X136129Y397609D01*
X136124Y397378D01*
X136226Y397217D01*
X136436Y397125D01*
X136697Y397159D01*
X137075Y397311D01*
G01X139813Y430592D02*
G03X123110Y413889I-8352J-8351D01*
G01X232560Y365434D02*
X119458Y467608D01*
G01X139813Y123110D02*
X201058Y184355D01*
G01X139288Y173895D02*
X137521Y175663D01*
X139484Y174680D01*
X138501Y176644D01*
X140269Y174876D01*
G01X139503Y177057D02*
X139440Y177346D01*
X139483Y177567D01*
X139605Y177747D01*
X139852Y177877D01*
X140131Y177861D01*
X140346Y177722D01*
X140504Y177527D01*
X140576Y177304D01*
X140493Y176632D01*
X140530Y176256D01*
X140711Y175849D01*
X140939Y175546D01*
X141731Y176338D01*
G01X154267Y176718D02*
X154145Y176899D01*
X154131Y177148D01*
X154195Y177438D01*
X154326Y177720D01*
X154524Y177993D01*
X154759Y178229D01*
X155033Y178427D01*
X155314Y178558D01*
X155604Y178622D01*
X155854Y178607D01*
X156034Y178486D01*
X156156Y178306D01*
X156170Y178056D01*
X156106Y177766D01*
X155976Y177484D01*
X155778Y177211D01*
X155542Y176975D01*
X155268Y176777D01*
X154987Y176646D01*
X154697Y176583D01*
X154447Y176597D01*
X154267Y176718D01*
G01X154889Y177039D02*
X154644Y176341D01*
G01X156938Y176994D02*
X157227Y177057D01*
X157448Y177014D01*
X157628Y176892D01*
X157758Y176645D01*
X157742Y176366D01*
X157603Y176151D01*
X157408Y175993D01*
X157185Y175921D01*
X156513Y176004D01*
X156137Y175967D01*
X155730Y175786D01*
X155427Y175558D01*
X156219Y174766D01*
G01X146099Y387012D02*
X147867Y388779D01*
X146884Y386816D01*
X148848Y387799D01*
X147080Y386031D01*
G01X148084Y385734D02*
X147991Y385414D01*
X148024Y385146D01*
X148165Y384946D01*
X148345Y384825D01*
X148643Y384821D01*
X148914Y384904D01*
X149110Y385062D01*
X149278Y385306D01*
X149294Y385585D01*
X149220Y385776D01*
X149051Y385946D01*
G01X149220Y385776D02*
X149422Y385751D01*
X149664Y385804D01*
X149878Y385943D01*
X150017Y386158D01*
X150070Y386400D01*
X149989Y386658D01*
X149790Y386798D01*
X149502Y386850D01*
G01X149386Y369425D02*
X149205Y369303D01*
X148956Y369289D01*
X148666Y369353D01*
X148384Y369484D01*
X148111Y369682D01*
X147875Y369917D01*
X147677Y370191D01*
X147546Y370472D01*
X147482Y370762D01*
X147497Y371012D01*
X147618Y371192D01*
X147798Y371314D01*
X148048Y371328D01*
X148338Y371264D01*
X148620Y371134D01*
X148893Y370936D01*
X149129Y370700D01*
X149327Y370426D01*
X149458Y370145D01*
X149521Y369855D01*
X149507Y369605D01*
X149386Y369425D01*
G01X149065Y370047D02*
X149763Y369802D01*
G01X150173Y370919D02*
X150493Y370826D01*
X150761Y370859D01*
X150961Y371000D01*
X151082Y371180D01*
X151086Y371478D01*
X151003Y371749D01*
X150845Y371945D01*
X150601Y372113D01*
X150322Y372129D01*
X150131Y372055D01*
X149961Y371886D01*
G01X150131Y372055D02*
X150156Y372257D01*
X150103Y372499D01*
X149964Y372713D01*
X149749Y372852D01*
X149507Y372905D01*
X149249Y372824D01*
X149109Y372625D01*
X149057Y372337D01*
G01X139813Y430592D02*
X201058Y369347D01*
G01X170229Y197095D02*
X171996Y198863D01*
X172468Y198392D01*
X172530Y198153D01*
X172507Y197940D01*
X172309Y197667D01*
X172035Y197469D01*
X171775Y197435D01*
X171554Y197478D01*
X171083Y197950D01*
G01X171554Y197478D02*
X170983Y196341D01*
G01X172162Y195162D02*
X173929Y196930D01*
X173350Y196803D01*
G01X171935Y195389D02*
X172388Y194936D01*
G01X173944Y193380D02*
X175712Y195148D01*
X173747Y194579D01*
X174690Y193636D01*
G01X165032Y203788D02*
X166799Y205556D01*
X167271Y205085D01*
X167333Y204846D01*
X167310Y204633D01*
X167112Y204360D01*
X166838Y204162D01*
X166578Y204128D01*
X166357Y204171D01*
X165886Y204643D01*
G01X166357Y204171D02*
X165786Y203034D01*
G01X166965Y201855D02*
X168732Y203623D01*
X168153Y203496D01*
G01X166738Y202082D02*
X167191Y201629D01*
G01X168521Y200299D02*
X168682Y200197D01*
X168921Y200134D01*
X169163Y200187D01*
X169407Y200356D01*
X169575Y200600D01*
X169639Y200890D01*
X169558Y201148D01*
X169369Y201336D01*
X169315Y201508D01*
X169368Y201750D01*
X169537Y201994D01*
X169799Y202144D01*
X170079Y202159D01*
X170288Y202067D01*
X170380Y201857D01*
X170365Y201578D01*
X170215Y201315D01*
X169971Y201147D01*
X169730Y201094D01*
X169558Y201148D01*
X169369Y201336D01*
X169111Y201418D01*
X168821Y201354D01*
X168577Y201186D01*
X168409Y200942D01*
X168356Y200700D01*
X168418Y200461D01*
X168521Y200299D01*
G01X172552Y356308D02*
X174319Y358076D01*
X174791Y357605D01*
X174853Y357366D01*
X174830Y357153D01*
X174632Y356880D01*
X174358Y356682D01*
X174098Y356648D01*
X173877Y356691D01*
X173406Y357163D01*
G01X173877Y356691D02*
X173306Y355554D01*
G01X174485Y354375D02*
X176252Y356143D01*
X175673Y356016D01*
G01X174258Y354602D02*
X174711Y354149D01*
G01X175926Y353346D02*
X175911Y353067D01*
X176003Y352857D01*
X176213Y352765D01*
X176521Y352810D01*
X176881Y352981D01*
X177184Y353208D01*
X177508Y353532D01*
X177735Y353835D01*
X177877Y354165D01*
X177882Y354396D01*
X177808Y354587D01*
X177599Y354679D01*
X177368Y354674D01*
X177115Y354573D01*
X176842Y354375D01*
X176674Y354131D01*
X176562Y353830D01*
X176557Y353599D01*
X176659Y353438D01*
X176869Y353346D01*
X177130Y353380D01*
X177508Y353532D01*
G01X166883Y350993D02*
X168650Y352761D01*
X169122Y352290D01*
X169184Y352051D01*
X169161Y351838D01*
X168963Y351565D01*
X168689Y351367D01*
X168429Y351333D01*
X168208Y351376D01*
X167737Y351848D01*
G01X168208Y351376D02*
X167637Y350239D01*
G01X168816Y349060D02*
X170583Y350828D01*
X170004Y350701D01*
G01X168589Y349287D02*
X169042Y348834D01*
G01X170222Y348184D02*
X170188Y347924D01*
X170231Y347703D01*
X170372Y347504D01*
X170600Y347394D01*
X170850Y347379D01*
X171151Y347491D01*
X171405Y347708D01*
X171603Y347982D01*
X171656Y348223D01*
X171642Y348473D01*
X171540Y348634D01*
X171378Y348737D01*
X171091Y348789D01*
X171913Y349498D01*
X172422Y348989D01*
G01X201058Y184355D02*
G03X184355Y201058I-8351J8352D01*
G01X180129Y211203D02*
X178362Y209435D01*
G01X179696Y211637D02*
X180563Y210769D01*
G01X181033Y209711D02*
X181322Y209774D01*
X181543Y209731D01*
X181723Y209609D01*
X181853Y209362D01*
X181837Y209083D01*
X181698Y208868D01*
X181503Y208710D01*
X181280Y208638D01*
X180608Y208721D01*
X180232Y208684D01*
X179825Y208503D01*
X179522Y208275D01*
X180314Y207483D01*
G01X184300Y217410D02*
X186068Y215643D01*
X185597Y215171D01*
X185358Y215109D01*
X185145Y215132D01*
X184872Y215330D01*
X184674Y215604D01*
X184640Y215864D01*
X184683Y216085D01*
X185155Y216556D01*
G01X184683Y216085D02*
X183546Y216656D01*
G01X182367Y215477D02*
X184135Y213710D01*
X184008Y214289D01*
G01X182594Y215704D02*
X182141Y215251D01*
G01X182643Y212806D02*
X182706Y212517D01*
X182663Y212296D01*
X182541Y212116D01*
X182294Y211986D01*
X182015Y212002D01*
X181800Y212141D01*
X181642Y212336D01*
X181570Y212559D01*
X181653Y213231D01*
X181616Y213607D01*
X181435Y214014D01*
X181207Y214317D01*
X180415Y213525D01*
G01X188268Y321142D02*
Y232560D01*
G01X191225Y301908D02*
X191438Y301700D01*
X191678Y301575D01*
X191892D01*
X192105Y301700D01*
X192265Y301908D01*
X192345Y302200D01*
X192292Y302492D01*
X192158Y302742D01*
X191918Y302908D01*
X191598Y302992D01*
X191412Y303158D01*
X191332Y303450D01*
X191385Y303742D01*
X191518Y303950D01*
X191705Y304075D01*
X191892D01*
X192078Y303992D01*
X192238Y303783D01*
G01X193185Y304075D02*
X193558Y301575D01*
X193985Y304075D01*
X194412Y301575D01*
X194785Y304075D01*
G01X195865D02*
X196505D01*
G01X196185D02*
Y301575D01*
G01X195865D02*
X196505D01*
G01X198385Y304075D02*
Y301575D01*
G01X197772Y304075D02*
X198998D01*
G01X201172Y303867D02*
X201012Y303992D01*
X200825Y304075D01*
X200612D01*
X200372Y303950D01*
X200185Y303742D01*
X200052Y303492D01*
X199945Y303075D01*
X199918Y302700D01*
X199972Y302325D01*
X200052Y302075D01*
X200212Y301825D01*
X200398Y301658D01*
X200585Y301575D01*
X200772D01*
X200958Y301658D01*
X201118Y301783D01*
X201252Y301950D01*
G01X202225Y301575D02*
Y304075D01*
G01X203345D02*
Y301575D01*
G01Y302825D02*
X202225D01*
G01X194833Y325467D02*
X194940Y325592D01*
X195020Y325801D01*
X195073Y326092D01*
X195020Y326342D01*
X194913Y326509D01*
X194727Y326634D01*
X194007D01*
Y324134D01*
X194887D01*
X195073Y324301D01*
X195180Y324551D01*
X195233Y324842D01*
X195180Y325134D01*
X195020Y325384D01*
X194833Y325467D01*
X194007D01*
G01X196153Y324134D02*
X196820Y326634D01*
X197487Y324134D01*
G01X197247Y325009D02*
X196393D01*
G01X199020Y326634D02*
Y324134D01*
G01X198407Y326634D02*
X199633D01*
G01X178484Y344696D02*
X180252Y342929D01*
G01X178050Y344263D02*
X178918Y345130D01*
G01X181039Y344423D02*
X181359Y344330D01*
X181627Y344363D01*
X181827Y344504D01*
X181948Y344684D01*
X181952Y344982D01*
X181869Y345253D01*
X181711Y345449D01*
X181467Y345617D01*
X181188Y345633D01*
X180997Y345559D01*
X180827Y345390D01*
G01X180997Y345559D02*
X181022Y345761D01*
X180969Y346003D01*
X180830Y346217D01*
X180615Y346356D01*
X180373Y346409D01*
X180115Y346328D01*
X179975Y346129D01*
X179923Y345841D01*
G01X184355Y352644D02*
G03X201058Y369347I8352J8351D01*
G01X210600Y225442D02*
X210440Y225567D01*
X210253Y225650D01*
X210040D01*
X209800Y225525D01*
X209613Y225317D01*
X209480Y225067D01*
X209373Y224650D01*
X209346Y224275D01*
X209400Y223900D01*
X209480Y223650D01*
X209640Y223400D01*
X209826Y223233D01*
X210013Y223150D01*
X210200D01*
X210386Y223233D01*
X210546Y223358D01*
X210680Y223525D01*
G01X211706Y225233D02*
X211866Y225483D01*
X212053Y225608D01*
X212266Y225650D01*
X212533Y225567D01*
X212720Y225358D01*
X212773Y225108D01*
X212746Y224858D01*
X212640Y224650D01*
X212106Y224233D01*
X211866Y223942D01*
X211706Y223525D01*
X211653Y223150D01*
X212773D01*
G01X214413D02*
Y225650D01*
X214093Y225150D01*
G01Y223150D02*
X214733D01*
G01X203696Y259775D02*
X203821Y259668D01*
X204030Y259588D01*
X204321Y259535D01*
X204571Y259588D01*
X204738Y259695D01*
X204863Y259881D01*
Y260601D01*
X202363D01*
Y259721D01*
X202530Y259535D01*
X202780Y259428D01*
X203071Y259375D01*
X203363Y259428D01*
X203613Y259588D01*
X203696Y259775D01*
Y260601D01*
G01X202363Y257788D02*
X202405Y258001D01*
X202571Y258188D01*
X202821Y258348D01*
X203113Y258455D01*
X203446Y258508D01*
X203780D01*
X204113Y258455D01*
X204405Y258348D01*
X204655Y258188D01*
X204821Y258001D01*
X204863Y257788D01*
X204821Y257575D01*
X204655Y257388D01*
X204405Y257228D01*
X204113Y257121D01*
X203780Y257068D01*
X203446D01*
X203113Y257121D01*
X202821Y257228D01*
X202571Y257388D01*
X202405Y257575D01*
X202363Y257788D01*
G01Y255588D02*
X202405Y255801D01*
X202571Y255988D01*
X202821Y256148D01*
X203113Y256255D01*
X203446Y256308D01*
X203780D01*
X204113Y256255D01*
X204405Y256148D01*
X204655Y255988D01*
X204821Y255801D01*
X204863Y255588D01*
X204821Y255375D01*
X204655Y255188D01*
X204405Y255028D01*
X204113Y254921D01*
X203780Y254868D01*
X203446D01*
X203113Y254921D01*
X202821Y255028D01*
X202571Y255188D01*
X202405Y255375D01*
X202363Y255588D01*
G01X204863Y253388D02*
X202363D01*
G01X204863Y254001D02*
Y252775D01*
G01X203811Y239528D02*
Y242028D01*
X204477D01*
X204691Y241903D01*
X204824Y241736D01*
X204877Y241403D01*
X204824Y241070D01*
X204664Y240861D01*
X204477Y240736D01*
X203811D01*
G01X204477D02*
X204877Y239528D01*
G01X206037Y241611D02*
X206197Y241861D01*
X206384Y241986D01*
X206597Y242028D01*
X206864Y241945D01*
X207051Y241736D01*
X207104Y241486D01*
X207077Y241236D01*
X206971Y241028D01*
X206437Y240611D01*
X206197Y240320D01*
X206037Y239903D01*
X205984Y239528D01*
X207104D01*
G01X211291Y254607D02*
Y257107D01*
X211957D01*
X212171Y256982D01*
X212304Y256815D01*
X212357Y256482D01*
X212304Y256149D01*
X212144Y255940D01*
X211957Y255815D01*
X211291D01*
G01X211957D02*
X212357Y254607D01*
G01X213517Y255649D02*
X213704Y255940D01*
X213864Y256107D01*
X214077Y256190D01*
X214264Y256107D01*
X214397Y255940D01*
X214504Y255690D01*
X214531Y255399D01*
X214504Y255149D01*
X214397Y254899D01*
X214237Y254690D01*
X214051Y254607D01*
X213837Y254690D01*
X213651Y254940D01*
X213544Y255315D01*
X213517Y255732D01*
X213571Y256274D01*
X213651Y256565D01*
X213784Y256857D01*
X213971Y257065D01*
X214157Y257107D01*
X214344Y257024D01*
X214477Y256815D01*
G01X215214Y245257D02*
Y243465D01*
X215321Y243090D01*
X215534Y242840D01*
X215801Y242757D01*
X216068Y242840D01*
X216281Y243090D01*
X216388Y243465D01*
Y245257D01*
G01X217414Y243132D02*
X217574Y242924D01*
X217761Y242799D01*
X218001Y242757D01*
X218241Y242840D01*
X218428Y243007D01*
X218561Y243299D01*
X218588Y243632D01*
X218534Y243965D01*
X218401Y244174D01*
X218214Y244340D01*
X218028Y244382D01*
X217841Y244340D01*
X217601Y244174D01*
X217681Y245257D01*
X218401D01*
G01X215670Y273867D02*
X218170D01*
Y273201D01*
X218045Y272987D01*
X217878Y272854D01*
X217545Y272801D01*
X217212Y272854D01*
X217003Y273014D01*
X216878Y273201D01*
Y273867D01*
G01Y273201D02*
X215670Y272801D01*
G01Y270814D02*
X218170D01*
X216378Y271801D01*
Y270467D01*
G01X203732Y321339D02*
Y323839D01*
X204398D01*
X204612Y323714D01*
X204745Y323547D01*
X204798Y323214D01*
X204745Y322881D01*
X204585Y322672D01*
X204398Y322547D01*
X203732D01*
G01X204398D02*
X204798Y321339D01*
G01X206412D02*
X206465Y321881D01*
X206545Y322339D01*
X206652Y322756D01*
X206785Y323214D01*
X206998Y323839D01*
X205932D01*
G01X203363Y314745D02*
Y312953D01*
X203470Y312578D01*
X203683Y312328D01*
X203950Y312245D01*
X204217Y312328D01*
X204430Y312578D01*
X204537Y312953D01*
Y314745D01*
G01X205563Y312745D02*
X205723Y312453D01*
X205937Y312287D01*
X206177Y312245D01*
X206390Y312287D01*
X206603Y312495D01*
X206737Y312745D01*
X206763Y312995D01*
X206710Y313287D01*
X206523Y313495D01*
X206337Y313578D01*
X206097D01*
G01X206337D02*
X206497Y313703D01*
X206630Y313912D01*
X206683Y314162D01*
X206630Y314412D01*
X206497Y314620D01*
X206257Y314745D01*
X206017Y314703D01*
X205777Y314537D01*
G01X232560Y188268D02*
X321142D01*
G01X233442Y200894D02*
X233602Y200602D01*
X233816Y200436D01*
X234056Y200394D01*
X234269Y200436D01*
X234482Y200644D01*
X234616Y200894D01*
X234642Y201144D01*
X234589Y201436D01*
X234402Y201644D01*
X234216Y201727D01*
X233976D01*
G01X234216D02*
X234376Y201852D01*
X234509Y202061D01*
X234562Y202311D01*
X234509Y202561D01*
X234376Y202769D01*
X234136Y202894D01*
X233896Y202852D01*
X233656Y202686D01*
G01X235562Y202894D02*
X236229Y200394D01*
X236896Y202894D01*
G01X237842Y200894D02*
X238002Y200602D01*
X238216Y200436D01*
X238456Y200394D01*
X238669Y200436D01*
X238882Y200644D01*
X239016Y200894D01*
X239042Y201144D01*
X238989Y201436D01*
X238802Y201644D01*
X238616Y201727D01*
X238376D01*
G01X238616D02*
X238776Y201852D01*
X238909Y202061D01*
X238962Y202311D01*
X238909Y202561D01*
X238776Y202769D01*
X238536Y202894D01*
X238296Y202852D01*
X238056Y202686D01*
G01X221096Y211936D02*
X222864Y213704D01*
X223241Y213327D01*
X223303Y213088D01*
X223298Y212857D01*
X223216Y212586D01*
X223085Y212304D01*
X222809Y211990D01*
X222496Y211715D01*
X222214Y211584D01*
X221943Y211501D01*
X221712Y211497D01*
X221473Y211559D01*
X221096Y211936D01*
G01X223029Y210003D02*
X223450Y210348D01*
X223830Y210616D01*
X224200Y210835D01*
X224619Y211065D01*
X225212Y211356D01*
X224457Y212110D01*
G01X232944Y218496D02*
X233104Y218371D01*
X233291Y218288D01*
X233504D01*
X233744Y218413D01*
X233931Y218621D01*
X234064Y218871D01*
X234171Y219288D01*
X234198Y219663D01*
X234144Y220038D01*
X234064Y220288D01*
X233904Y220538D01*
X233718Y220705D01*
X233531Y220788D01*
X233344D01*
X233158Y220705D01*
X232998Y220580D01*
X232864Y220413D01*
G01X231838Y218705D02*
X231678Y218455D01*
X231491Y218330D01*
X231278Y218288D01*
X231011Y218371D01*
X230824Y218580D01*
X230771Y218830D01*
X230798Y219080D01*
X230904Y219288D01*
X231438Y219705D01*
X231678Y219996D01*
X231838Y220413D01*
X231891Y220788D01*
X230771D01*
G01X229718Y220288D02*
X229558Y220580D01*
X229344Y220746D01*
X229104Y220788D01*
X228891Y220746D01*
X228678Y220538D01*
X228544Y220288D01*
X228518Y220038D01*
X228571Y219746D01*
X228758Y219538D01*
X228944Y219455D01*
X229184D01*
G01X228944D02*
X228784Y219330D01*
X228651Y219121D01*
X228598Y218871D01*
X228651Y218621D01*
X228784Y218413D01*
X229024Y218288D01*
X229264Y218330D01*
X229504Y218496D01*
G01X219537Y222686D02*
X219377Y222811D01*
X219190Y222894D01*
X218977D01*
X218737Y222769D01*
X218550Y222561D01*
X218417Y222311D01*
X218310Y221894D01*
X218283Y221519D01*
X218337Y221144D01*
X218417Y220894D01*
X218577Y220644D01*
X218763Y220477D01*
X218950Y220394D01*
X219137D01*
X219323Y220477D01*
X219483Y220602D01*
X219617Y220769D01*
G01X220563Y220894D02*
X220723Y220602D01*
X220937Y220436D01*
X221177Y220394D01*
X221390Y220436D01*
X221603Y220644D01*
X221737Y220894D01*
X221763Y221144D01*
X221710Y221436D01*
X221523Y221644D01*
X221337Y221727D01*
X221097D01*
G01X221337D02*
X221497Y221852D01*
X221630Y222061D01*
X221683Y222311D01*
X221630Y222561D01*
X221497Y222769D01*
X221257Y222894D01*
X221017Y222852D01*
X220777Y222686D01*
G01X222763Y220769D02*
X222923Y220561D01*
X223110Y220436D01*
X223350Y220394D01*
X223590Y220477D01*
X223777Y220644D01*
X223910Y220936D01*
X223937Y221269D01*
X223883Y221602D01*
X223750Y221811D01*
X223563Y221977D01*
X223377Y222019D01*
X223190Y221977D01*
X222950Y221811D01*
X223030Y222894D01*
X223750D01*
G01X230906Y255504D02*
X228406D01*
Y256170D01*
X228531Y256384D01*
X228698Y256517D01*
X229031Y256570D01*
X229364Y256517D01*
X229573Y256357D01*
X229698Y256170D01*
Y255504D01*
G01Y256170D02*
X230906Y256570D01*
G01X228823Y257730D02*
X228573Y257890D01*
X228448Y258077D01*
X228406Y258290D01*
X228489Y258557D01*
X228698Y258744D01*
X228948Y258797D01*
X229198Y258770D01*
X229406Y258664D01*
X229823Y258130D01*
X230114Y257890D01*
X230531Y257730D01*
X230906Y257677D01*
Y258797D01*
G01Y260757D02*
X228406D01*
X230198Y259770D01*
Y261104D01*
G01X228514Y274340D02*
X228354Y274465D01*
X228167Y274548D01*
X227954D01*
X227714Y274423D01*
X227527Y274215D01*
X227394Y273965D01*
X227287Y273548D01*
X227260Y273173D01*
X227314Y272798D01*
X227394Y272548D01*
X227554Y272298D01*
X227740Y272131D01*
X227927Y272048D01*
X228114D01*
X228300Y272131D01*
X228460Y272256D01*
X228594Y272423D01*
G01X230127Y272048D02*
Y274548D01*
X229807Y274048D01*
G01Y272048D02*
X230447D01*
G01X232647D02*
Y274548D01*
X231660Y272756D01*
X232994D01*
G01X224537Y264519D02*
X224662Y264679D01*
X224745Y264866D01*
Y265079D01*
X224620Y265319D01*
X224412Y265506D01*
X224162Y265639D01*
X223745Y265746D01*
X223370Y265773D01*
X222995Y265719D01*
X222745Y265639D01*
X222495Y265479D01*
X222328Y265293D01*
X222245Y265106D01*
Y264919D01*
X222328Y264733D01*
X222453Y264573D01*
X222620Y264439D01*
G01X222245Y262906D02*
X224745D01*
X224245Y263226D01*
G01X222245D02*
Y262586D01*
G01X224745Y260706D02*
X224662Y260919D01*
X224453Y261079D01*
X224203Y261186D01*
X223870Y261266D01*
X223495Y261293D01*
X223120Y261266D01*
X222787Y261186D01*
X222537Y261079D01*
X222328Y260919D01*
X222245Y260706D01*
X222328Y260493D01*
X222537Y260333D01*
X222787Y260226D01*
X223120Y260146D01*
X223495Y260119D01*
X223870Y260146D01*
X224203Y260226D01*
X224453Y260333D01*
X224662Y260493D01*
X224745Y260706D01*
G01X237551Y262914D02*
Y265414D01*
X238217D01*
X238431Y265289D01*
X238564Y265122D01*
X238617Y264789D01*
X238564Y264456D01*
X238404Y264247D01*
X238217Y264122D01*
X237551D01*
G01X238217D02*
X238617Y262914D01*
G01X239777Y264997D02*
X239937Y265247D01*
X240124Y265372D01*
X240337Y265414D01*
X240604Y265331D01*
X240791Y265122D01*
X240844Y264872D01*
X240817Y264622D01*
X240711Y264414D01*
X240177Y263997D01*
X239937Y263706D01*
X239777Y263289D01*
X239724Y262914D01*
X240844D01*
G01X241897Y263289D02*
X242057Y263081D01*
X242244Y262956D01*
X242484Y262914D01*
X242724Y262997D01*
X242911Y263164D01*
X243044Y263456D01*
X243071Y263789D01*
X243017Y264122D01*
X242884Y264331D01*
X242697Y264497D01*
X242511Y264539D01*
X242324Y264497D01*
X242084Y264331D01*
X242164Y265414D01*
X242884D01*
G01X233496Y307579D02*
Y305079D01*
X234562D01*
G01X236229D02*
Y307579D01*
X235909Y307079D01*
G01Y305079D02*
X236549D01*
G01X230031Y317481D02*
Y319981D01*
X230697D01*
X230911Y319856D01*
X231044Y319689D01*
X231097Y319356D01*
X231044Y319023D01*
X230884Y318814D01*
X230697Y318689D01*
X230031D01*
G01X230697D02*
X231097Y317481D01*
G01X232257Y319564D02*
X232417Y319814D01*
X232604Y319939D01*
X232817Y319981D01*
X233084Y319898D01*
X233271Y319689D01*
X233324Y319439D01*
X233297Y319189D01*
X233191Y318981D01*
X232657Y318564D01*
X232417Y318273D01*
X232257Y317856D01*
X232204Y317481D01*
X233324D01*
G01X234964D02*
Y319981D01*
X234644Y319481D01*
G01Y317481D02*
X235284D01*
G01X230709Y315954D02*
X233209D01*
Y315288D01*
X233084Y315074D01*
X232917Y314941D01*
X232584Y314888D01*
X232251Y314941D01*
X232042Y315101D01*
X231917Y315288D01*
Y315954D01*
G01Y315288D02*
X230709Y314888D01*
G01Y313221D02*
X233209D01*
X232709Y313541D01*
G01X230709D02*
Y312901D01*
G01Y311021D02*
X233209D01*
X232709Y311341D01*
G01X230709D02*
Y310701D01*
G01X227197Y321772D02*
Y324272D01*
X227863D01*
X228077Y324147D01*
X228210Y323980D01*
X228263Y323647D01*
X228210Y323314D01*
X228050Y323105D01*
X227863Y322980D01*
X227197D01*
G01X227863D02*
X228263Y321772D01*
G01X229477Y322064D02*
X229663Y321855D01*
X229877Y321772D01*
X230090Y321855D01*
X230277Y322105D01*
X230410Y322480D01*
X230463Y322855D01*
Y323314D01*
X230410Y323689D01*
X230277Y324022D01*
X230117Y324189D01*
X229930Y324272D01*
X229717Y324189D01*
X229557Y324022D01*
X229450Y323772D01*
X229397Y323439D01*
X229450Y323147D01*
X229583Y322855D01*
X229743Y322689D01*
X229930Y322647D01*
X230143Y322730D01*
X230303Y322939D01*
X230463Y323314D01*
G01X229781Y324764D02*
Y327264D01*
X230315D01*
X230528Y327139D01*
X230688Y326972D01*
X230821Y326722D01*
X230928Y326431D01*
X230955Y326014D01*
X230928Y325597D01*
X230821Y325306D01*
X230688Y325056D01*
X230528Y324889D01*
X230315Y324764D01*
X229781D01*
G01X232568D02*
Y327264D01*
X232248Y326764D01*
G01Y324764D02*
X232888D01*
G01X234768Y327264D02*
X234555Y327181D01*
X234395Y326972D01*
X234288Y326722D01*
X234208Y326389D01*
X234181Y326014D01*
X234208Y325639D01*
X234288Y325306D01*
X234395Y325056D01*
X234555Y324847D01*
X234768Y324764D01*
X234981Y324847D01*
X235141Y325056D01*
X235248Y325306D01*
X235328Y325639D01*
X235355Y326014D01*
X235328Y326389D01*
X235248Y326722D01*
X235141Y326972D01*
X234981Y327181D01*
X234768Y327264D01*
G01X233002Y333513D02*
X232842Y333638D01*
X232655Y333721D01*
X232442D01*
X232202Y333596D01*
X232015Y333388D01*
X231882Y333138D01*
X231775Y332721D01*
X231748Y332346D01*
X231802Y331971D01*
X231882Y331721D01*
X232042Y331471D01*
X232228Y331304D01*
X232415Y331221D01*
X232602D01*
X232788Y331304D01*
X232948Y331429D01*
X233082Y331596D01*
G01X234615Y331221D02*
Y333721D01*
X234295Y333221D01*
G01Y331221D02*
X234935D01*
G01X236815D02*
Y333721D01*
X236495Y333221D01*
G01Y331221D02*
X237135D01*
G01X220482Y332923D02*
X220322Y333048D01*
X220135Y333131D01*
X219922D01*
X219682Y333006D01*
X219495Y332798D01*
X219362Y332548D01*
X219255Y332131D01*
X219228Y331756D01*
X219282Y331381D01*
X219362Y331131D01*
X219522Y330881D01*
X219708Y330714D01*
X219895Y330631D01*
X220082D01*
X220268Y330714D01*
X220428Y330839D01*
X220562Y331006D01*
G01X222095Y330631D02*
Y333131D01*
X221775Y332631D01*
G01Y330631D02*
X222415D01*
G01X223788Y331673D02*
X223975Y331964D01*
X224135Y332131D01*
X224348Y332214D01*
X224535Y332131D01*
X224668Y331964D01*
X224775Y331714D01*
X224802Y331423D01*
X224775Y331173D01*
X224668Y330923D01*
X224508Y330714D01*
X224322Y330631D01*
X224108Y330714D01*
X223922Y330964D01*
X223815Y331339D01*
X223788Y331756D01*
X223842Y332298D01*
X223922Y332589D01*
X224055Y332881D01*
X224242Y333089D01*
X224428Y333131D01*
X224615Y333048D01*
X224748Y332839D01*
G01X222238Y339679D02*
X220470Y341447D01*
X220847Y341824D01*
X221086Y341886D01*
X221317Y341881D01*
X221588Y341799D01*
X221870Y341668D01*
X222184Y341392D01*
X222459Y341079D01*
X222590Y340797D01*
X222673Y340526D01*
X222677Y340295D01*
X222615Y340056D01*
X222238Y339679D01*
G01X224209Y341650D02*
X224311Y341811D01*
X224374Y342050D01*
X224321Y342292D01*
X224152Y342536D01*
X223908Y342704D01*
X223618Y342768D01*
X223360Y342687D01*
X223172Y342498D01*
X223000Y342444D01*
X222758Y342497D01*
X222514Y342666D01*
X222364Y342928D01*
X222349Y343208D01*
X222441Y343417D01*
X222651Y343509D01*
X222930Y343494D01*
X223193Y343344D01*
X223361Y343100D01*
X223414Y342859D01*
X223360Y342687D01*
X223172Y342498D01*
X223090Y342240D01*
X223154Y341950D01*
X223322Y341706D01*
X223566Y341538D01*
X223808Y341485D01*
X224047Y341547D01*
X224209Y341650D01*
G01X232560Y365434D02*
X321142D01*
G01X225859Y361701D02*
X227626Y363469D01*
X228098Y362998D01*
X228160Y362759D01*
X228137Y362546D01*
X227939Y362273D01*
X227665Y362075D01*
X227405Y362041D01*
X227184Y362084D01*
X226713Y362556D01*
G01X227184Y362084D02*
X226613Y360947D01*
G01X227792Y359768D02*
X229559Y361536D01*
X228980Y361409D01*
G01X227565Y359995D02*
X228018Y359542D01*
G01X231115Y359980D02*
X230906Y360072D01*
X230645Y360038D01*
X230393Y359937D01*
X230101Y359757D01*
X229817Y359511D01*
X229570Y359227D01*
X229391Y358935D01*
X229290Y358682D01*
X229256Y358422D01*
X229348Y358212D01*
X229557Y358120D01*
X229818Y358155D01*
X230070Y358256D01*
X230362Y358435D01*
X230646Y358681D01*
X230893Y358965D01*
X231072Y359258D01*
X231173Y359510D01*
X231207Y359770D01*
X231115Y359980D01*
G01X230571Y348284D02*
X232363D01*
X232738Y348391D01*
X232988Y348604D01*
X233071Y348871D01*
X232988Y349138D01*
X232738Y349351D01*
X232363Y349458D01*
X230571D01*
G01X230988Y350564D02*
X230738Y350724D01*
X230613Y350911D01*
X230571Y351124D01*
X230654Y351391D01*
X230863Y351578D01*
X231113Y351631D01*
X231363Y351604D01*
X231571Y351498D01*
X231988Y350964D01*
X232279Y350724D01*
X232696Y350564D01*
X233071Y350511D01*
Y351631D01*
G01X254244Y200394D02*
Y202894D01*
X254910D01*
X255124Y202769D01*
X255257Y202602D01*
X255310Y202269D01*
X255257Y201936D01*
X255097Y201727D01*
X254910Y201602D01*
X254244D01*
G01X254910D02*
X255310Y200394D01*
G01X256417Y200727D02*
X256630Y200519D01*
X256870Y200394D01*
X257084D01*
X257297Y200519D01*
X257457Y200727D01*
X257537Y201019D01*
X257484Y201311D01*
X257350Y201561D01*
X257110Y201727D01*
X256790Y201811D01*
X256604Y201977D01*
X256524Y202269D01*
X256577Y202561D01*
X256710Y202769D01*
X256897Y202894D01*
X257084D01*
X257270Y202811D01*
X257430Y202602D01*
G01X259177Y202894D02*
Y200394D01*
G01X258564Y202894D02*
X259790D01*
G01X244740Y201566D02*
X245273D01*
Y200816D01*
X245113Y200566D01*
X244927Y200399D01*
X244660Y200316D01*
X244393Y200399D01*
X244207Y200566D01*
X244047Y200816D01*
X243940Y201108D01*
X243887Y201441D01*
Y201733D01*
X243940Y201983D01*
X244047Y202274D01*
X244207Y202524D01*
X244367Y202691D01*
X244580Y202816D01*
X244767D01*
X244980Y202733D01*
X245140Y202566D01*
G01X246167Y200316D02*
Y202816D01*
X247393Y200316D01*
Y202816D01*
G01X248393Y200316D02*
Y202816D01*
X248927D01*
X249140Y202691D01*
X249300Y202524D01*
X249433Y202274D01*
X249540Y201983D01*
X249567Y201566D01*
X249540Y201149D01*
X249433Y200858D01*
X249300Y200608D01*
X249140Y200441D01*
X248927Y200316D01*
X248393D01*
G01X240128Y212765D02*
X239968Y212890D01*
X239781Y212973D01*
X239568D01*
X239328Y212848D01*
X239141Y212640D01*
X239008Y212390D01*
X238901Y211973D01*
X238874Y211598D01*
X238928Y211223D01*
X239008Y210973D01*
X239168Y210723D01*
X239354Y210556D01*
X239541Y210473D01*
X239728D01*
X239914Y210556D01*
X240074Y210681D01*
X240208Y210848D01*
G01X241234Y212556D02*
X241394Y212806D01*
X241581Y212931D01*
X241794Y212973D01*
X242061Y212890D01*
X242248Y212681D01*
X242301Y212431D01*
X242274Y212181D01*
X242168Y211973D01*
X241634Y211556D01*
X241394Y211265D01*
X241234Y210848D01*
X241181Y210473D01*
X242301D01*
G01X243354Y210848D02*
X243514Y210640D01*
X243701Y210515D01*
X243941Y210473D01*
X244181Y210556D01*
X244368Y210723D01*
X244501Y211015D01*
X244528Y211348D01*
X244474Y211681D01*
X244341Y211890D01*
X244154Y212056D01*
X243968Y212098D01*
X243781Y212056D01*
X243541Y211890D01*
X243621Y212973D01*
X244341D01*
G01X259970Y236684D02*
X260095Y236844D01*
X260178Y237031D01*
Y237244D01*
X260053Y237484D01*
X259845Y237671D01*
X259595Y237804D01*
X259178Y237911D01*
X258803Y237938D01*
X258428Y237884D01*
X258178Y237804D01*
X257928Y237644D01*
X257761Y237458D01*
X257678Y237271D01*
Y237084D01*
X257761Y236898D01*
X257886Y236738D01*
X258053Y236604D01*
G01X259761Y235578D02*
X260011Y235418D01*
X260136Y235231D01*
X260178Y235018D01*
X260095Y234751D01*
X259886Y234564D01*
X259636Y234511D01*
X259386Y234538D01*
X259178Y234644D01*
X258761Y235178D01*
X258470Y235418D01*
X258053Y235578D01*
X257678Y235631D01*
Y234511D01*
G01X259761Y233378D02*
X260011Y233218D01*
X260136Y233031D01*
X260178Y232818D01*
X260095Y232551D01*
X259886Y232364D01*
X259636Y232311D01*
X259386Y232338D01*
X259178Y232444D01*
X258761Y232978D01*
X258470Y233218D01*
X258053Y233378D01*
X257678Y233431D01*
Y232311D01*
G01X262332Y225621D02*
X262457Y225781D01*
X262540Y225968D01*
Y226181D01*
X262415Y226421D01*
X262207Y226608D01*
X261957Y226741D01*
X261540Y226848D01*
X261165Y226875D01*
X260790Y226821D01*
X260540Y226741D01*
X260290Y226581D01*
X260123Y226395D01*
X260040Y226208D01*
Y226021D01*
X260123Y225835D01*
X260248Y225675D01*
X260415Y225541D01*
G01X260540Y224595D02*
X260248Y224435D01*
X260082Y224221D01*
X260040Y223981D01*
X260082Y223768D01*
X260290Y223555D01*
X260540Y223421D01*
X260790Y223395D01*
X261082Y223448D01*
X261290Y223635D01*
X261373Y223821D01*
Y224061D01*
G01Y223821D02*
X261498Y223661D01*
X261707Y223528D01*
X261957Y223475D01*
X262207Y223528D01*
X262415Y223661D01*
X262540Y223901D01*
X262498Y224141D01*
X262332Y224381D01*
G01X249773Y259637D02*
X249898Y259797D01*
X249981Y259984D01*
Y260197D01*
X249856Y260437D01*
X249648Y260624D01*
X249398Y260757D01*
X248981Y260864D01*
X248606Y260891D01*
X248231Y260837D01*
X247981Y260757D01*
X247731Y260597D01*
X247564Y260411D01*
X247481Y260224D01*
Y260037D01*
X247564Y259851D01*
X247689Y259691D01*
X247856Y259557D01*
G01X249564Y258531D02*
X249814Y258371D01*
X249939Y258184D01*
X249981Y257971D01*
X249898Y257704D01*
X249689Y257517D01*
X249439Y257464D01*
X249189Y257491D01*
X248981Y257597D01*
X248564Y258131D01*
X248273Y258371D01*
X247856Y258531D01*
X247481Y258584D01*
Y257464D01*
G01Y255504D02*
X249981D01*
X248189Y256491D01*
Y255157D01*
G01X243944Y245729D02*
Y243937D01*
X244051Y243562D01*
X244264Y243312D01*
X244531Y243229D01*
X244798Y243312D01*
X245011Y243562D01*
X245118Y243937D01*
Y245729D01*
G01X247051Y243229D02*
Y245729D01*
X246064Y243937D01*
X247398D01*
G01X250031Y272048D02*
Y274548D01*
X250697D01*
X250911Y274423D01*
X251044Y274256D01*
X251097Y273923D01*
X251044Y273590D01*
X250884Y273381D01*
X250697Y273256D01*
X250031D01*
G01X250697D02*
X251097Y272048D01*
G01X252764D02*
X252951Y272090D01*
X253164Y272215D01*
X253297Y272423D01*
X253351Y272715D01*
X253297Y273006D01*
X253137Y273256D01*
X252897Y273381D01*
X252631D01*
X252471Y273465D01*
X252337Y273673D01*
X252284Y273965D01*
X252364Y274256D01*
X252551Y274465D01*
X252764Y274548D01*
X252977Y274465D01*
X253164Y274256D01*
X253244Y273965D01*
X253191Y273673D01*
X253057Y273465D01*
X252897Y273381D01*
X252631D01*
X252391Y273256D01*
X252231Y273006D01*
X252177Y272715D01*
X252231Y272423D01*
X252364Y272215D01*
X252577Y272090D01*
X252764Y272048D01*
G01X258749Y293456D02*
X258874Y293616D01*
X258957Y293803D01*
Y294016D01*
X258832Y294256D01*
X258624Y294443D01*
X258374Y294576D01*
X257957Y294683D01*
X257582Y294710D01*
X257207Y294656D01*
X256957Y294576D01*
X256707Y294416D01*
X256540Y294230D01*
X256457Y294043D01*
Y293856D01*
X256540Y293670D01*
X256665Y293510D01*
X256832Y293376D01*
G01X256457Y291843D02*
X258957D01*
X258457Y292163D01*
G01X256457D02*
Y291523D01*
G01X256832Y290230D02*
X256624Y290070D01*
X256499Y289883D01*
X256457Y289643D01*
X256540Y289403D01*
X256707Y289216D01*
X256999Y289083D01*
X257332Y289056D01*
X257665Y289110D01*
X257874Y289243D01*
X258040Y289430D01*
X258082Y289616D01*
X258040Y289803D01*
X257874Y290043D01*
X258957Y289963D01*
Y289243D01*
G01X252520Y321230D02*
X255020D01*
Y320564D01*
X254895Y320350D01*
X254728Y320217D01*
X254395Y320164D01*
X254062Y320217D01*
X253853Y320377D01*
X253728Y320564D01*
Y321230D01*
G01Y320564D02*
X252520Y320164D01*
G01X252895Y319084D02*
X252687Y318924D01*
X252562Y318737D01*
X252520Y318497D01*
X252603Y318257D01*
X252770Y318070D01*
X253062Y317937D01*
X253395Y317910D01*
X253728Y317964D01*
X253937Y318097D01*
X254103Y318284D01*
X254145Y318470D01*
X254103Y318657D01*
X253937Y318897D01*
X255020Y318817D01*
Y318097D01*
G01X244544Y305985D02*
Y308485D01*
X245078D01*
X245291Y308360D01*
X245451Y308193D01*
X245584Y307943D01*
X245691Y307652D01*
X245718Y307235D01*
X245691Y306818D01*
X245584Y306527D01*
X245451Y306277D01*
X245291Y306110D01*
X245078Y305985D01*
X244544D01*
G01X247331D02*
Y308485D01*
X247011Y307985D01*
G01Y305985D02*
X247651D01*
G01X256742Y328277D02*
X256582Y328402D01*
X256395Y328485D01*
X256182D01*
X255942Y328360D01*
X255755Y328152D01*
X255622Y327902D01*
X255515Y327485D01*
X255488Y327110D01*
X255542Y326735D01*
X255622Y326485D01*
X255782Y326235D01*
X255968Y326068D01*
X256155Y325985D01*
X256342D01*
X256528Y326068D01*
X256688Y326193D01*
X256822Y326360D01*
G01X258355Y325985D02*
Y328485D01*
X258035Y327985D01*
G01Y325985D02*
X258675D01*
G01X259968Y326485D02*
X260128Y326193D01*
X260342Y326027D01*
X260582Y325985D01*
X260795Y326027D01*
X261008Y326235D01*
X261142Y326485D01*
X261168Y326735D01*
X261115Y327027D01*
X260928Y327235D01*
X260742Y327318D01*
X260502D01*
G01X260742D02*
X260902Y327443D01*
X261035Y327652D01*
X261088Y327902D01*
X261035Y328152D01*
X260902Y328360D01*
X260662Y328485D01*
X260422Y328443D01*
X260182Y328277D01*
G01X256742Y333198D02*
X256582Y333323D01*
X256395Y333406D01*
X256182D01*
X255942Y333281D01*
X255755Y333073D01*
X255622Y332823D01*
X255515Y332406D01*
X255488Y332031D01*
X255542Y331656D01*
X255622Y331406D01*
X255782Y331156D01*
X255968Y330989D01*
X256155Y330906D01*
X256342D01*
X256528Y330989D01*
X256688Y331114D01*
X256822Y331281D01*
G01X258355Y330906D02*
Y333406D01*
X258035Y332906D01*
G01Y330906D02*
X258675D01*
G01X260048Y332989D02*
X260208Y333239D01*
X260395Y333364D01*
X260608Y333406D01*
X260875Y333323D01*
X261062Y333114D01*
X261115Y332864D01*
X261088Y332614D01*
X260982Y332406D01*
X260448Y331989D01*
X260208Y331698D01*
X260048Y331281D01*
X259995Y330906D01*
X261115D01*
G01X274852Y202608D02*
X274692Y202733D01*
X274505Y202816D01*
X274292D01*
X274052Y202691D01*
X273865Y202483D01*
X273732Y202233D01*
X273625Y201816D01*
X273598Y201441D01*
X273652Y201066D01*
X273732Y200816D01*
X273892Y200566D01*
X274078Y200399D01*
X274265Y200316D01*
X274452D01*
X274638Y200399D01*
X274798Y200524D01*
X274932Y200691D01*
G01X275932Y202816D02*
Y200316D01*
X276998D01*
G01X278078D02*
Y202816D01*
G01X279092D02*
X278078Y201274D01*
G01X279252Y200316D02*
X278532Y201983D01*
G01X262524Y200609D02*
X262737Y200401D01*
X262977Y200276D01*
X263191D01*
X263404Y200401D01*
X263564Y200609D01*
X263644Y200901D01*
X263591Y201193D01*
X263457Y201443D01*
X263217Y201609D01*
X262897Y201693D01*
X262711Y201859D01*
X262631Y202151D01*
X262684Y202443D01*
X262817Y202651D01*
X263004Y202776D01*
X263191D01*
X263377Y202693D01*
X263537Y202484D01*
G01X264697Y200276D02*
Y202776D01*
X265231D01*
X265444Y202651D01*
X265604Y202484D01*
X265737Y202234D01*
X265844Y201943D01*
X265871Y201526D01*
X265844Y201109D01*
X265737Y200818D01*
X265604Y200568D01*
X265444Y200401D01*
X265231Y200276D01*
X264697D01*
G01X267164Y202776D02*
X267804D01*
G01X267484D02*
Y200276D01*
G01X267164D02*
X267804D01*
G01X269684D02*
X269471Y200318D01*
X269284Y200484D01*
X269124Y200734D01*
X269017Y201026D01*
X268964Y201359D01*
Y201693D01*
X269017Y202026D01*
X269124Y202318D01*
X269284Y202568D01*
X269471Y202734D01*
X269684Y202776D01*
X269897Y202734D01*
X270084Y202568D01*
X270244Y202318D01*
X270351Y202026D01*
X270404Y201693D01*
Y201359D01*
X270351Y201026D01*
X270244Y200734D01*
X270084Y200484D01*
X269897Y200318D01*
X269684Y200276D01*
G01X268671Y217332D02*
X268511Y217457D01*
X268324Y217540D01*
X268111D01*
X267871Y217415D01*
X267684Y217207D01*
X267551Y216957D01*
X267444Y216540D01*
X267417Y216165D01*
X267471Y215790D01*
X267551Y215540D01*
X267711Y215290D01*
X267897Y215123D01*
X268084Y215040D01*
X268271D01*
X268457Y215123D01*
X268617Y215248D01*
X268751Y215415D01*
G01X270604Y215040D02*
Y217540D01*
X269617Y215748D01*
X270951D01*
G01X262905Y215079D02*
Y217579D01*
X263571D01*
X263785Y217454D01*
X263918Y217287D01*
X263971Y216954D01*
X263918Y216621D01*
X263758Y216412D01*
X263571Y216287D01*
X262905D01*
G01X263571D02*
X263971Y215079D01*
G01X265638D02*
Y217579D01*
X265318Y217079D01*
G01Y215079D02*
X265958D01*
G01X275403Y263986D02*
X275243Y264111D01*
X275056Y264194D01*
X274843D01*
X274603Y264069D01*
X274416Y263861D01*
X274283Y263611D01*
X274176Y263194D01*
X274149Y262819D01*
X274203Y262444D01*
X274283Y262194D01*
X274443Y261944D01*
X274629Y261777D01*
X274816Y261694D01*
X275003D01*
X275189Y261777D01*
X275349Y261902D01*
X275483Y262069D01*
G01X277016Y261694D02*
X277203Y261736D01*
X277416Y261861D01*
X277549Y262069D01*
X277603Y262361D01*
X277549Y262652D01*
X277389Y262902D01*
X277149Y263027D01*
X276883D01*
X276723Y263111D01*
X276589Y263319D01*
X276536Y263611D01*
X276616Y263902D01*
X276803Y264111D01*
X277016Y264194D01*
X277229Y264111D01*
X277416Y263902D01*
X277496Y263611D01*
X277443Y263319D01*
X277309Y263111D01*
X277149Y263027D01*
X276883D01*
X276643Y262902D01*
X276483Y262652D01*
X276429Y262361D01*
X276483Y262069D01*
X276616Y261861D01*
X276829Y261736D01*
X277016Y261694D01*
G01X276882Y314725D02*
Y317225D01*
X277548D01*
X277762Y317100D01*
X277895Y316933D01*
X277948Y316600D01*
X277895Y316267D01*
X277735Y316058D01*
X277548Y315933D01*
X276882D01*
G01X277548D02*
X277948Y314725D01*
G01X279108Y316808D02*
X279268Y317058D01*
X279455Y317183D01*
X279668Y317225D01*
X279935Y317142D01*
X280122Y316933D01*
X280175Y316683D01*
X280148Y316433D01*
X280042Y316225D01*
X279508Y315808D01*
X279268Y315517D01*
X279108Y315100D01*
X279055Y314725D01*
X280175D01*
G01X281308Y315767D02*
X281495Y316058D01*
X281655Y316225D01*
X281868Y316308D01*
X282055Y316225D01*
X282188Y316058D01*
X282295Y315808D01*
X282322Y315517D01*
X282295Y315267D01*
X282188Y315017D01*
X282028Y314808D01*
X281842Y314725D01*
X281628Y314808D01*
X281442Y315058D01*
X281335Y315433D01*
X281308Y315850D01*
X281362Y316392D01*
X281442Y316683D01*
X281575Y316975D01*
X281762Y317183D01*
X281948Y317225D01*
X282135Y317142D01*
X282268Y316933D01*
G01X260686Y337816D02*
Y336024D01*
X260793Y335649D01*
X261006Y335399D01*
X261273Y335316D01*
X261540Y335399D01*
X261753Y335649D01*
X261860Y336024D01*
Y337816D01*
G01X262806Y335316D02*
X263473Y337816D01*
X264140Y335316D01*
G01X263900Y336191D02*
X263046D01*
G01X265140Y335316D02*
Y337816D01*
X265806D01*
X266020Y337691D01*
X266153Y337524D01*
X266206Y337191D01*
X266153Y336858D01*
X265993Y336649D01*
X265806Y336524D01*
X265140D01*
G01X265806D02*
X266206Y335316D01*
G01X267873Y337816D02*
Y335316D01*
G01X267260Y337816D02*
X268486D01*
G01X269486Y335816D02*
X269646Y335524D01*
X269860Y335358D01*
X270100Y335316D01*
X270313Y335358D01*
X270526Y335566D01*
X270660Y335816D01*
X270686Y336066D01*
X270633Y336358D01*
X270446Y336566D01*
X270260Y336649D01*
X270020D01*
G01X270260D02*
X270420Y336774D01*
X270553Y336983D01*
X270606Y337233D01*
X270553Y337483D01*
X270420Y337691D01*
X270180Y337816D01*
X269940Y337774D01*
X269700Y337608D01*
G01X267472Y355001D02*
Y357501D01*
X268112D01*
X268325Y357376D01*
X268485Y357084D01*
X268538Y356751D01*
X268485Y356418D01*
X268352Y356168D01*
X268112Y356043D01*
X267472D01*
G01X270205Y355001D02*
Y357501D01*
X269885Y357001D01*
G01Y355001D02*
X270525D01*
G01X267472Y345434D02*
Y347934D01*
X268112D01*
X268325Y347809D01*
X268485Y347517D01*
X268538Y347184D01*
X268485Y346851D01*
X268352Y346601D01*
X268112Y346476D01*
X267472D01*
G01X269698Y347517D02*
X269858Y347767D01*
X270045Y347892D01*
X270258Y347934D01*
X270525Y347851D01*
X270712Y347642D01*
X270765Y347392D01*
X270738Y347142D01*
X270632Y346934D01*
X270098Y346517D01*
X269858Y346226D01*
X269698Y345809D01*
X269645Y345434D01*
X270765D01*
G01X281697Y194979D02*
X281910Y194771D01*
X282150Y194646D01*
X282364D01*
X282577Y194771D01*
X282737Y194979D01*
X282817Y195271D01*
X282764Y195563D01*
X282630Y195813D01*
X282390Y195979D01*
X282070Y196063D01*
X281884Y196229D01*
X281804Y196521D01*
X281857Y196813D01*
X281990Y197021D01*
X282177Y197146D01*
X282364D01*
X282550Y197063D01*
X282710Y196854D01*
G01X283657Y197146D02*
X284030Y194646D01*
X284457Y197146D01*
X284884Y194646D01*
X285257Y197146D01*
G01X299183Y208159D02*
X299023Y208284D01*
X298836Y208367D01*
X298623D01*
X298383Y208242D01*
X298196Y208034D01*
X298063Y207784D01*
X297956Y207367D01*
X297929Y206992D01*
X297983Y206617D01*
X298063Y206367D01*
X298223Y206117D01*
X298409Y205950D01*
X298596Y205867D01*
X298783D01*
X298969Y205950D01*
X299129Y206075D01*
X299263Y206242D01*
G01X300743Y205867D02*
X300796Y206409D01*
X300876Y206867D01*
X300983Y207284D01*
X301116Y207742D01*
X301329Y208367D01*
X300263D01*
G01X285937Y280521D02*
X285812Y280361D01*
X285729Y280174D01*
Y279961D01*
X285854Y279721D01*
X286062Y279534D01*
X286312Y279401D01*
X286729Y279294D01*
X287104Y279267D01*
X287479Y279321D01*
X287729Y279401D01*
X287979Y279561D01*
X288146Y279747D01*
X288229Y279934D01*
Y280121D01*
X288146Y280307D01*
X288021Y280467D01*
X287854Y280601D01*
G01X287729Y281547D02*
X288021Y281707D01*
X288187Y281921D01*
X288229Y282161D01*
X288187Y282374D01*
X287979Y282587D01*
X287729Y282721D01*
X287479Y282747D01*
X287187Y282694D01*
X286979Y282507D01*
X286896Y282321D01*
Y282081D01*
G01Y282321D02*
X286771Y282481D01*
X286562Y282614D01*
X286312Y282667D01*
X286062Y282614D01*
X285854Y282481D01*
X285729Y282241D01*
X285771Y282001D01*
X285937Y281761D01*
G01X287729Y283747D02*
X288021Y283907D01*
X288187Y284121D01*
X288229Y284361D01*
X288187Y284574D01*
X287979Y284787D01*
X287729Y284921D01*
X287479Y284947D01*
X287187Y284894D01*
X286979Y284707D01*
X286896Y284521D01*
Y284281D01*
G01Y284521D02*
X286771Y284681D01*
X286562Y284814D01*
X286312Y284867D01*
X286062Y284814D01*
X285854Y284681D01*
X285729Y284441D01*
X285771Y284201D01*
X285937Y283961D01*
G01X290361Y318131D02*
Y316339D01*
X290468Y315964D01*
X290681Y315714D01*
X290948Y315631D01*
X291215Y315714D01*
X291428Y315964D01*
X291535Y316339D01*
Y318131D01*
G01X292641Y316673D02*
X292828Y316964D01*
X292988Y317131D01*
X293201Y317214D01*
X293388Y317131D01*
X293521Y316964D01*
X293628Y316714D01*
X293655Y316423D01*
X293628Y316173D01*
X293521Y315923D01*
X293361Y315714D01*
X293175Y315631D01*
X292961Y315714D01*
X292775Y315964D01*
X292668Y316339D01*
X292641Y316756D01*
X292695Y317298D01*
X292775Y317589D01*
X292908Y317881D01*
X293095Y318089D01*
X293281Y318131D01*
X293468Y318048D01*
X293601Y317839D01*
G01X290482Y329182D02*
X290322Y329307D01*
X290135Y329390D01*
X289922D01*
X289682Y329265D01*
X289495Y329057D01*
X289362Y328807D01*
X289255Y328390D01*
X289228Y328015D01*
X289282Y327640D01*
X289362Y327390D01*
X289522Y327140D01*
X289708Y326973D01*
X289895Y326890D01*
X290082D01*
X290268Y326973D01*
X290428Y327098D01*
X290562Y327265D01*
G01X291508Y327390D02*
X291668Y327098D01*
X291882Y326932D01*
X292122Y326890D01*
X292335Y326932D01*
X292548Y327140D01*
X292682Y327390D01*
X292708Y327640D01*
X292655Y327932D01*
X292468Y328140D01*
X292282Y328223D01*
X292042D01*
G01X292282D02*
X292442Y328348D01*
X292575Y328557D01*
X292628Y328807D01*
X292575Y329057D01*
X292442Y329265D01*
X292202Y329390D01*
X291962Y329348D01*
X291722Y329182D01*
G01X293788Y327932D02*
X293975Y328223D01*
X294135Y328390D01*
X294348Y328473D01*
X294535Y328390D01*
X294668Y328223D01*
X294775Y327973D01*
X294802Y327682D01*
X294775Y327432D01*
X294668Y327182D01*
X294508Y326973D01*
X294322Y326890D01*
X294108Y326973D01*
X293922Y327223D01*
X293815Y327598D01*
X293788Y328015D01*
X293842Y328557D01*
X293922Y328848D01*
X294055Y329140D01*
X294242Y329348D01*
X294428Y329390D01*
X294615Y329307D01*
X294748Y329098D01*
G01X321142Y188268D02*
X434244Y86094D01*
G01X318481Y191694D02*
Y194194D01*
X319015D01*
X319228Y194069D01*
X319388Y193902D01*
X319521Y193652D01*
X319628Y193361D01*
X319655Y192944D01*
X319628Y192527D01*
X319521Y192236D01*
X319388Y191986D01*
X319228Y191819D01*
X319015Y191694D01*
X318481D01*
G01X321268D02*
Y194194D01*
X320948Y193694D01*
G01Y191694D02*
X321588D01*
G01X323468D02*
Y194194D01*
X323148Y193694D01*
G01Y191694D02*
X323788D01*
G01X306685Y192087D02*
Y194587D01*
X307351D01*
X307565Y194462D01*
X307698Y194295D01*
X307751Y193962D01*
X307698Y193629D01*
X307538Y193420D01*
X307351Y193295D01*
X306685D01*
G01X307351D02*
X307751Y192087D01*
G01X308911Y194170D02*
X309071Y194420D01*
X309258Y194545D01*
X309471Y194587D01*
X309738Y194504D01*
X309925Y194295D01*
X309978Y194045D01*
X309951Y193795D01*
X309845Y193587D01*
X309311Y193170D01*
X309071Y192879D01*
X308911Y192462D01*
X308858Y192087D01*
X309978D01*
G01X311111Y194170D02*
X311271Y194420D01*
X311458Y194545D01*
X311671Y194587D01*
X311938Y194504D01*
X312125Y194295D01*
X312178Y194045D01*
X312151Y193795D01*
X312045Y193587D01*
X311511Y193170D01*
X311271Y192879D01*
X311111Y192462D01*
X311058Y192087D01*
X312178D01*
G01X317773Y206536D02*
Y209036D01*
X318307D01*
X318520Y208911D01*
X318680Y208744D01*
X318813Y208494D01*
X318920Y208203D01*
X318947Y207786D01*
X318920Y207369D01*
X318813Y207078D01*
X318680Y206828D01*
X318520Y206661D01*
X318307Y206536D01*
X317773D01*
G01X320560D02*
Y209036D01*
X320240Y208536D01*
G01Y206536D02*
X320880D01*
G01X322253Y208619D02*
X322413Y208869D01*
X322600Y208994D01*
X322813Y209036D01*
X323080Y208953D01*
X323267Y208744D01*
X323320Y208494D01*
X323293Y208244D01*
X323187Y208036D01*
X322653Y207619D01*
X322413Y207328D01*
X322253Y206911D01*
X322200Y206536D01*
X323320D01*
G01X306961Y206221D02*
Y208721D01*
X307627D01*
X307841Y208596D01*
X307974Y208429D01*
X308027Y208096D01*
X307974Y207763D01*
X307814Y207554D01*
X307627Y207429D01*
X306961D01*
G01X307627D02*
X308027Y206221D01*
G01X309187Y208304D02*
X309347Y208554D01*
X309534Y208679D01*
X309747Y208721D01*
X310014Y208638D01*
X310201Y208429D01*
X310254Y208179D01*
X310227Y207929D01*
X310121Y207721D01*
X309587Y207304D01*
X309347Y207013D01*
X309187Y206596D01*
X309134Y206221D01*
X310254D01*
G01X311307Y206721D02*
X311467Y206429D01*
X311681Y206263D01*
X311921Y206221D01*
X312134Y206263D01*
X312347Y206471D01*
X312481Y206721D01*
X312507Y206971D01*
X312454Y207263D01*
X312267Y207471D01*
X312081Y207554D01*
X311841D01*
G01X312081D02*
X312241Y207679D01*
X312374Y207888D01*
X312427Y208138D01*
X312374Y208388D01*
X312241Y208596D01*
X312001Y208721D01*
X311761Y208679D01*
X311521Y208513D01*
G01X312529Y221702D02*
X312369Y221827D01*
X312182Y221910D01*
X311969D01*
X311729Y221785D01*
X311542Y221577D01*
X311409Y221327D01*
X311302Y220910D01*
X311275Y220535D01*
X311329Y220160D01*
X311409Y219910D01*
X311569Y219660D01*
X311755Y219493D01*
X311942Y219410D01*
X312129D01*
X312315Y219493D01*
X312475Y219618D01*
X312609Y219785D01*
G01X313635Y220452D02*
X313822Y220743D01*
X313982Y220910D01*
X314195Y220993D01*
X314382Y220910D01*
X314515Y220743D01*
X314622Y220493D01*
X314649Y220202D01*
X314622Y219952D01*
X314515Y219702D01*
X314355Y219493D01*
X314169Y219410D01*
X313955Y219493D01*
X313769Y219743D01*
X313662Y220118D01*
X313635Y220535D01*
X313689Y221077D01*
X313769Y221368D01*
X313902Y221660D01*
X314089Y221868D01*
X314275Y221910D01*
X314462Y221827D01*
X314595Y221618D01*
G01X323789Y235245D02*
X323629Y235370D01*
X323442Y235453D01*
X323229D01*
X322989Y235328D01*
X322802Y235120D01*
X322669Y234870D01*
X322562Y234453D01*
X322535Y234078D01*
X322589Y233703D01*
X322669Y233453D01*
X322829Y233203D01*
X323015Y233036D01*
X323202Y232953D01*
X323389D01*
X323575Y233036D01*
X323735Y233161D01*
X323869Y233328D01*
G01X324815D02*
X324975Y233120D01*
X325162Y232995D01*
X325402Y232953D01*
X325642Y233036D01*
X325829Y233203D01*
X325962Y233495D01*
X325989Y233828D01*
X325935Y234161D01*
X325802Y234370D01*
X325615Y234536D01*
X325429Y234578D01*
X325242Y234536D01*
X325002Y234370D01*
X325082Y235453D01*
X325802D01*
G01X318789Y234891D02*
X318629Y235016D01*
X318442Y235099D01*
X318229D01*
X317989Y234974D01*
X317802Y234766D01*
X317669Y234516D01*
X317562Y234099D01*
X317535Y233724D01*
X317589Y233349D01*
X317669Y233099D01*
X317829Y232849D01*
X318015Y232682D01*
X318202Y232599D01*
X318389D01*
X318575Y232682D01*
X318735Y232807D01*
X318869Y232974D01*
G01X319949Y232891D02*
X320135Y232682D01*
X320349Y232599D01*
X320562Y232682D01*
X320749Y232932D01*
X320882Y233307D01*
X320935Y233682D01*
Y234141D01*
X320882Y234516D01*
X320749Y234849D01*
X320589Y235016D01*
X320402Y235099D01*
X320189Y235016D01*
X320029Y234849D01*
X319922Y234599D01*
X319869Y234266D01*
X319922Y233974D01*
X320055Y233682D01*
X320215Y233516D01*
X320402Y233474D01*
X320615Y233557D01*
X320775Y233766D01*
X320935Y234141D01*
G01X309804Y258671D02*
X312304D01*
Y258005D01*
X312179Y257791D01*
X312012Y257658D01*
X311679Y257605D01*
X311346Y257658D01*
X311137Y257818D01*
X311012Y258005D01*
Y258671D01*
G01Y258005D02*
X309804Y257605D01*
G01X310304Y256525D02*
X310012Y256365D01*
X309846Y256151D01*
X309804Y255911D01*
X309846Y255698D01*
X310054Y255485D01*
X310304Y255351D01*
X310554Y255325D01*
X310846Y255378D01*
X311054Y255565D01*
X311137Y255751D01*
Y255991D01*
G01Y255751D02*
X311262Y255591D01*
X311471Y255458D01*
X311721Y255405D01*
X311971Y255458D01*
X312179Y255591D01*
X312304Y255831D01*
X312262Y256071D01*
X312096Y256311D01*
G01X303363Y252737D02*
Y250945D01*
X303470Y250570D01*
X303683Y250320D01*
X303950Y250237D01*
X304217Y250320D01*
X304430Y250570D01*
X304537Y250945D01*
Y252737D01*
G01X306150Y250237D02*
Y252737D01*
X305830Y252237D01*
G01Y250237D02*
X306470D01*
G01X304777Y273347D02*
Y274472D01*
X304244Y275847D01*
G01X305310D02*
X304777Y274472D01*
G01X306470Y275430D02*
X306630Y275680D01*
X306817Y275805D01*
X307030Y275847D01*
X307297Y275764D01*
X307484Y275555D01*
X307537Y275305D01*
X307510Y275055D01*
X307404Y274847D01*
X306870Y274430D01*
X306630Y274139D01*
X306470Y273722D01*
X306417Y273347D01*
X307537D01*
G01X323356Y287196D02*
X323481Y287356D01*
X323564Y287543D01*
Y287756D01*
X323439Y287996D01*
X323231Y288183D01*
X322981Y288316D01*
X322564Y288423D01*
X322189Y288450D01*
X321814Y288396D01*
X321564Y288316D01*
X321314Y288156D01*
X321147Y287970D01*
X321064Y287783D01*
Y287596D01*
X321147Y287410D01*
X321272Y287250D01*
X321439Y287116D01*
G01X321564Y286170D02*
X321272Y286010D01*
X321106Y285796D01*
X321064Y285556D01*
X321106Y285343D01*
X321314Y285130D01*
X321564Y284996D01*
X321814Y284970D01*
X322106Y285023D01*
X322314Y285210D01*
X322397Y285396D01*
Y285636D01*
G01Y285396D02*
X322522Y285236D01*
X322731Y285103D01*
X322981Y285050D01*
X323231Y285103D01*
X323439Y285236D01*
X323564Y285476D01*
X323522Y285716D01*
X323356Y285956D01*
G01X321064Y283063D02*
X323564D01*
X321772Y284050D01*
Y282716D01*
G01X322945Y291792D02*
Y289292D01*
X324011D01*
G01X325998D02*
Y291792D01*
X325011Y290000D01*
X326345D01*
G01X318986Y324261D02*
X318826Y324386D01*
X318639Y324469D01*
X318426D01*
X318186Y324344D01*
X317999Y324136D01*
X317866Y323886D01*
X317759Y323469D01*
X317732Y323094D01*
X317786Y322719D01*
X317866Y322469D01*
X318026Y322219D01*
X318212Y322052D01*
X318399Y321969D01*
X318586D01*
X318772Y322052D01*
X318932Y322177D01*
X319066Y322344D01*
G01X320092Y324052D02*
X320252Y324302D01*
X320439Y324427D01*
X320652Y324469D01*
X320919Y324386D01*
X321106Y324177D01*
X321159Y323927D01*
X321132Y323677D01*
X321026Y323469D01*
X320492Y323052D01*
X320252Y322761D01*
X320092Y322344D01*
X320039Y321969D01*
X321159D01*
G01X322292Y323011D02*
X322479Y323302D01*
X322639Y323469D01*
X322852Y323552D01*
X323039Y323469D01*
X323172Y323302D01*
X323279Y323052D01*
X323306Y322761D01*
X323279Y322511D01*
X323172Y322261D01*
X323012Y322052D01*
X322826Y321969D01*
X322612Y322052D01*
X322426Y322302D01*
X322319Y322677D01*
X322292Y323094D01*
X322346Y323636D01*
X322426Y323927D01*
X322559Y324219D01*
X322746Y324427D01*
X322932Y324469D01*
X323119Y324386D01*
X323252Y324177D01*
G01X311860Y315797D02*
X311700Y315922D01*
X311513Y316005D01*
X311300D01*
X311060Y315880D01*
X310873Y315672D01*
X310740Y315422D01*
X310633Y315005D01*
X310606Y314630D01*
X310660Y314255D01*
X310740Y314005D01*
X310900Y313755D01*
X311086Y313588D01*
X311273Y313505D01*
X311460D01*
X311646Y313588D01*
X311806Y313713D01*
X311940Y313880D01*
G01X312966Y315588D02*
X313126Y315838D01*
X313313Y315963D01*
X313526Y316005D01*
X313793Y315922D01*
X313980Y315713D01*
X314033Y315463D01*
X314006Y315213D01*
X313900Y315005D01*
X313366Y314588D01*
X313126Y314297D01*
X312966Y313880D01*
X312913Y313505D01*
X314033D01*
G01X315620D02*
X315673Y314047D01*
X315753Y314505D01*
X315860Y314922D01*
X315993Y315380D01*
X316206Y316005D01*
X315140D01*
G01X312000Y306477D02*
Y303977D01*
X313066D01*
G01X314146Y304477D02*
X314306Y304185D01*
X314520Y304019D01*
X314760Y303977D01*
X314973Y304019D01*
X315186Y304227D01*
X315320Y304477D01*
X315346Y304727D01*
X315293Y305019D01*
X315106Y305227D01*
X314920Y305310D01*
X314680D01*
G01X314920D02*
X315080Y305435D01*
X315213Y305644D01*
X315266Y305894D01*
X315213Y306144D01*
X315080Y306352D01*
X314840Y306477D01*
X314600Y306435D01*
X314360Y306269D01*
G01X311939Y332332D02*
X311779Y332457D01*
X311592Y332540D01*
X311379D01*
X311139Y332415D01*
X310952Y332207D01*
X310819Y331957D01*
X310712Y331540D01*
X310685Y331165D01*
X310739Y330790D01*
X310819Y330540D01*
X310979Y330290D01*
X311165Y330123D01*
X311352Y330040D01*
X311539D01*
X311725Y330123D01*
X311885Y330248D01*
X312019Y330415D01*
G01X313045Y332123D02*
X313205Y332373D01*
X313392Y332498D01*
X313605Y332540D01*
X313872Y332457D01*
X314059Y332248D01*
X314112Y331998D01*
X314085Y331748D01*
X313979Y331540D01*
X313445Y331123D01*
X313205Y330832D01*
X313045Y330415D01*
X312992Y330040D01*
X314112D01*
G01X315752D02*
X315939Y330082D01*
X316152Y330207D01*
X316285Y330415D01*
X316339Y330707D01*
X316285Y330998D01*
X316125Y331248D01*
X315885Y331373D01*
X315619D01*
X315459Y331457D01*
X315325Y331665D01*
X315272Y331957D01*
X315352Y332248D01*
X315539Y332457D01*
X315752Y332540D01*
X315965Y332457D01*
X316152Y332248D01*
X316232Y331957D01*
X316179Y331665D01*
X316045Y331457D01*
X315885Y331373D01*
X315619D01*
X315379Y331248D01*
X315219Y330998D01*
X315165Y330707D01*
X315219Y330415D01*
X315352Y330207D01*
X315565Y330082D01*
X315752Y330040D01*
G01X303181Y329705D02*
Y332205D01*
X303847D01*
X304061Y332080D01*
X304194Y331913D01*
X304247Y331580D01*
X304194Y331247D01*
X304034Y331038D01*
X303847Y330913D01*
X303181D01*
G01X303847D02*
X304247Y329705D01*
G01X305407Y331788D02*
X305567Y332038D01*
X305754Y332163D01*
X305967Y332205D01*
X306234Y332122D01*
X306421Y331913D01*
X306474Y331663D01*
X306447Y331413D01*
X306341Y331205D01*
X305807Y330788D01*
X305567Y330497D01*
X305407Y330080D01*
X305354Y329705D01*
X306474D01*
G01X308114D02*
X308301Y329747D01*
X308514Y329872D01*
X308647Y330080D01*
X308701Y330372D01*
X308647Y330663D01*
X308487Y330913D01*
X308247Y331038D01*
X307981D01*
X307821Y331122D01*
X307687Y331330D01*
X307634Y331622D01*
X307714Y331913D01*
X307901Y332122D01*
X308114Y332205D01*
X308327Y332122D01*
X308514Y331913D01*
X308594Y331622D01*
X308541Y331330D01*
X308407Y331122D01*
X308247Y331038D01*
X307981D01*
X307741Y330913D01*
X307581Y330663D01*
X307527Y330372D01*
X307581Y330080D01*
X307714Y329872D01*
X307927Y329747D01*
X308114Y329705D01*
G01X323859Y332804D02*
X326359D01*
Y332138D01*
X326234Y331924D01*
X326067Y331791D01*
X325734Y331738D01*
X325401Y331791D01*
X325192Y331951D01*
X325067Y332138D01*
Y332804D01*
G01Y332138D02*
X323859Y331738D01*
G01X325942Y330578D02*
X326192Y330418D01*
X326317Y330231D01*
X326359Y330018D01*
X326276Y329751D01*
X326067Y329564D01*
X325817Y329511D01*
X325567Y329538D01*
X325359Y329644D01*
X324942Y330178D01*
X324651Y330418D01*
X324234Y330578D01*
X323859Y330631D01*
Y329511D01*
G01Y327924D02*
X324401Y327871D01*
X324859Y327791D01*
X325276Y327684D01*
X325734Y327551D01*
X326359Y327338D01*
Y328404D01*
G01X321142Y365434D02*
X434244Y467608D01*
G01X329207Y209167D02*
X327439Y210935D01*
X327816Y211312D01*
X328055Y211374D01*
X328286Y211369D01*
X328557Y211287D01*
X328839Y211156D01*
X329153Y210880D01*
X329428Y210567D01*
X329559Y210285D01*
X329642Y210014D01*
X329646Y209783D01*
X329584Y209544D01*
X329207Y209167D01*
G01X330083Y211516D02*
X330009Y211854D01*
X330004Y212085D01*
X330096Y212295D01*
X330287Y212368D01*
X330499Y212344D01*
X330751Y212243D01*
X330976Y212056D01*
X331134Y211860D01*
X331235Y211608D01*
X331270Y211347D01*
X331197Y211157D01*
X330987Y211065D01*
X330678Y211109D01*
X330337Y211299D01*
X330024Y211575D01*
X329679Y211996D01*
X329529Y212258D01*
X329417Y212559D01*
X329402Y212838D01*
X329504Y213000D01*
X329695Y213073D01*
X329937Y213020D01*
G01X338159Y226190D02*
X337999Y226315D01*
X337812Y226398D01*
X337599D01*
X337359Y226273D01*
X337172Y226065D01*
X337039Y225815D01*
X336932Y225398D01*
X336905Y225023D01*
X336959Y224648D01*
X337039Y224398D01*
X337199Y224148D01*
X337385Y223981D01*
X337572Y223898D01*
X337759D01*
X337945Y223981D01*
X338105Y224106D01*
X338239Y224273D01*
G01X339772Y223898D02*
Y226398D01*
X339452Y225898D01*
G01Y223898D02*
X340092D01*
G01X328045Y241142D02*
Y242267D01*
X327512Y243642D01*
G01X328578D02*
X328045Y242267D01*
G01X330245Y241142D02*
Y243642D01*
X329925Y243142D01*
G01Y241142D02*
X330565D01*
G01X338770Y265051D02*
X338610Y265176D01*
X338423Y265259D01*
X338210D01*
X337970Y265134D01*
X337783Y264926D01*
X337650Y264676D01*
X337543Y264259D01*
X337516Y263884D01*
X337570Y263509D01*
X337650Y263259D01*
X337810Y263009D01*
X337996Y262842D01*
X338183Y262759D01*
X338370D01*
X338556Y262842D01*
X338716Y262967D01*
X338850Y263134D01*
G01X339876Y264842D02*
X340036Y265092D01*
X340223Y265217D01*
X340436Y265259D01*
X340703Y265176D01*
X340890Y264967D01*
X340943Y264717D01*
X340916Y264467D01*
X340810Y264259D01*
X340276Y263842D01*
X340036Y263551D01*
X339876Y263134D01*
X339823Y262759D01*
X340943D01*
G01X329559Y302687D02*
X329434Y302527D01*
X329351Y302340D01*
Y302127D01*
X329476Y301887D01*
X329684Y301700D01*
X329934Y301567D01*
X330351Y301460D01*
X330726Y301433D01*
X331101Y301487D01*
X331351Y301567D01*
X331601Y301727D01*
X331768Y301913D01*
X331851Y302100D01*
Y302287D01*
X331768Y302473D01*
X331643Y302633D01*
X331476Y302767D01*
G01X331351Y303713D02*
X331643Y303873D01*
X331809Y304087D01*
X331851Y304327D01*
X331809Y304540D01*
X331601Y304753D01*
X331351Y304887D01*
X331101Y304913D01*
X330809Y304860D01*
X330601Y304673D01*
X330518Y304487D01*
Y304247D01*
G01Y304487D02*
X330393Y304647D01*
X330184Y304780D01*
X329934Y304833D01*
X329684Y304780D01*
X329476Y304647D01*
X329351Y304407D01*
X329393Y304167D01*
X329559Y303927D01*
G01X329351Y306500D02*
X329434Y306287D01*
X329643Y306127D01*
X329893Y306020D01*
X330226Y305940D01*
X330601Y305913D01*
X330976Y305940D01*
X331309Y306020D01*
X331559Y306127D01*
X331768Y306287D01*
X331851Y306500D01*
X331768Y306713D01*
X331559Y306873D01*
X331309Y306980D01*
X330976Y307060D01*
X330601Y307087D01*
X330226Y307060D01*
X329893Y306980D01*
X329643Y306873D01*
X329434Y306713D01*
X329351Y306500D01*
G01X338081Y293946D02*
X337921Y294071D01*
X337734Y294154D01*
X337521D01*
X337281Y294029D01*
X337094Y293821D01*
X336961Y293571D01*
X336854Y293154D01*
X336827Y292779D01*
X336881Y292404D01*
X336961Y292154D01*
X337121Y291904D01*
X337307Y291737D01*
X337494Y291654D01*
X337681D01*
X337867Y291737D01*
X338027Y291862D01*
X338161Y292029D01*
G01X339107Y292154D02*
X339267Y291862D01*
X339481Y291696D01*
X339721Y291654D01*
X339934Y291696D01*
X340147Y291904D01*
X340281Y292154D01*
X340307Y292404D01*
X340254Y292696D01*
X340067Y292904D01*
X339881Y292987D01*
X339641D01*
G01X339881D02*
X340041Y293112D01*
X340174Y293321D01*
X340227Y293571D01*
X340174Y293821D01*
X340041Y294029D01*
X339801Y294154D01*
X339561Y294112D01*
X339321Y293946D01*
G01X341894Y291654D02*
Y294154D01*
X341574Y293654D01*
G01Y291654D02*
X342214D01*
G01X338081Y288749D02*
X337921Y288874D01*
X337734Y288957D01*
X337521D01*
X337281Y288832D01*
X337094Y288624D01*
X336961Y288374D01*
X336854Y287957D01*
X336827Y287582D01*
X336881Y287207D01*
X336961Y286957D01*
X337121Y286707D01*
X337307Y286540D01*
X337494Y286457D01*
X337681D01*
X337867Y286540D01*
X338027Y286665D01*
X338161Y286832D01*
G01X339107Y286957D02*
X339267Y286665D01*
X339481Y286499D01*
X339721Y286457D01*
X339934Y286499D01*
X340147Y286707D01*
X340281Y286957D01*
X340307Y287207D01*
X340254Y287499D01*
X340067Y287707D01*
X339881Y287790D01*
X339641D01*
G01X339881D02*
X340041Y287915D01*
X340174Y288124D01*
X340227Y288374D01*
X340174Y288624D01*
X340041Y288832D01*
X339801Y288957D01*
X339561Y288915D01*
X339321Y288749D01*
G01X341387Y288540D02*
X341547Y288790D01*
X341734Y288915D01*
X341947Y288957D01*
X342214Y288874D01*
X342401Y288665D01*
X342454Y288415D01*
X342427Y288165D01*
X342321Y287957D01*
X341787Y287540D01*
X341547Y287249D01*
X341387Y286832D01*
X341334Y286457D01*
X342454D01*
G01X331742Y319930D02*
X331582Y320055D01*
X331395Y320138D01*
X331182D01*
X330942Y320013D01*
X330755Y319805D01*
X330622Y319555D01*
X330515Y319138D01*
X330488Y318763D01*
X330542Y318388D01*
X330622Y318138D01*
X330782Y317888D01*
X330968Y317721D01*
X331155Y317638D01*
X331342D01*
X331528Y317721D01*
X331688Y317846D01*
X331822Y318013D01*
G01X332848Y319721D02*
X333008Y319971D01*
X333195Y320096D01*
X333408Y320138D01*
X333675Y320055D01*
X333862Y319846D01*
X333915Y319596D01*
X333888Y319346D01*
X333782Y319138D01*
X333248Y318721D01*
X333008Y318430D01*
X332848Y318013D01*
X332795Y317638D01*
X333915D01*
G01X335102Y317930D02*
X335288Y317721D01*
X335502Y317638D01*
X335715Y317721D01*
X335902Y317971D01*
X336035Y318346D01*
X336088Y318721D01*
Y319180D01*
X336035Y319555D01*
X335902Y319888D01*
X335742Y320055D01*
X335555Y320138D01*
X335342Y320055D01*
X335182Y319888D01*
X335075Y319638D01*
X335022Y319305D01*
X335075Y319013D01*
X335208Y318721D01*
X335368Y318555D01*
X335555Y318513D01*
X335768Y318596D01*
X335928Y318805D01*
X336088Y319180D01*
G01X323614Y321674D02*
Y319174D01*
X324680D01*
G01X325840Y321257D02*
X326000Y321507D01*
X326187Y321632D01*
X326400Y321674D01*
X326667Y321591D01*
X326854Y321382D01*
X326907Y321132D01*
X326880Y320882D01*
X326774Y320674D01*
X326240Y320257D01*
X326000Y319966D01*
X325840Y319549D01*
X325787Y319174D01*
X326907D01*
G01X340152Y330676D02*
X341920Y332444D01*
X342297Y332067D01*
X342359Y331828D01*
X342354Y331597D01*
X342272Y331326D01*
X342141Y331044D01*
X341865Y330730D01*
X341552Y330455D01*
X341270Y330324D01*
X340999Y330241D01*
X340768Y330237D01*
X340529Y330299D01*
X340152Y330676D01*
G01X342008Y329232D02*
X341993Y328953D01*
X342085Y328743D01*
X342295Y328651D01*
X342603Y328696D01*
X342963Y328867D01*
X343266Y329094D01*
X343590Y329418D01*
X343817Y329721D01*
X343959Y330051D01*
X343964Y330282D01*
X343890Y330473D01*
X343681Y330565D01*
X343450Y330560D01*
X343197Y330459D01*
X342924Y330261D01*
X342756Y330017D01*
X342644Y329716D01*
X342639Y329485D01*
X342741Y329324D01*
X342951Y329232D01*
X343212Y329266D01*
X343590Y329418D01*
G01X413889Y123110D02*
X352644Y184355D01*
G02X369347Y201058I8351J8352D01*
G01X430592Y139813D01*
G02X413889Y123110I-8351J-8352D01*
G01D02*
X352644Y184355D01*
G01X369347Y201058D02*
G03X352644Y184355I-8352J-8351D01*
G01X351549Y232382D02*
Y229882D01*
G01X350936Y232382D02*
X352162D01*
G01X353189Y229882D02*
X354309Y232382D01*
G01X353189D02*
X354309Y229882D01*
G01X365434Y232560D02*
Y321142D01*
G01Y232560D02*
X467608Y119458D01*
G01X350779Y240001D02*
Y242501D01*
X351445D01*
X351659Y242376D01*
X351792Y242209D01*
X351845Y241876D01*
X351792Y241543D01*
X351632Y241334D01*
X351445Y241209D01*
X350779D01*
G01X351445D02*
X351845Y240001D01*
G01X352952D02*
X354072Y242501D01*
G01X352952D02*
X354072Y240001D01*
G01X349543Y251251D02*
X350076D01*
Y250501D01*
X349916Y250251D01*
X349730Y250084D01*
X349463Y250001D01*
X349196Y250084D01*
X349010Y250251D01*
X348850Y250501D01*
X348743Y250793D01*
X348690Y251126D01*
Y251418D01*
X348743Y251668D01*
X348850Y251959D01*
X349010Y252209D01*
X349170Y252376D01*
X349383Y252501D01*
X349570D01*
X349783Y252418D01*
X349943Y252251D01*
G01X350970Y250001D02*
Y252501D01*
X352196Y250001D01*
Y252501D01*
G01X353196Y250001D02*
Y252501D01*
X353730D01*
X353943Y252376D01*
X354103Y252209D01*
X354236Y251959D01*
X354343Y251668D01*
X354370Y251251D01*
X354343Y250834D01*
X354236Y250543D01*
X354103Y250293D01*
X353943Y250126D01*
X353730Y250001D01*
X353196D01*
G01X348718Y260501D02*
X348878Y260209D01*
X349092Y260043D01*
X349332Y260001D01*
X349545Y260043D01*
X349758Y260251D01*
X349892Y260501D01*
X349918Y260751D01*
X349865Y261043D01*
X349678Y261251D01*
X349492Y261334D01*
X349252D01*
G01X349492D02*
X349652Y261459D01*
X349785Y261668D01*
X349838Y261918D01*
X349785Y262168D01*
X349652Y262376D01*
X349412Y262501D01*
X349172Y262459D01*
X348932Y262293D01*
G01X351025Y261668D02*
X351505Y260001D01*
X351985Y261668D01*
G01X353118Y260501D02*
X353278Y260209D01*
X353492Y260043D01*
X353732Y260001D01*
X353945Y260043D01*
X354158Y260251D01*
X354292Y260501D01*
X354318Y260751D01*
X354265Y261043D01*
X354078Y261251D01*
X353892Y261334D01*
X353652D01*
G01X353892D02*
X354052Y261459D01*
X354185Y261668D01*
X354238Y261918D01*
X354185Y262168D01*
X354052Y262376D01*
X353812Y262501D01*
X353572Y262459D01*
X353332Y262293D01*
G01X353324Y269666D02*
Y267874D01*
X353431Y267499D01*
X353644Y267249D01*
X353911Y267166D01*
X354178Y267249D01*
X354391Y267499D01*
X354498Y267874D01*
Y269666D01*
G01X355444Y267166D02*
X356111Y269666D01*
X356778Y267166D01*
G01X356538Y268041D02*
X355684D01*
G01X357778Y267166D02*
Y269666D01*
X358444D01*
X358658Y269541D01*
X358791Y269374D01*
X358844Y269041D01*
X358791Y268708D01*
X358631Y268499D01*
X358444Y268374D01*
X357778D01*
G01X358444D02*
X358844Y267166D01*
G01X360511Y269666D02*
Y267166D01*
G01X359898Y269666D02*
X361124D01*
G01X362204Y269249D02*
X362364Y269499D01*
X362551Y269624D01*
X362764Y269666D01*
X363031Y269583D01*
X363218Y269374D01*
X363271Y269124D01*
X363244Y268874D01*
X363138Y268666D01*
X362604Y268249D01*
X362364Y267958D01*
X362204Y267541D01*
X362151Y267166D01*
X363271D01*
G01X365434Y321142D02*
X467608Y434244D01*
G01X355389Y311379D02*
X354323D01*
Y313879D01*
X355389D01*
G01X354963Y312671D02*
X354323D01*
G01X357056Y311379D02*
Y313879D01*
X356736Y313379D01*
G01Y311379D02*
X357376D01*
G01X430592Y413889D02*
X369347Y352644D01*
G02X352644Y369347I-8352J8351D01*
G01X413889Y430592D01*
G02X430592Y413889I8351J-8351D01*
G01X352644Y369347D02*
G03X369347Y352644I8351J-8352D01*
G01X413889Y430592D02*
X352644Y369347D01*
G01X430592Y139813D02*
X369347Y201058D01*
G01X379048Y194638D02*
X377280Y196405D01*
X377751Y196877D01*
X377990Y196939D01*
X378203Y196916D01*
X378476Y196718D01*
X378674Y196444D01*
X378708Y196184D01*
X378665Y195963D01*
X378193Y195492D01*
G01X378665Y195963D02*
X379802Y195392D01*
G01X380981Y196571D02*
X379213Y198338D01*
X379340Y197759D01*
G01X380754Y196344D02*
X381207Y196797D01*
G01X382499Y198089D02*
X382154Y198510D01*
X381886Y198890D01*
X381667Y199260D01*
X381437Y199679D01*
X381146Y200272D01*
X380392Y199517D01*
G01X372145Y209538D02*
X373913Y207771D01*
G01X371711Y209105D02*
X372579Y209972D01*
G01X375469Y209327D02*
X373701Y211094D01*
X373828Y210515D01*
G01X375242Y209100D02*
X375695Y209553D01*
G01X384835Y199166D02*
X383067Y200933D01*
X383538Y201405D01*
X383777Y201467D01*
X383990Y201444D01*
X384263Y201246D01*
X384461Y200972D01*
X384495Y200712D01*
X384452Y200491D01*
X383980Y200020D01*
G01X384452Y200491D02*
X385589Y199920D01*
G01X386768Y201099D02*
X385000Y202866D01*
X385127Y202287D01*
G01X386541Y200872D02*
X386994Y201325D01*
G01X387555Y202593D02*
X387875Y202500D01*
X388143Y202533D01*
X388343Y202674D01*
X388464Y202854D01*
X388468Y203152D01*
X388385Y203423D01*
X388227Y203619D01*
X387983Y203787D01*
X387704Y203803D01*
X387513Y203729D01*
X387343Y203560D01*
G01X387513Y203729D02*
X387538Y203931D01*
X387485Y204173D01*
X387346Y204387D01*
X387131Y204526D01*
X386889Y204579D01*
X386631Y204498D01*
X386491Y204299D01*
X386439Y204011D01*
G01X373554Y345297D02*
X371787Y343529D01*
G01X373121Y345731D02*
X373988Y344863D01*
G01X373569Y341747D02*
X375337Y343515D01*
X373372Y342946D01*
X374315Y342003D01*
G01X430592Y413889D02*
X369347Y352644D01*
G01X382316Y350796D02*
X384083Y352564D01*
X384555Y352093D01*
X384617Y351854D01*
X384594Y351641D01*
X384396Y351368D01*
X384122Y351170D01*
X383862Y351136D01*
X383641Y351179D01*
X383170Y351651D01*
G01X383641Y351179D02*
X383070Y350042D01*
G01X385364Y350695D02*
X385653Y350758D01*
X385874Y350715D01*
X386054Y350593D01*
X386184Y350346D01*
X386168Y350067D01*
X386029Y349852D01*
X385834Y349694D01*
X385611Y349622D01*
X384939Y349705D01*
X384563Y349668D01*
X384156Y349487D01*
X383853Y349259D01*
X384645Y348467D01*
G01X387572Y349075D02*
X387363Y349167D01*
X387102Y349133D01*
X386850Y349032D01*
X386558Y348852D01*
X386274Y348606D01*
X386027Y348322D01*
X385848Y348030D01*
X385747Y347777D01*
X385713Y347517D01*
X385805Y347307D01*
X386014Y347215D01*
X386275Y347250D01*
X386527Y347351D01*
X386819Y347530D01*
X387103Y347776D01*
X387350Y348060D01*
X387529Y348353D01*
X387630Y348605D01*
X387664Y348865D01*
X387572Y349075D01*
G01X375859Y356701D02*
X377626Y358469D01*
X378098Y357998D01*
X378160Y357759D01*
X378137Y357546D01*
X377939Y357273D01*
X377665Y357075D01*
X377405Y357041D01*
X377184Y357084D01*
X376713Y357556D01*
G01X377184Y357084D02*
X376613Y355947D01*
G01X377792Y354768D02*
X379559Y356536D01*
X378980Y356409D01*
G01X377565Y354995D02*
X378018Y354542D01*
G01X379726Y354307D02*
X380064Y354381D01*
X380295Y354386D01*
X380505Y354294D01*
X380578Y354103D01*
X380554Y353891D01*
X380453Y353639D01*
X380266Y353414D01*
X380070Y353256D01*
X379818Y353155D01*
X379557Y353120D01*
X379367Y353193D01*
X379275Y353403D01*
X379319Y353712D01*
X379509Y354053D01*
X379785Y354366D01*
X380206Y354711D01*
X380468Y354861D01*
X380769Y354973D01*
X381048Y354988D01*
X381210Y354886D01*
X381283Y354695D01*
X381230Y354453D01*
G01X404189Y181748D02*
X404008Y181626D01*
X403759Y181612D01*
X403469Y181676D01*
X403187Y181807D01*
X402914Y182005D01*
X402678Y182240D01*
X402480Y182514D01*
X402349Y182795D01*
X402285Y183085D01*
X402300Y183335D01*
X402421Y183515D01*
X402601Y183637D01*
X402851Y183651D01*
X403141Y183587D01*
X403423Y183457D01*
X403696Y183259D01*
X403932Y183023D01*
X404130Y182749D01*
X404261Y182468D01*
X404324Y182178D01*
X404310Y181928D01*
X404189Y181748D01*
G01X403868Y182370D02*
X404566Y182125D01*
G01X405745Y183304D02*
X403977Y185071D01*
X404104Y184492D01*
G01X405518Y183077D02*
X405971Y183530D01*
G01X405272Y383265D02*
X403505Y385033D01*
X405468Y384050D01*
X404485Y386014D01*
X406253Y384246D01*
G01X407545Y385538D02*
X405777Y387306D01*
X406346Y385341D01*
X407289Y386284D01*
G01X396557Y377721D02*
X396435Y377902D01*
X396421Y378151D01*
X396485Y378441D01*
X396616Y378723D01*
X396814Y378996D01*
X397049Y379232D01*
X397323Y379430D01*
X397604Y379561D01*
X397894Y379625D01*
X398144Y379610D01*
X398324Y379489D01*
X398446Y379309D01*
X398460Y379059D01*
X398396Y378769D01*
X398266Y378487D01*
X398068Y378214D01*
X397832Y377978D01*
X397558Y377780D01*
X397277Y377649D01*
X396987Y377586D01*
X396737Y377600D01*
X396557Y377721D01*
G01X397179Y378042D02*
X396934Y377344D01*
G01X398339Y375939D02*
X400107Y377707D01*
X398142Y377138D01*
X399085Y376195D01*
G01X413889Y123110D02*
G03X430592Y139813I8352J8351D01*
G01X427002Y144535D02*
X428770Y146303D01*
X429147Y145926D01*
X429209Y145687D01*
X429204Y145456D01*
X429122Y145185D01*
X428991Y144903D01*
X428715Y144589D01*
X428402Y144314D01*
X428120Y144183D01*
X427849Y144100D01*
X427618Y144096D01*
X427379Y144158D01*
X427002Y144535D01*
G01X430088Y144396D02*
X430377Y144459D01*
X430598Y144416D01*
X430778Y144294D01*
X430908Y144047D01*
X430892Y143768D01*
X430753Y143553D01*
X430558Y143395D01*
X430335Y143323D01*
X429663Y143406D01*
X429287Y143369D01*
X428880Y143188D01*
X428577Y142960D01*
X429369Y142168D01*
G01X418428Y157137D02*
X418403Y157338D01*
X418330Y157529D01*
X418179Y157680D01*
X417921Y157762D01*
X417642Y157746D01*
X417371Y157664D01*
X417001Y157445D01*
X416717Y157198D01*
X416489Y156895D01*
X416369Y156662D01*
X416305Y156372D01*
X416320Y156122D01*
X416393Y155931D01*
X416525Y155799D01*
X416716Y155726D01*
X416917Y155701D01*
X417129Y155725D01*
G01X417949Y154375D02*
X419716Y156143D01*
X419137Y156016D01*
G01X417722Y154602D02*
X418175Y154149D01*
G01X419467Y152857D02*
X419888Y153202D01*
X420268Y153470D01*
X420638Y153689D01*
X421057Y153919D01*
X421650Y154210D01*
X420895Y154964D01*
G01X413619Y173784D02*
X415387Y175551D01*
X414404Y173588D01*
X416368Y174571D01*
X414600Y172803D01*
G01X415666Y171737D02*
X417433Y173505D01*
X416854Y173378D01*
G01X415439Y171964D02*
X415892Y171511D01*
G01X428577Y407356D02*
X426809Y409124D01*
X427186Y409501D01*
X427425Y409563D01*
X427656Y409558D01*
X427927Y409476D01*
X428209Y409345D01*
X428523Y409069D01*
X428798Y408756D01*
X428929Y408474D01*
X429012Y408203D01*
X429016Y407972D01*
X428954Y407733D01*
X428577Y407356D01*
G01X429868Y409177D02*
X430128Y409143D01*
X430349Y409186D01*
X430548Y409327D01*
X430658Y409555D01*
X430673Y409805D01*
X430561Y410106D01*
X430344Y410360D01*
X430070Y410558D01*
X429829Y410611D01*
X429579Y410597D01*
X429418Y410495D01*
X429315Y410333D01*
X429263Y410046D01*
X428554Y410868D01*
X429063Y411377D01*
G01X417117Y398546D02*
X416916Y398521D01*
X416725Y398448D01*
X416574Y398297D01*
X416492Y398039D01*
X416508Y397760D01*
X416590Y397489D01*
X416809Y397119D01*
X417056Y396835D01*
X417359Y396607D01*
X417592Y396487D01*
X417882Y396423D01*
X418132Y396438D01*
X418323Y396511D01*
X418455Y396643D01*
X418528Y396834D01*
X418553Y397035D01*
X418529Y397247D01*
G01X418047Y399182D02*
X417984Y399471D01*
X418027Y399692D01*
X418149Y399872D01*
X418396Y400002D01*
X418675Y399986D01*
X418890Y399847D01*
X419048Y399652D01*
X419120Y399429D01*
X419037Y398757D01*
X419074Y398381D01*
X419255Y397974D01*
X419483Y397671D01*
X420275Y398463D01*
G01X419667Y401390D02*
X419575Y401181D01*
X419609Y400920D01*
X419710Y400668D01*
X419890Y400376D01*
X420136Y400092D01*
X420420Y399845D01*
X420712Y399666D01*
X420965Y399565D01*
X421225Y399531D01*
X421435Y399623D01*
X421527Y399832D01*
X421492Y400093D01*
X421391Y400345D01*
X421212Y400637D01*
X420966Y400921D01*
X420682Y401168D01*
X420389Y401347D01*
X420137Y401448D01*
X419877Y401482D01*
X419667Y401390D01*
G01X430592Y413889D02*
G03X413889Y430592I-8352J8352D01*
G01X434244Y86094D02*
G03X467608Y119458I15835J17529D01*
G01X467796Y103623D02*
G03I-17717J0D01*
G01Y450079D02*
G03I-17717J0D01*
G01X467608Y434244D02*
G03X434244Y467608I-17529J15835D01*
G54D12*
G01X133381Y155762D02*
X132796Y155177D01*
G02X132184I-306J307D01*
G01X131377Y155985D01*
G01X128147Y160940D02*
X127590Y160383D01*
G03Y159715I334J-334D01*
G01X128370Y158936D01*
G01X128982Y161775D02*
X129567Y162360D01*
G02X130179I306J-306D01*
G01X130987Y161553D01*
G01X128203Y392762D02*
X127618Y393347D01*
G02Y393959I307J306D01*
G01X128426Y394766D01*
G01X128982Y391982D02*
X129539Y391426D01*
G03X130207I334J334D01*
G01X130987Y392205D01*
G01X133381Y397995D02*
X132824Y398553D01*
G03X132156I-334J-334D01*
G01X131377Y397773D01*
G01X135949Y162462D02*
X134001Y164411D01*
G01Y162518D02*
X135949Y164467D01*
G01X134160Y156542D02*
X134717Y157098D01*
G03Y157766I-334J334D01*
G01X133938Y158546D01*
G01X134903Y390194D02*
X136852Y392142D01*
G01X134959D02*
X136908Y390194D01*
G01X134216Y397160D02*
X134801Y396576D01*
G02Y395964I-306J-306D01*
G01X133994Y395156D01*
G01X176457Y209882D02*
X180355Y205985D01*
X176457Y202088D01*
X172560Y205985D01*
X176457Y209882D01*
G01X180355Y347717D02*
X176457Y343820D01*
X172560Y347717D01*
X176457Y351614D01*
X180355Y347717D01*
G01X208268Y228780D02*
Y229607D01*
G02X208701Y230040I433J0D01*
G01X209843D01*
G01X208268Y227678D02*
Y226890D01*
G03X208741Y226418I473J1D01*
G01X209843D01*
G01X215631Y228820D02*
Y229607D01*
G03X215158Y230079I-472J0D01*
G01X214056D01*
G01X215631Y227638D02*
Y226812D01*
G02X215197Y226379I-433J0D01*
G01X214056D01*
G01X217127Y224843D02*
Y224056D01*
G03X217599Y223583I472J-1D01*
G01X218701D01*
G01X217127Y226024D02*
Y226851D01*
G02X217560Y227284I433J0D01*
G01X218701D01*
G01X212757Y234449D02*
Y242323D01*
X222599D01*
Y234449D01*
X212757D01*
G01X211260Y304253D02*
X236457D01*
Y279056D01*
X211260D01*
Y304253D01*
G01X238032Y215040D02*
Y214253D01*
G03X238505Y213780I473J0D01*
G01X239607D01*
G01X238032Y216221D02*
Y217048D01*
G02X238465Y217481I433J0D01*
G01X239607D01*
G01X227520Y216221D02*
Y217048D01*
G02X227953Y217481I433J0D01*
G01X229095D01*
G01X227520Y215119D02*
Y214331D01*
G03X227993Y213859I472J0D01*
G01X229095D01*
G01X234882Y216260D02*
Y217048D01*
G03X234410Y217520I-472J0D01*
G01X233308D01*
G01X234882Y215079D02*
Y214253D01*
G02X234449Y213820I-433J0D01*
G01X233308D01*
G01X224489Y224882D02*
Y224056D01*
G02X224056Y223623I-433J0D01*
G01X222914D01*
G01X224489Y225985D02*
Y226772D01*
G03X224016Y227245I-473J0D01*
G01X222914D01*
G01X219134Y258308D02*
X218308D01*
G02X217875Y258741I0J433D01*
G01Y259882D01*
G01X220237Y258308D02*
X221024D01*
G03X221497Y258780I1J472D01*
G01Y259882D01*
G01X219371Y273465D02*
Y274292D01*
G02X219804Y274725I433J0D01*
G01X220945D01*
G01X219371Y272363D02*
Y271575D01*
G03X219843Y271103I472J0D01*
G01X220945D01*
G01X226733Y273505D02*
Y274292D01*
G03X226260Y274764I-472J0D01*
G01X225158D01*
G01X226733Y272323D02*
Y271497D01*
G02X226300Y271064I-433J0D01*
G01X225158D01*
G01X219095Y265670D02*
X218308D01*
G03X217835Y265197I0J-473D01*
G01Y264095D01*
G01X220276Y265670D02*
X221103D01*
G02X221536Y265237I0J-433D01*
G01Y264095D01*
G01X238150Y332757D02*
Y333583D01*
G02X238583Y334016I433J0D01*
G01X239725D01*
G01X238150Y331654D02*
Y330867D01*
G03X238623Y330394I473J0D01*
G01X239725D01*
G01X225670Y327363D02*
Y326536D01*
G02X225237Y326103I-433J0D01*
G01X224095D01*
G01X225670Y328465D02*
Y329253D01*
G03X225197Y329725I-472J0D01*
G01X224095D01*
G01X218308Y327323D02*
Y326536D01*
G03X218780Y326064I472J0D01*
G01X219882D01*
G01X218308Y328505D02*
Y329331D01*
G02X218741Y329764I433J0D01*
G01X219882D01*
G01X245394Y215079D02*
Y214253D01*
G02X244961Y213820I-433J0D01*
G01X243820D01*
G01X245394Y216182D02*
Y216969D01*
G03X244922Y217442I-472J1D01*
G01X243820D01*
G01X255591Y239056D02*
X256418D01*
G02X256851Y238623I0J-433D01*
G01Y237481D01*
G01X254489Y239056D02*
X253701D01*
G03X253229Y238583I1J-473D01*
G01Y237481D01*
G01X255631Y231694D02*
X256418D01*
G03X256890Y232166I0J472D01*
G01Y233268D01*
G01X254449Y231694D02*
X253623D01*
G02X253190Y232127I0J433D01*
G01Y233268D01*
G01X256930Y219410D02*
X256103D01*
G02X255670Y219843I0J433D01*
G01Y220985D01*
G01X258032Y219410D02*
X258820D01*
G03X259292Y219882I0J472D01*
G01Y220985D01*
G01X256890Y226772D02*
X256103D01*
G03X255631Y226300I0J-472D01*
G01Y225197D01*
G01X258071Y226772D02*
X258898D01*
G02X259331Y226339I0J-433D01*
G01Y225197D01*
G01X245670Y254134D02*
X246457D01*
G03X246930Y254607I0J473D01*
G01Y255709D01*
G01X244489Y254134D02*
X243662D01*
G02X243229Y254568I0J433D01*
G01Y255709D01*
G01X245631Y261497D02*
X246457D01*
G02X246890Y261064I0J-433D01*
G01Y259922D01*
G01X244528Y261497D02*
X243741D01*
G03X243268Y261024I0J-473D01*
G01Y259922D01*
G01X253977Y295473D02*
X254804D01*
G02X255237Y295040I0J-433D01*
G01Y293898D01*
G01X252875Y295473D02*
X252087D01*
G03X251615Y295001I0J-472D01*
G01Y293898D01*
G01X254016Y288111D02*
X254804D01*
G03X255276Y288583I0J472D01*
G01Y289686D01*
G01X252835Y288111D02*
X252008D01*
G02X251575Y288544I0J433D01*
G01Y289686D01*
G01X241654Y325906D02*
X241969D01*
G01X240709D02*
X240316D01*
G01X241497Y326575D02*
Y325276D01*
G01X255276Y326615D02*
Y325788D01*
G02X254843Y325355I-433J0D01*
G01X253701D01*
G01X255276Y327717D02*
Y328505D01*
G03X254804Y328977I-472J0D01*
G01X253701D01*
G01X247914Y326575D02*
Y325788D01*
G03X248386Y325316I472J0D01*
G01X249489D01*
G01X247914Y327757D02*
Y328583D01*
G02X248347Y329016I433J0D01*
G01X249489D01*
G01X255276Y331457D02*
Y330631D01*
G02X254843Y330197I-433J-1D01*
G01X253701D01*
G01X255276Y332560D02*
Y333347D01*
G03X254804Y333820I-473J0D01*
G01X253701D01*
G01X247914Y331418D02*
Y330631D01*
G03X248386Y330158I472J-1D01*
G01X249489D01*
G01X247914Y332599D02*
Y333426D01*
G02X248347Y333859I433J0D01*
G01X249489D01*
G01X245512Y332796D02*
Y333583D01*
G03X245040Y334056I-472J1D01*
G01X243938D01*
G01X245512Y331615D02*
Y330788D01*
G02X245079Y330355I-433J0D01*
G01X243938D01*
G01X268662Y206300D02*
X267835D01*
G02X267402Y206733I0J433D01*
G01Y207875D01*
G01X269764Y206300D02*
X270552D01*
G03X271024Y206772I0J472D01*
G01Y207875D01*
G01X268623Y213662D02*
X267835D01*
G03X267363Y213190I0J-472D01*
G01Y212087D01*
G01X269804Y213662D02*
X270631D01*
G02X271063Y213229I-1J-433D01*
G01X271064Y212087D01*
G01X273859Y266969D02*
Y267796D01*
G02X274292Y268229I433J0D01*
G01X275434D01*
G01X273859Y265867D02*
Y265079D01*
G03X274331Y264607I472J0D01*
G01X275434D01*
G01X281221Y267008D02*
Y267796D01*
G03X280749Y268268I-472J0D01*
G01X279646D01*
G01X281221Y265827D02*
Y265001D01*
G02X280788Y264568I-433J0D01*
G01X279646D01*
G01X303111Y202835D02*
Y202008D01*
G02X302678Y201575I-433J0D01*
G01X301536D01*
G01X303111Y203938D02*
Y204725D01*
G03X302638Y205197I-472J0D01*
G01X301536D01*
G01X295749Y202796D02*
Y202008D01*
G03X296221Y201536I472J0D01*
G01X297323D01*
G01X295749Y203977D02*
Y204804D01*
G02X296182Y205237I433J0D01*
G01X297323D01*
G01X292127Y278898D02*
X292914D01*
G03X293386Y279371I0J472D01*
G01Y280473D01*
G01X290945Y278898D02*
X290119D01*
G02X289686Y279331I0J433D01*
G01Y280473D01*
G01X292087Y286260D02*
X292914D01*
G02X293347Y285827I0J-433D01*
G01Y284686D01*
G01X290985Y286260D02*
X290197D01*
G03X289725Y285788I0J-472D01*
G01Y284686D01*
G01X295906Y323623D02*
Y322796D01*
G02X295473Y322363I-433J0D01*
G01X294331D01*
G01X288544Y323583D02*
Y322796D01*
G03X289016Y322323I473J0D01*
G01X290119D01*
G01X295906Y324725D02*
Y325512D01*
G03X295434Y325985I-472J1D01*
G01X294331D01*
G01X288544Y324764D02*
Y325591D01*
G02X288977Y326024I433J0D01*
G01X290119D01*
G01X320197Y197363D02*
X320512D01*
G01X319253D02*
X318859D01*
G01X320040Y198032D02*
Y196733D01*
G01X320197Y203249D02*
X320512D01*
G01X319253D02*
X318859D01*
G01X320040Y203918D02*
Y202619D01*
G01X309371Y216536D02*
Y215749D01*
G03X309843Y215276I472J-1D01*
G01X310945D01*
G01X316733Y216497D02*
Y215670D01*
G02X316300Y215237I-433J0D01*
G01X315158D01*
G01X309371Y217638D02*
Y218465D01*
G02X309804Y218898I433J0D01*
G01X310945D01*
G01X316733Y217678D02*
Y218465D01*
G03X316260Y218938I-473J0D01*
G01X315158D01*
G01X323308Y236536D02*
X322481D01*
G02X322048Y236969I0J433D01*
G01Y238111D01*
G01X319725Y236536D02*
X320512D01*
G03X320985Y237008I0J473D01*
G01Y238111D01*
G01X318544Y236536D02*
X317717D01*
G02X317284Y236969I0J433D01*
G01Y238111D01*
G01X323347Y243898D02*
X322560D01*
G03X322087Y243426I-1J-472D01*
G01Y242323D01*
G01X319686Y243898D02*
X320512D01*
G02X320945Y243465I0J-433D01*
G01Y242323D01*
G01X318583Y243898D02*
X317796D01*
G03X317323Y243426I0J-473D01*
G01Y242323D01*
G01X317914Y281969D02*
X317087D01*
G02X316654Y282402I0J433D01*
G01Y283544D01*
G01X319016Y281969D02*
X319804D01*
G03X320276Y282442I0J472D01*
G01Y283544D01*
G01X317875Y289331D02*
X317087D01*
G03X316615Y288859I0J-472D01*
G01Y287757D01*
G01X319056Y289331D02*
X319882D01*
G02X320315Y288898I0J-433D01*
G01X320316Y287757D01*
G01X309764Y322481D02*
Y321694D01*
G03X310237Y321221I473J0D01*
G01X311339D01*
G01X317127Y322442D02*
Y321615D01*
G02X316694Y321182I-433J0D01*
G01X315552D01*
G01X309764Y319134D02*
Y319961D01*
G02X310197Y320394I433J0D01*
G01X311339D01*
G01X309764Y318032D02*
Y317245D01*
G03X310237Y316772I473J0D01*
G01X311339D01*
G01X317127Y319174D02*
Y319961D01*
G03X316654Y320434I-473J0D01*
G01X315552D01*
G01X317127Y317993D02*
Y317166D01*
G02X316694Y316733I-433J0D01*
G01X315552D01*
G01X309764Y323583D02*
Y324410D01*
G02X310197Y324843I433J0D01*
G01X311339D01*
G01X317127Y323623D02*
Y324410D01*
G03X316654Y324882I-472J0D01*
G01X315552D01*
G01X309764Y327993D02*
Y328820D01*
G02X310197Y329253I433J0D01*
G01X311339D01*
G01X309764Y326890D02*
Y326103D01*
G03X310237Y325631I472J0D01*
G01X311339D01*
G01X317127Y328032D02*
Y328820D01*
G03X316654Y329292I-473J-1D01*
G01X315552D01*
G01X317127Y326851D02*
Y326024D01*
G02X316694Y325592I-433J1D01*
G01X315552Y325591D01*
G01X324489Y236536D02*
X325276D01*
G03X325749Y237008I0J473D01*
G01Y238111D01*
G01X342205Y228229D02*
Y227402D01*
G02X341772Y226969I-433J0D01*
G01X340631D01*
G01X342205Y229331D02*
Y230119D01*
G03X341733Y230591I-472J0D01*
G01X340631D01*
G01X334843Y228190D02*
Y227402D01*
G03X335316Y226930I472J0D01*
G01X336418D01*
G01X334843Y229371D02*
Y230197D01*
G02X335276Y230630I433J0D01*
G01X336418Y230631D01*
G01X324449Y243898D02*
X325276D01*
G02X325709Y243465I0J-433D01*
G01Y242323D01*
G01X335197Y259174D02*
Y258386D01*
G03X335670Y257914I473J1D01*
G01X336772D01*
G01X342560Y259134D02*
Y258308D01*
G02X342127Y257875I-433J0D01*
G01X340985D01*
G01X335197Y260276D02*
Y261103D01*
G02X335631Y261536I433J0D01*
G01X336772D01*
G01X342560Y260316D02*
Y261103D01*
G03X342087Y261575I-472J0D01*
G01X340985D01*
G01X334371Y300276D02*
X333544D01*
G02X333111Y300709I0J433D01*
G01Y301851D01*
G01X335473Y300276D02*
X336260D01*
G03X336733Y300749I0J473D01*
G01Y301851D01*
G01X336064Y292442D02*
Y291615D01*
G02X335631Y291182I-433J0D01*
G01X334489D01*
G01X336064Y293544D02*
Y294331D01*
G03X335591Y294804I-473J0D01*
G01X334489D01*
G01X328701Y292402D02*
Y291615D01*
G03X329174Y291142I473J0D01*
G01X330276D01*
G01X328701Y293583D02*
Y294410D01*
G02X329134Y294843I433J0D01*
G01X330276D01*
G01X336064Y287323D02*
Y286497D01*
G02X335631Y286064I-433J0D01*
G01X334489D01*
G01X336064Y288426D02*
Y289213D01*
G03X335591Y289686I-473J0D01*
G01X334489D01*
G01X328701Y287284D02*
Y286497D01*
G03X329174Y286024I473J0D01*
G01X330276D01*
G01X328701Y288465D02*
Y289292D01*
G02X329134Y289725I433J0D01*
G01X330276D01*
G01X336733Y314489D02*
Y313662D01*
G02X336300Y313229I-433J0D01*
G01X335158D01*
G01X336733Y315591D02*
Y316379D01*
G03X336260Y316851I-472J0D01*
G01X335158D01*
G01X329371Y314449D02*
Y313662D01*
G03X329843Y313190I472J0D01*
G01X330945D01*
G01X329371Y315631D02*
Y316457D01*
G02X329804Y316890I433J0D01*
G01X330945D01*
G01X334331Y307638D02*
X333544D01*
G03X333071Y307166I-1J-472D01*
G01Y306064D01*
G01X335512Y307638D02*
X336339D01*
G02X336772Y307205I0J-433D01*
G01Y306064D01*
G01X373347Y205985D02*
X377245Y209882D01*
X381142Y205985D01*
X377245Y202088D01*
X373347Y205985D01*
G01X377245Y343820D02*
X373347Y347717D01*
X377245Y351614D01*
X381142Y347717D01*
X377245Y343820D01*
G01X420373Y162327D02*
X418425Y160379D01*
G01X420318D02*
X418369Y162327D01*
G01X425499Y160940D02*
X426084Y160355D01*
G02Y159743I-307J-306D01*
G01X425276Y158936D01*
G01X424720Y161720D02*
X424163Y162276D01*
G03X423495I-334J-334D01*
G01X422715Y161497D01*
G01X420321Y155707D02*
X420878Y155149D01*
G03X421546I334J334D01*
G01X422325Y155929D01*
G01X419486Y156542D02*
X418901Y157126D01*
G02Y157738I306J306D01*
G01X419708Y158546D01*
G01X417753Y391240D02*
X419701Y389291D01*
G01Y391184D02*
X417753Y389235D01*
G01X420321Y397940D02*
X420906Y398525D01*
G02X421518I306J-307D01*
G01X422325Y397717D01*
G01X419542Y397160D02*
X418985Y396604D01*
G03Y395936I334J-334D01*
G01X419764Y395156D01*
G01X425555Y392762D02*
X426112Y393319D01*
G03Y393987I-334J334D01*
G01X425332Y394766D01*
G01X424720Y391927D02*
X424135Y391342D01*
G02X423523I-306J306D01*
G01X422715Y392149D01*
G54D13*
G01X111059Y142738D02*
X114817Y138980D01*
G01X111922Y144492D02*
X124171Y156741D01*
X129182Y151730D01*
X116933Y139481D01*
X111922Y144492D01*
G01X116933Y414221D02*
X129182Y401972D01*
X124171Y396961D01*
X111922Y409210D01*
X116933Y414221D01*
G01X115179Y415084D02*
X111421Y411326D01*
G01X133806Y168114D02*
X146612Y180920D01*
X152180Y175352D01*
X139374Y162546D01*
X133806Y168114D01*
G01X158045Y177809D02*
X150250Y185604D01*
X153591Y188945D01*
X161386Y181150D01*
X158045Y177809D01*
G01X150250Y368098D02*
X158045Y375893D01*
X161386Y372552D01*
X153591Y364757D01*
X150250Y368098D01*
G01X140555Y392337D02*
X153361Y379531D01*
X147793Y373963D01*
X134987Y386769D01*
X140555Y392337D01*
G01X160090Y198185D02*
X158921Y197016D01*
X161983Y193953D01*
X163124Y195095D01*
G01X165264Y191649D02*
X164094Y190480D01*
X167157Y187418D01*
X168298Y188559D01*
G01X171722Y191816D02*
X172892Y192986D01*
X169829Y196048D01*
X168688Y194907D01*
G01X166549Y198352D02*
X167718Y199521D01*
X164655Y202583D01*
X163514Y201442D01*
G01X169848Y357901D02*
X171017Y356732D01*
X174079Y359795D01*
X172938Y360936D01*
G01X169681Y364360D02*
X168512Y365529D01*
X165449Y362467D01*
X166591Y361326D01*
G01X163972Y358753D02*
X162803Y359923D01*
X159741Y356860D01*
X160882Y355719D01*
G01X164139Y352295D02*
X165308Y351125D01*
X168371Y354188D01*
X167229Y355329D01*
G01X176878Y217437D02*
X175708Y216268D01*
X178771Y213205D01*
X179912Y214347D01*
G01X208184Y223217D02*
X223217Y208184D01*
X209297Y194264D01*
X194264Y209297D01*
X208184Y223217D01*
G01X192875Y231654D02*
Y260001D01*
X200749D01*
Y231654D01*
X192875D01*
G01X183336Y217604D02*
X184506Y218773D01*
X181444Y221835D01*
X180302Y220694D01*
G01X207363Y298032D02*
Y263386D01*
X190040D01*
Y298032D01*
X207363D01*
G01X190040Y290764D02*
X178272D01*
X178229Y290721D01*
Y282847D01*
X189882D01*
X190040Y283005D01*
G01X192520Y305394D02*
Y323505D01*
X200395D01*
Y305394D01*
X192520D01*
G01X192917Y336971D02*
G03I-1353J0D01*
G01X223217Y345518D02*
X208184Y330485D01*
X194264Y344405D01*
X209297Y359438D01*
X223217Y345518D01*
G01X218084Y191564D02*
G03I-1353J0D01*
G01X212522Y208741D02*
G03I-3781J0D01*
G01X207442Y250079D02*
Y251733D01*
X203111D01*
Y250119D01*
G01X202993Y245394D02*
Y243741D01*
X207323D01*
Y245355D01*
G01X210276Y259646D02*
Y257993D01*
X214607D01*
Y259607D01*
G01X214725Y264331D02*
Y265985D01*
X210394D01*
Y264371D01*
G01X210434Y268701D02*
Y267048D01*
X214764D01*
Y268662D01*
G01X214882Y273386D02*
Y275040D01*
X210552D01*
Y273426D01*
G01X209410Y324961D02*
X207757D01*
Y320631D01*
X209371D01*
G01X214095Y320512D02*
X215749D01*
Y324843D01*
X214134D01*
G01X218111Y307835D02*
X211812D01*
Y319253D01*
X218111D01*
Y307835D01*
G01X212522Y344961D02*
G03I-3781J0D01*
G01X232363Y199647D02*
X280394D01*
Y191772D01*
X232363D01*
Y199647D01*
G01X237678Y255591D02*
Y253938D01*
X242008D01*
Y255552D01*
G01X231694Y255631D02*
Y253977D01*
X236024D01*
Y255591D01*
G01X226142Y239607D02*
G03I-393J0D01*
G01X242127Y260276D02*
Y261930D01*
X237796D01*
Y260316D01*
G01X236142D02*
Y261969D01*
X231812D01*
Y260355D01*
G01X237796Y320670D02*
X236142D01*
Y316339D01*
X237757D01*
G01X225158Y311201D02*
Y309548D01*
X229489D01*
Y311162D01*
G01X229607Y315886D02*
Y317540D01*
X225276D01*
Y315926D01*
G01X224351Y320512D02*
X226005D01*
Y324843D01*
X224390D01*
G01X219666Y324961D02*
X218012D01*
Y320631D01*
X219627D01*
G01X235867Y328268D02*
X246497D01*
Y323544D01*
X235867D01*
Y328268D01*
G01X233859Y358544D02*
X253544D01*
Y334922D01*
X233859D01*
Y358544D01*
G01X225271Y360879D02*
X224102Y362049D01*
X221040Y358986D01*
X222181Y357845D01*
G01X225438Y354421D02*
X226608Y353251D01*
X229670Y356314D01*
X228529Y357455D01*
G01X249213Y265079D02*
Y263426D01*
X253544D01*
Y265040D01*
G01X253662Y269764D02*
Y271418D01*
X249331D01*
Y269804D01*
G01X249725Y279056D02*
X241064D01*
Y304253D01*
X249725D01*
G01D02*
Y279056D01*
G01X249686Y294410D02*
X241064D01*
G01X242481Y316221D02*
X244134D01*
Y320552D01*
X242520D01*
G01X247560Y317442D02*
Y315788D01*
X251890D01*
Y317402D01*
G01X252008Y322127D02*
Y323780D01*
X247678D01*
Y322166D01*
G01X266615Y212284D02*
Y213938D01*
X262284D01*
Y212323D01*
G01X262166Y207599D02*
Y205945D01*
X266497D01*
Y207560D01*
G01X277323Y322442D02*
X275670D01*
Y318111D01*
X277284D01*
G01X320079Y342795D02*
X272048D01*
Y350670D01*
X320079D01*
Y342795D01*
G01X272048Y340827D02*
X309843D01*
Y332953D01*
X272048D01*
Y340827D01*
G01X320079Y352638D02*
X272048D01*
Y360513D01*
X320079D01*
Y352638D01*
G01X295679Y281515D02*
Y275610D01*
X301584D01*
G01X296851Y281339D02*
Y276812D01*
X301379D01*
G01X296851Y286851D02*
Y291379D01*
X301379D01*
G01X289548Y310079D02*
G03I-394J0D01*
G01X282008Y317993D02*
X283662D01*
Y322323D01*
X282048D01*
G01X314410Y199725D02*
X325040D01*
Y195001D01*
X314410D01*
Y199725D01*
G01X311772Y195197D02*
X313426D01*
Y199528D01*
X311812D01*
G01X307087Y199646D02*
X305434D01*
Y195316D01*
X307048D01*
G01X314410Y205611D02*
X325040D01*
Y200886D01*
X314410D01*
Y205611D01*
G01X311772Y201024D02*
X313426D01*
Y205355D01*
X311812D01*
G01X307087Y205473D02*
X305434D01*
Y201142D01*
X307048D01*
G01X312993Y223308D02*
G03I-591J0D01*
G01X308071Y264410D02*
X306418D01*
Y260079D01*
X308032D01*
G01X312757Y259961D02*
X314410D01*
Y264292D01*
X312796D01*
G01X314174Y281339D02*
Y276812D01*
X309646D01*
G01X315591Y302166D02*
Y299607D01*
X320945D01*
Y302088D01*
G01X322127Y295197D02*
Y292638D01*
X327481D01*
Y295119D01*
G01X327560Y302127D02*
Y304686D01*
X322205D01*
Y302205D01*
G01X314174Y286851D02*
Y291379D01*
X309646D01*
G01X327757Y315434D02*
Y317993D01*
X322402D01*
Y315512D01*
G01X322323Y308505D02*
Y305945D01*
X327678D01*
Y308426D01*
G01X321024Y309095D02*
Y311654D01*
X315670D01*
Y309174D01*
G01X303623Y322186D02*
Y320532D01*
X307953D01*
Y322146D01*
G01X308071Y326871D02*
Y328524D01*
X303741D01*
Y326910D01*
G01X318347Y328071D02*
Y326418D01*
X322678D01*
Y328032D01*
G01X322796Y332757D02*
Y334410D01*
X318465D01*
Y332796D01*
G01X330485Y208184D02*
X345518Y223217D01*
X359438Y209297D01*
X344405Y194264D01*
X330485Y208184D01*
G01X348743Y208741D02*
G03I-3782J0D01*
G01X341812Y230827D02*
X348229D01*
Y236930D01*
G01X343505Y232048D02*
X346890D01*
Y235631D01*
G01X331142Y235316D02*
Y231930D01*
X334725D01*
G01X332757Y234568D02*
Y254253D01*
X345355D01*
Y234568D01*
X332757D01*
G01X346930Y253308D02*
Y256694D01*
X343347D01*
G01X334686Y256733D02*
X331300D01*
Y253150D01*
G01X348743Y344961D02*
G03I-3782J0D01*
G01X345518Y330485D02*
X330485Y345518D01*
X344405Y359438D01*
X359438Y344405D01*
X345518Y330485D01*
G01X338325Y362138D02*
G03I-1354J0D01*
G01X363491Y216731D02*
G03I-1353J0D01*
G01X363032Y265394D02*
Y227599D01*
X355158D01*
Y265394D01*
X363032D01*
G01X350512Y282796D02*
Y279882D01*
X361221D01*
Y282560D01*
G01X359922Y300355D02*
X351772D01*
G01X361182Y307048D02*
Y309961D01*
X350473D01*
Y307284D01*
G01X384405Y196234D02*
X383236Y197403D01*
X380174Y194340D01*
X381315Y193199D01*
G01X384572Y189775D02*
X385742Y188606D01*
X388804Y191668D01*
X387662Y192809D01*
G01X390271Y200856D02*
X389102Y202025D01*
X386040Y198963D01*
X387181Y197822D01*
G01X386720Y355193D02*
X385551Y354023D01*
X388614Y350961D01*
X389755Y352103D01*
G01X387454Y360871D02*
X388623Y362041D01*
X385561Y365103D01*
X384420Y363962D01*
G01X380995Y360705D02*
X379826Y359535D01*
X382888Y356473D01*
X384030Y357614D01*
G01X414722Y160184D02*
X401916Y172990D01*
X407484Y178558D01*
X420290Y165752D01*
X414722Y160184D01*
G01X390438Y194397D02*
X391608Y193228D01*
X394670Y196291D01*
X393529Y197432D01*
G01X403452Y185604D02*
X395657Y177809D01*
X392316Y181150D01*
X400111Y188945D01*
X403452Y185604D01*
G01X393179Y355360D02*
X394348Y356529D01*
X391286Y359591D01*
X390145Y358450D01*
G01X395657Y375893D02*
X403452Y368098D01*
X400111Y364757D01*
X392316Y372552D01*
X395657Y375893D01*
G01X419896Y385588D02*
X407090Y372782D01*
X401522Y378350D01*
X414328Y391156D01*
X419896Y385588D01*
G01X436769Y139481D02*
X424520Y151730D01*
X429531Y156741D01*
X441780Y144492D01*
X436769Y139481D01*
G01X441780Y409210D02*
X429531Y396961D01*
X424520Y401972D01*
X436769Y414221D01*
X441780Y409210D01*
G01X438523Y138618D02*
X442281Y142376D01*
G01X442643Y410964D02*
X438885Y414722D01*
M02*
