G04 ================== begin FILE IDENTIFICATION RECORD ==================*
G04 Layout Name:  C:/tempPCBDir/adfc7a8bf2efe4c205e85b00f260adc3/HQBrdTmp.brd*
G04 Film Name:    TOP*
G04 File Format:  Gerber RS274X*
G04 File Origin:  Cadence Allegro -unreleased*
G04 Origin Date:  Sun May  8 00:01:21 2022*
G04 *
G04 Layer:  ETCH/TOP*
G04 Layer:  PIN/TOP*
G04 Layer:  VIA CLASS/TOP*
G04 *
G04 Offset:    (0.00 0.00)*
G04 Mirror:    No*
G04 Mode:      Positive*
G04 Rotation:  0*
G04 FullContactRelief:  No*
G04 UndefLineWidth:     0.11*
G04 ================== end FILE IDENTIFICATION RECORD ====================*
%FSLAX25Y25*MOIN*%
%IR0*IPPOS*OFA0.00000B0.00000*MIA0B0*SFA1.00000B1.00000*%
%ADD17C,.031*%
%ADD23C,.032*%
%AMMACRO14*
21,1,.02362,.0315,0.0,0.0,135.*%
%ADD14MACRO14*%
%AMMACRO34*
4,1,10,.01969,-.10827,
-.01969,-.10827,
-.01969,-.0374,
-.04331,-.01378,
-.04331,.07283,
-.00787,.10827,
.00787,.10827,
.04331,.07283,
.04331,-.01378,
.01969,-.0374,
.01969,-.10827,
0.0*
%
%ADD34MACRO34*%
%ADD31R,.0315X.0315*%
%ADD16C,.04724*%
%ADD42C,.01575*%
%ADD26R,.08661X.2252*%
%AMMACRO11*
21,1,.02362,.02362,0.0,0.0,45.*%
%ADD11MACRO11*%
%ADD24R,.02362X.02362*%
%ADD12C,.05906*%
%AMMACRO10*
21,1,.04724,.04724,0.0,0.0,45.*%
%ADD10MACRO10*%
%ADD25R,.01575X.01575*%
%ADD20C,.06299*%
%AMMACRO13*
21,1,.05906,.05906,0.0,0.0,45.*%
%ADD13MACRO13*%
%ADD19R,.05906X.05906*%
%ADD33R,.07087X.07087*%
%AMMACRO18*
21,1,.07874,.03937,0.0,0.0,135.*%
%ADD18MACRO18*%
%ADD30R,.10236X.10236*%
%AMMACRO15*
21,1,.02362,.0315,0.0,0.0,45.*%
%ADD15MACRO15*%
%ADD37R,.05512X.04724*%
%ADD27R,.04724X.02362*%
%ADD21O,.08661X.05512*%
%ADD40R,.03346X.03937*%
%ADD41R,.04724X.07874*%
%ADD32R,.03937X.05906*%
%AMMACRO36*
4,1,40,-.02795,.00551,
.02795,.00551,
.028429,.005469,
.028893,.005345,
.029328,.005143,
.029722,.004868,
.030062,.004529,
.030339,.004136,
.030542,.003701,
.030667,.003238,
.03071,.00276,
.03071,-.00276,
.030667,-.003238,
.030542,-.003702,
.030338,-.004137,
.030062,-.00453,
.029722,-.004869,
.029328,-.005144,
.028892,-.005346,
.028428,-.005469,
.02795,-.00551,
-.02795,-.00551,
-.028429,-.005469,
-.028893,-.005345,
-.029328,-.005143,
-.029722,-.004868,
-.030062,-.004529,
-.030339,-.004136,
-.030542,-.003701,
-.030667,-.003238,
-.03071,-.00276,
-.03071,.00276,
-.030667,.003238,
-.030542,.003702,
-.030338,.004137,
-.030062,.00453,
-.029722,.004869,
-.029328,.005144,
-.028892,.005346,
-.028428,.005469,
-.02795,.00551,
0.0*
%
%ADD36MACRO36*%
%AMMACRO35*
4,1,40,.00551,.02795,
.00551,-.02795,
.005469,-.028429,
.005345,-.028893,
.005143,-.029328,
.004868,-.029722,
.004529,-.030062,
.004136,-.030339,
.003701,-.030542,
.003238,-.030667,
.00276,-.03071,
-.00276,-.03071,
-.003238,-.030667,
-.003702,-.030542,
-.004137,-.030338,
-.00453,-.030062,
-.004869,-.029722,
-.005144,-.029328,
-.005346,-.028892,
-.005469,-.028428,
-.00551,-.02795,
-.00551,.02795,
-.005469,.028429,
-.005345,.028893,
-.005143,.029328,
-.004868,.029722,
-.004529,.030062,
-.004136,.030339,
-.003701,.030542,
-.003238,.030667,
-.00276,.03071,
.00276,.03071,
.003238,.030667,
.003702,.030542,
.004137,.030338,
.00453,.030062,
.004869,.029722,
.005144,.029328,
.005346,.028892,
.005469,.028428,
.00551,.02795,
0.0*
%
%ADD35MACRO35*%
%AMMACRO28*
4,1,40,.00512,.01467,
.00512,-.01467,
.0051,-.014891,
.005041,-.015106,
.004946,-.015307,
.004818,-.015489,
.00466,-.015645,
.004477,-.015772,
.004275,-.015865,
.00406,-.015922,
.00384,-.01594,
-.00384,-.01594,
-.004062,-.015921,
-.004277,-.015864,
-.004479,-.015771,
-.004661,-.015644,
-.004819,-.015487,
-.004947,-.015306,
-.005042,-.015104,
-.0051,-.01489,
-.00512,-.01467,
-.00512,.01467,
-.0051,.014891,
-.005041,.015106,
-.004946,.015307,
-.004818,.015489,
-.00466,.015645,
-.004477,.015772,
-.004275,.015865,
-.00406,.015922,
-.00384,.01594,
.00384,.01594,
.004062,.015921,
.004277,.015864,
.004479,.015771,
.004661,.015644,
.004819,.015487,
.004947,.015306,
.005042,.015104,
.0051,.01489,
.00512,.01467,
0.0*
%
%ADD28MACRO28*%
%AMMACRO29*
4,1,40,.01467,-.00512,
-.01467,-.00512,
-.014891,-.0051,
-.015106,-.005041,
-.015307,-.004946,
-.015489,-.004818,
-.015645,-.00466,
-.015772,-.004477,
-.015865,-.004275,
-.015922,-.00406,
-.01594,-.00384,
-.01594,.00384,
-.015921,.004062,
-.015864,.004277,
-.015771,.004479,
-.015644,.004661,
-.015487,.004819,
-.015306,.004947,
-.015104,.005042,
-.01489,.0051,
-.01467,.00512,
.01467,.00512,
.014891,.0051,
.015106,.005041,
.015307,.004946,
.015489,.004818,
.015645,.00466,
.015772,.004477,
.015865,.004275,
.015922,.00406,
.01594,.00384,
.01594,-.00384,
.015921,-.004062,
.015864,-.004277,
.015771,-.004479,
.015644,-.004661,
.015487,-.004819,
.015306,-.004947,
.015104,-.005042,
.01489,-.0051,
.01467,-.00512,
0.0*
%
%ADD29MACRO29*%
%AMMACRO22*
21,1,.07874,.03937,0.0,0.0,45.*%
%ADD22MACRO22*%
%AMMACRO38*
4,1,44,.00512,.01526,
.00512,-.01526,
.005101,-.015482,
.005043,-.015698,
.004949,-.0159,
.004821,-.016082,
.004664,-.01624,
.004481,-.016368,
.004279,-.016463,
.004064,-.01652,
.003842,-.01654,
.00384,-.01654,
-.00384,-.01654,
-.004062,-.016521,
-.004278,-.016463,
-.00448,-.016369,
-.004662,-.016241,
-.00482,-.016084,
-.004948,-.015901,
-.005043,-.015699,
-.0051,-.015484,
-.00512,-.015262,
-.00512,-.01526,
-.00512,.01526,
-.005101,.015482,
-.005043,.015698,
-.004949,.0159,
-.004821,.016082,
-.004664,.01624,
-.004481,.016368,
-.004279,.016463,
-.004064,.01652,
-.003842,.01654,
-.00384,.01654,
.00384,.01654,
.004062,.016521,
.004278,.016463,
.00448,.016369,
.004662,.016241,
.00482,.016084,
.004948,.015901,
.005043,.015699,
.0051,.015484,
.00512,.015262,
.00512,.01526,
0.0*
%
%ADD38MACRO38*%
%AMMACRO39*
4,1,44,.01526,-.00512,
-.01526,-.00512,
-.015482,-.005101,
-.015698,-.005043,
-.0159,-.004949,
-.016082,-.004821,
-.01624,-.004664,
-.016368,-.004481,
-.016463,-.004279,
-.01652,-.004064,
-.01654,-.003842,
-.01654,-.00384,
-.01654,.00384,
-.016521,.004062,
-.016463,.004278,
-.016369,.00448,
-.016241,.004662,
-.016084,.00482,
-.015901,.004948,
-.015699,.005043,
-.015484,.0051,
-.015262,.00512,
-.01526,.00512,
.01526,.00512,
.015482,.005101,
.015698,.005043,
.0159,.004949,
.016082,.004821,
.01624,.004664,
.016368,.004481,
.016463,.004279,
.01652,.004064,
.01654,.003842,
.01654,.00384,
.01654,-.00384,
.016521,-.004062,
.016463,-.004278,
.016369,-.00448,
.016241,-.004662,
.016084,-.00482,
.015901,-.004948,
.015699,-.005043,
.015484,-.0051,
.015262,-.00512,
.01526,-.00512,
0.0*
%
%ADD39MACRO39*%
%ADD43C,.01181*%
%ADD44C,.02362*%
%ADD45C,.01287*%
%ADD46C,.01969*%
%ADD47C,.005*%
%ADD48C,.00709*%
%ADD49C,.00787*%
%ADD52C,.07301*%
%ADD55C,.06907*%
%ADD57C,.06908*%
%ADD53R,.04151X.04151*%
%ADD60C,.38583*%
%ADD58R,.06513X.05726*%
%ADD59R,.06514X.05726*%
%ADD50C,.38585*%
%ADD51R,.06907X.06907*%
%ADD54R,.04938X.06907*%
%ADD56R,.05726X.08875*%
G75*
%LPD*%
G75*
G36*
G01X118401Y87264D02*
G02X87264Y118401I-14778J16359D01*
G01X114751Y148828D01*
G02X115448Y148560I297J-268D01*
G01Y147056D01*
X112884Y144492D01*
X116933Y140443D01*
X120982Y144492D01*
X118418Y147056D01*
Y149206D01*
X120142Y151115D01*
G02X120722Y151129I297J-268D01*
G01X124171Y147681D01*
X128220Y151730D01*
X127245Y152704D01*
X127506Y152965D01*
X130150D01*
X132365Y155179D01*
X132504Y155040D01*
X134883Y157418D01*
X134744Y157558D01*
X135004Y157818D01*
X137910D01*
X148013Y167921D01*
Y172150D01*
G03X149821Y176309I-1485J3118D01*
G01X149784Y176425D01*
X150388Y177028D01*
X151569D01*
X152699Y178158D01*
X152839Y178019D01*
X155774Y180955D01*
X153395Y183333D01*
X150460Y180398D01*
X150599Y180258D01*
X150339Y179998D01*
X149158D01*
X147684Y178525D01*
X147569Y178561D01*
G03X145043Y172150I-1041J-3293D01*
G01Y169151D01*
X144216Y168323D01*
X139457Y173081D01*
X134573Y168197D01*
X135965Y166805D01*
X132593Y163433D01*
X131129D01*
X129999Y162303D01*
X129859Y162442D01*
X127481Y160063D01*
X127620Y159924D01*
X127360Y159664D01*
X126068D01*
X124444Y158040D01*
X123973D01*
G02X123676Y158708I0J400D01*
G01X179340Y220325D01*
G02X179920Y220340I297J-268D01*
G01X180220Y220040D01*
X176378Y216198D01*
X178757Y213819D01*
X182599Y217661D01*
X184734Y215526D01*
X177748Y208540D01*
G03X174421Y203973I-1290J-2556D01*
G01X174517Y203875D01*
X170644Y195342D01*
G02X169997Y195224I-364J165D01*
G01X169788Y195434D01*
X166586Y192232D01*
X166384Y192434D01*
X164200Y196035D01*
X163846Y196389D01*
X167048Y199591D01*
X164670Y201970D01*
X159646Y196946D01*
X162025Y194567D01*
X162581Y195124D01*
X162783Y194923D01*
X164967Y191321D01*
X165321Y190967D01*
X164764Y190410D01*
X164903Y190271D01*
X162064Y187431D01*
Y186433D01*
X161803Y186173D01*
X161664Y186312D01*
X158729Y183377D01*
X161107Y180998D01*
X164043Y183933D01*
X163903Y184073D01*
X165034Y185203D01*
Y186201D01*
X167003Y188171D01*
X167143Y188032D01*
X172166Y193055D01*
X171609Y193612D01*
X172002Y194005D01*
X176146Y203136D01*
X176284Y203127D01*
G03X179071Y207152I173J2858D01*
G01X179015Y207278D01*
X185999Y214261D01*
X193493Y206767D01*
G02X193195Y206084I-283J-283D01*
G03X183242Y202172I-487J-13377D01*
G01X121996Y140927D01*
G03X140927Y121996I9466J-9466D01*
G01X202172Y183242D01*
G03X206084Y193195I-9465J9466D01*
G02X206767Y193493I400J15D01*
G01X220340Y179920D01*
G02X220325Y179340I-283J-283D01*
G01X118401Y87264D01*
G37*
G36*
G01X144591Y378130D02*
G03X147793Y376162I3118J1485D01*
G01X147879Y376164D01*
X150599Y373444D01*
X150460Y373304D01*
X153395Y370369D01*
X155774Y372747D01*
X152839Y375683D01*
X152699Y375544D01*
X150570Y377673D01*
X150652Y377808D01*
G03X144591Y381100I-2943J1807D01*
G01X140229D01*
X133229Y388849D01*
Y392369D01*
X132099Y393499D01*
X132644Y394044D01*
X133774Y392914D01*
X133806D01*
X136016Y390704D01*
Y389208D01*
X137146Y388078D01*
X135755Y386686D01*
X140638Y381802D01*
X145522Y386686D01*
X140638Y391570D01*
X139246Y390178D01*
X138986Y390438D01*
Y391934D01*
X135036Y395884D01*
X135004D01*
X134744Y396144D01*
X134883Y396284D01*
X132504Y398662D01*
X132365Y398523D01*
X132105Y398783D01*
Y401938D01*
X123347Y410695D01*
X119497D01*
X116933Y413259D01*
X112884Y409210D01*
X116933Y405161D01*
X119497Y407725D01*
X122118D01*
X123996Y405846D01*
X120122Y401972D01*
X124171Y397923D01*
X125145Y398898D01*
X125405Y398638D01*
Y395993D01*
X127620Y393778D01*
X127481Y393639D01*
X129859Y391260D01*
X129999Y391399D01*
X130259Y391139D01*
Y388747D01*
G02X129562Y388479I-400J0D01*
G01X87264Y435301D01*
G02X118401Y466438I16359J14778D01*
G01X219731Y374899D01*
G02X219462Y374202I-268J-297D01*
G01X217086D01*
G03Y370838I-1259J-1682D01*
G01X219957D01*
X228352Y363255D01*
G02X228366Y362675I-268J-297D01*
G01X225551Y359860D01*
X224032Y361379D01*
X221654Y359000D01*
X223173Y357481D01*
X218960Y353268D01*
X220712Y351516D01*
X214575Y345379D01*
X218067Y341887D01*
X224204Y348024D01*
X225338Y346890D01*
X206598Y328150D01*
X206159D01*
X204131Y330178D01*
X204426Y330473D01*
X205539Y329359D01*
X211815Y335635D01*
X208323Y339127D01*
X202047Y332851D01*
X203161Y331738D01*
X202866Y331443D01*
X199646Y334663D01*
X190691Y325708D01*
G02X190112Y325723I-282J283D01*
G01X189871Y325988D01*
Y327292D01*
G03X186475Y327340I-1682J1173D01*
G01X186508Y327290D01*
Y326482D01*
G02X185811Y326214I-400J0D01*
G01X139515Y377462D01*
G02X139812Y378130I297J268D01*
G01X144591D01*
G37*
G36*
G01X274027Y204585D02*
X268114Y198699D01*
X267984Y198767D01*
G03X263832Y193376I-1606J-3058D01*
G02X263537Y192706I-295J-270D01*
G01X259220D01*
G02X258925Y193376I0J400D01*
G03X257413Y199004I-2546J2333D01*
G01X257273Y199048D01*
Y207197D01*
X262728D01*
Y206409D01*
X266092D01*
Y207197D01*
X267531D01*
Y206409D01*
X270895D01*
Y213513D01*
X267531D01*
Y208986D01*
X266092D01*
Y213513D01*
X265305D01*
Y214100D01*
G03X263516I-895J1845D01*
G01Y213513D01*
X262728D01*
Y208986D01*
X257312D01*
Y213195D01*
G03X255523I-894J1845D01*
G01Y208355D01*
X255516Y208329D01*
G03X255484Y208091I863J-237D01*
G01Y199048D01*
X255344Y199004D01*
G03X253832Y193376I1034J-3295D01*
G02X253537Y192706I-295J-270D01*
G01X249220D01*
G02X248925Y193376I0J400D01*
G03X243832I-2547J2333D01*
G02X243537Y192706I-295J-270D01*
G01X239832D01*
Y199163D01*
X232925D01*
Y192706D01*
X230852D01*
X229152Y191171D01*
X224055D01*
G03Y187807I-1259J-1682D01*
G01X228658D01*
G02X228926Y187110I0J-400D01*
G01X222393Y181208D01*
X204428Y199173D01*
G03X199197Y204415I-11721J-6466D01*
G01X199173Y204428D01*
X187669Y215932D01*
X196510Y224772D01*
X208452D01*
X221284Y211941D01*
X246631D01*
X252116Y217425D01*
Y219344D01*
G02X252777Y219647I400J0D01*
G03X255288Y219520I1337J1555D01*
G01X259163D01*
Y220307D01*
X259926D01*
X262820Y223201D01*
X269056D01*
X269105Y223168D01*
G03X269528Y223043I423J652D01*
G01X275119D01*
G03X275895Y223820I0J776D01*
G01Y224371D01*
G03X275738Y224838I-776J-1D01*
G02Y225320I320J241D01*
G03X275895Y225788I-619J468D01*
G01Y226339D01*
G03X275810Y226694I-777J2D01*
G01X275743Y226823D01*
X275988Y227068D01*
X276390Y226666D01*
Y223363D01*
X274027Y221001D01*
Y204585D01*
G37*
G36*
G01X186404Y217197D02*
X184269Y219332D01*
X184827Y219890D01*
X184894Y219899D01*
G03X186611Y222366I-287J2031D01*
G02X186951Y222848I391J85D01*
G03X188701Y224466I-258J2034D01*
G01X188714Y224524D01*
X192706Y228516D01*
Y259607D01*
X194960D01*
G02X195152Y258856I0J-400D01*
G03X198471I1660J-3029D01*
G02X198663Y259607I192J351D01*
G01X207008D01*
Y254764D01*
X226969D01*
Y265945D01*
X231894D01*
G02X232221Y265315I0J-400D01*
G03X233004Y262289I1677J-1180D01*
G01Y261505D01*
X232216D01*
Y254401D01*
X233004D01*
Y252115D01*
X232177Y251289D01*
X231929D01*
X231871Y251392D01*
G03X228234Y251289I-1792J-998D01*
G01X220822D01*
G03X217179Y249408I-1845J-895D01*
G02X216759Y248822I-351J-192D01*
G03X215504Y244852I-360J-2070D01*
G01Y242529D01*
X212551D01*
Y239953D01*
X214100D01*
G02X214383Y239270I0J-400D01*
G01X212945Y237832D01*
Y236820D01*
X212551D01*
Y234244D01*
X212945D01*
Y232300D01*
X212905Y232261D01*
Y229911D01*
X208378D01*
Y226561D01*
X195769D01*
X186404Y217197D01*
G37*
G36*
G01X209371Y257127D02*
Y261969D01*
X203336D01*
G02X203002Y262588I1J400D01*
G03X200276Y267627I-2726J1782D01*
G01X197127D01*
G03X194401Y262588I0J-3257D01*
G02X194066Y261969I-335J-219D01*
G01X192706D01*
Y277375D01*
X194359Y279027D01*
X195462D01*
G03X201941I3240J1682D01*
G01X208935D01*
X209801Y279894D01*
X212179D01*
G02X212462Y279211I0J-400D01*
G01X211744Y278493D01*
Y274576D01*
X210957D01*
Y267472D01*
X211586D01*
Y265521D01*
X210799D01*
Y258417D01*
X214163D01*
Y262945D01*
X218004D01*
Y258417D01*
X221368D01*
Y265521D01*
X218004D01*
Y264734D01*
X214163D01*
Y265521D01*
X213375D01*
Y266551D01*
X213533Y266709D01*
Y267472D01*
X214320D01*
Y267478D01*
X215730D01*
G03Y268980I1908J751D01*
G01X214320D01*
Y272000D01*
X219480D01*
Y271232D01*
X226584D01*
Y274596D01*
X219480D01*
Y273808D01*
X218717D01*
X218697Y273789D01*
X214320D01*
Y274576D01*
X213533D01*
Y277752D01*
X214911Y279130D01*
Y279894D01*
X218848D01*
Y303415D01*
X215698D01*
Y303898D01*
X216997Y305197D01*
Y308122D01*
X220564D01*
X223871Y304815D01*
X231103D01*
X232020Y303898D01*
Y303415D01*
X228870D01*
Y279894D01*
X238533D01*
Y281705D01*
X241350D01*
Y279342D01*
X249438D01*
Y287431D01*
X241350D01*
Y285068D01*
X238533D01*
Y303415D01*
X235383D01*
Y305292D01*
X232497Y308179D01*
X225264D01*
X222942Y310501D01*
Y316390D01*
X225103D01*
X225681Y315811D01*
Y309972D01*
X229045D01*
Y317076D01*
X226946D01*
X225844Y318179D01*
X222942D01*
Y318966D01*
X220974D01*
Y320193D01*
X221053Y320272D01*
Y321035D01*
X225580D01*
Y324399D01*
X224793D01*
Y325162D01*
X224773Y325182D01*
Y326232D01*
X225560D01*
Y327020D01*
X229380D01*
X229425Y326881D01*
G03X229835Y326213I1599J522D01*
G01X231193Y324855D01*
Y313576D01*
G03X232458Y310394I1682J-1174D01*
G01X232516Y310382D01*
X234463Y308435D01*
X234502D01*
X241350Y301587D01*
Y295878D01*
X249438D01*
Y297921D01*
G02X250121Y298204I400J0D01*
G01X252138Y296188D01*
Y295364D01*
X251744D01*
Y288260D01*
X255108D01*
Y295364D01*
X254714D01*
Y297255D01*
X250758Y301210D01*
X249438D01*
Y303966D01*
X243729D01*
X235896Y311799D01*
X235857D01*
X234895Y312760D01*
X234882Y312819D01*
G03X234557Y313576I-2009J-414D01*
G01Y326249D01*
X232706Y328099D01*
Y345957D01*
X238870D01*
Y345147D01*
X241232Y342785D01*
Y335405D01*
X242590D01*
Y333887D01*
X238260D01*
Y330523D01*
X245364D01*
Y333887D01*
X244773D01*
Y334344D01*
X244793Y334364D01*
Y335405D01*
X246171D01*
Y342785D01*
X248533Y345147D01*
Y354224D01*
X244696Y358060D01*
X242707D01*
X238870Y354224D01*
Y349320D01*
X232198D01*
G03X229342Y346465I-1174J-1682D01*
G01Y328808D01*
X225560D01*
Y329596D01*
X218457D01*
Y326232D01*
X219244D01*
Y324399D01*
X218476D01*
Y321035D01*
X219185D01*
Y318966D01*
X217216D01*
Y312487D01*
G02X216534Y312205I-400J1D01*
G01X214497Y314241D01*
Y321075D01*
X215285D01*
Y324438D01*
X208181D01*
Y321075D01*
X209092D01*
Y318966D01*
X206980D01*
Y308122D01*
X212706D01*
Y310309D01*
G02X213389Y310592I400J0D01*
G01X213634Y310347D01*
Y306591D01*
X212334Y305292D01*
Y303415D01*
X209185D01*
Y284035D01*
X207541Y282391D01*
X201941D01*
G03X201825Y282599I-3244J-1673D01*
G02X201941Y282895I171J104D01*
G03X202114Y282997I-110J384D01*
G01X202846Y283729D01*
Y286631D01*
X206284Y290068D01*
X208161D01*
Y294844D01*
G03X208044Y295126I-400J-1D01*
G02X208021Y295667I283J283D01*
G01Y304898D01*
X201788Y311131D01*
X199911D01*
Y312903D01*
X192706D01*
Y317547D01*
G02X193454Y317744I400J0D01*
G03Y321155I3003J1705D01*
G02X192706Y321352I-348J197D01*
G01Y322850D01*
X191979Y323655D01*
X199646Y331322D01*
X200493Y330476D01*
G02X200253Y329795I-283J-283D01*
G03X202512Y327536I220J-2039D01*
G02X203192Y327776I398J-43D01*
G01X205181Y325788D01*
X207577D01*
X227993Y346204D01*
Y347616D01*
X227301Y348308D01*
X227262D01*
X225462Y350107D01*
G03X222754Y353019I-1722J1114D01*
G01X222623Y352947D01*
X222301Y353268D01*
X224844Y355811D01*
X226677Y353977D01*
X229056Y356355D01*
X227222Y358189D01*
X230419Y361386D01*
X230852Y360996D01*
X256300D01*
Y281540D01*
G03X255405Y277644I0J-2051D01*
G01Y268308D01*
X253100D01*
Y270954D01*
X249736D01*
Y268308D01*
X226553D01*
X226474Y268386D01*
X225495D01*
X224607Y267498D01*
Y257127D01*
X209371D01*
G37*
G36*
G01X194568Y282391D02*
X194064Y282895D01*
X194049Y282934D01*
G03X193958Y283074I-374J-143D01*
G01X192706Y284326D01*
Y305996D01*
X199911D01*
Y307768D01*
X200394D01*
X204657Y303505D01*
Y297062D01*
X204213Y296618D01*
G02X203530Y296917I-283J282D01*
G03X200276Y300305I-3254J131D01*
G01X197127D01*
G03Y293791I0J-3257D01*
G01X200276D01*
G03X200545Y293802I2J3257D01*
G02X200860Y293121I32J-398D01*
G01X199805Y292065D01*
X199692Y292097D01*
G03X197117Y285295I-990J-3513D01*
G02X197319Y284797I-174J-360D01*
G03X197323Y284511I376J-138D01*
G02X197125Y284002I-371J-149D01*
G03X195462Y282391I1577J-3292D01*
G01X194568D01*
G37*
G36*
G01X222025Y213730D02*
X209890Y225864D01*
G02X210173Y226547I283J283D01*
G01X215482D01*
Y229911D01*
X214694D01*
Y231520D01*
X214734Y231559D01*
Y234244D01*
X218063D01*
Y227116D01*
X217275D01*
Y223752D01*
X224379D01*
Y227116D01*
X219852D01*
Y234244D01*
X222805D01*
Y236820D01*
X219852D01*
Y237832D01*
X218414Y239270D01*
G02X218697Y239953I283J283D01*
G01X222805D01*
Y242529D01*
X222411D01*
Y243134D01*
X223179Y243902D01*
Y245793D01*
G03X223931Y248861I-895J1845D01*
G02X224251Y249500I321J239D01*
G01X228234D01*
G03X230641Y248422I1845J894D01*
G01X230755Y248454D01*
X231586Y247622D01*
Y244201D01*
X231558Y244153D01*
G03X231468Y243830I539J-324D01*
G01Y240895D01*
G03X231471Y240835I629J1D01*
G02X231253Y240616I-199J-20D01*
G03X231192Y240620I-72J-624D01*
G01X228258D01*
G03X227630Y239992I1J-629D01*
G01Y239222D01*
G03X227748Y238856I628J1D01*
G02Y238389I-325J-233D01*
G03X227630Y238023I510J-367D01*
G01Y237254D01*
G03X227748Y236888I628J1D01*
G02Y236421I-325J-233D01*
G03X227630Y236055I510J-367D01*
G01Y235285D01*
G03X227748Y234919I628J1D01*
G02Y234452I-325J-233D01*
G03X227630Y234086I510J-367D01*
G01Y233317D01*
G03X227748Y232951I628J1D01*
G02Y232484I-325J-233D01*
G03X227630Y232118I510J-367D01*
G01Y231348D01*
G03X227748Y230982I628J1D01*
G02Y230515I-325J-233D01*
G03X227630Y230149I510J-367D01*
G01Y229380D01*
G03X228258Y228752I628J0D01*
G01X231192D01*
G03X231253Y228755I0J628D01*
G02X231471Y228536I19J-199D01*
G03X231468Y228476I626J-61D01*
G01Y225541D01*
G03X232096Y224913I629J1D01*
G01X232866D01*
G03X233018Y224932I-1J629D01*
G02X233516Y224544I98J-388D01*
G01Y223161D01*
G03X232397Y220660I894J-1901D01*
G01X232431Y220546D01*
X232157Y220273D01*
Y217352D01*
X227630D01*
Y213730D01*
X222025D01*
G37*
G36*
G01X234734D02*
Y217352D01*
X233946D01*
Y218760D01*
G02X234357Y219160I400J0D01*
G03X235305Y223161I53J2100D01*
G01Y224110D01*
X235344Y224150D01*
Y224555D01*
G02X235857Y224939I400J0D01*
G03X236033Y224913I179J602D01*
G01X236803D01*
G03X236979Y224939I-3J628D01*
G02X237492Y224555I113J-384D01*
G01Y218811D01*
X238308Y217995D01*
G02X238181Y217344I-283J-283D01*
G01Y213730D01*
X234734D01*
G37*
G36*
G01X256722Y238946D02*
X253358D01*
Y234419D01*
X252259D01*
G03Y232630I-1845J-895D01*
G01X253358D01*
Y231842D01*
X253399D01*
Y231566D01*
G02X251219Y230581I-2197J1958D01*
G01X251207D01*
G02X247484Y230610I-2J238672D01*
G02X247139Y231141I33J399D01*
G03X247175Y231348I-593J210D01*
G01Y232118D01*
G03X247057Y232484I-629J-1D01*
G02Y232951I325J234D01*
G03X247175Y233317I-511J367D01*
G01Y234086D01*
G03X247057Y234452I-629J-1D01*
G02Y234919I325J233D01*
G03X247175Y235285I-511J367D01*
G01Y236055D01*
G03X247057Y236421I-629J-1D01*
G02Y236888I325J234D01*
G03X247175Y237254I-511J367D01*
G01Y238023D01*
G03X247057Y238389I-629J-1D01*
G02Y238856I325J233D01*
G03X247175Y239222I-511J367D01*
G01Y239992D01*
G03X246547Y240620I-629J-1D01*
G01X243612D01*
G03X243551Y240616I11J-628D01*
G02X243333Y240835I-19J199D01*
G03X243336Y240895I-625J61D01*
G01Y243830D01*
G03X242708Y244458I-628J0D01*
G01X241939D01*
G03X241854Y244452I2J-628D01*
G02X241403Y244897I-54J396D01*
G02X244950Y254283I20896J-2534D01*
G01X246761D01*
Y261387D01*
X243397D01*
Y255182D01*
X243363Y255131D01*
G03X239583Y244729I18936J-12769D01*
G02X239024Y244405I-398J42D01*
G03X238771Y244458I-253J-576D01*
G01X238002D01*
G03X237636Y244340I1J-628D01*
G02X237169I-233J325D01*
G03X236803Y244458I-367J-511D01*
G01X236033D01*
G03X235857Y244432I3J-628D01*
G02X235344Y244816I-113J384D01*
G01Y247977D01*
X235782Y248415D01*
X235895Y248382D01*
G03X238430Y250917I562J1973D01*
G01X238397Y251030D01*
X240777Y253410D01*
Y254362D01*
X241564D01*
Y261466D01*
X238201D01*
Y260679D01*
X237817D01*
X235982Y260718D01*
X235580D01*
Y261505D01*
X234793D01*
Y262289D01*
G03X235575Y265315I-895J1845D01*
G02X235902Y265945I327J230D01*
G01X249736D01*
Y263850D01*
X253100D01*
Y265945D01*
X255405D01*
Y241166D01*
X261056Y235515D01*
G02X260773Y234832I-283J-283D01*
G01X260299D01*
X257405Y231937D01*
G02X256722Y232220I-283J283D01*
G01Y238946D01*
G37*
G36*
G01X245285Y213730D02*
Y217312D01*
X240757D01*
Y218076D01*
X239281Y219552D01*
Y224555D01*
G02X239794Y224939I400J0D01*
G03X239970Y224913I179J602D01*
G01X240740D01*
G03X241106Y225031I-1J629D01*
G02X241573I233J-325D01*
G03X241587Y225021I372J506D01*
G01X241603Y225010D01*
X242453Y224161D01*
Y223936D01*
X242350Y223879D01*
G03X244242Y223932I997J-1792D01*
G01Y224902D01*
X243336Y225807D01*
Y228476D01*
G03X243333Y228536I-628J-1D01*
G02X243551Y228755I199J20D01*
G03X243612Y228752I61J625D01*
G01X246547D01*
G03X246851Y228831I-1J628D01*
G03X251221Y228791I4386J240421D01*
G01X251226D01*
G03X255625Y231842I-25J4733D01*
G01X256344D01*
G02X256627Y231160I0J-400D01*
G01X250327Y224859D01*
Y218166D01*
X245890Y213730D01*
X245285D01*
G37*
G36*
G01X255799Y226623D02*
Y223289D01*
G02X255190Y222948I-400J0D01*
G03X252777Y222755I-1075J-1747D01*
G02X252116Y223058I-261J303D01*
G01Y224118D01*
X261040Y233043D01*
X268421D01*
G02X268798Y232508I0J-400D01*
G03X268752Y232245I730J-263D01*
G01Y231694D01*
G03X268798Y231431I776J0D01*
G02X268421Y230895I-376J-136D01*
G01X265389D01*
G03X265316Y228968I-1845J-895D01*
G01X265373Y229067D01*
X265438D01*
X265477Y229106D01*
X268421D01*
G02X268798Y228571I0J-400D01*
G03X268752Y228308I730J-263D01*
G01Y227757D01*
G03X268908Y227289I776J-1D01*
G02Y226807I-319J-241D01*
G03X268752Y226339I620J-467D01*
G01Y225788D01*
G03X268798Y225525I776J0D01*
G02X268421Y224990I-376J-135D01*
G01X262079D01*
X259845Y222756D01*
G02X259163Y223039I-282J283D01*
G01Y226623D01*
X255799D01*
G37*
G36*
G01X262300Y236801D02*
X257194Y241907D01*
Y265945D01*
X258088D01*
X258780Y266637D01*
Y267616D01*
X258662Y267734D01*
Y360996D01*
X322850D01*
X323221Y361331D01*
X331401Y353150D01*
X331047Y352797D01*
G02X330370Y353014I-283J283D01*
G03X328011Y350655I-2023J-336D01*
G02X328228Y349977I-66J-395D01*
G01X326165Y347914D01*
X325968D01*
X325276Y347222D01*
Y346244D01*
X339419Y332101D01*
G02X339136Y331418I-283J-283D01*
G01X322234D01*
Y333946D01*
X321840D01*
Y334634D01*
X321919Y334713D01*
Y336907D01*
G03X319342I-1289J1595D01*
G01Y335780D01*
X319264Y335701D01*
Y333946D01*
X318870D01*
Y331418D01*
X300523D01*
G02X300307Y332155I0J400D01*
G01X303699Y334333D01*
X303811Y334239D01*
G03X302693Y335980I2214J2651D01*
G01X302732Y335838D01*
X297366Y332391D01*
X291219D01*
G02X291027Y333142I0J400D01*
G01X293523Y334505D01*
X293629Y334403D01*
G03X292636Y336219I2394J2489D01*
G01X292665Y336075D01*
X288443Y333769D01*
X288018D01*
Y334069D01*
X288098Y334129D01*
G03X283579Y334451I-2074J2761D01*
G02X283296Y333769I-283J-282D01*
G01X279478D01*
Y340693D01*
X285263D01*
X285757Y341187D01*
X291782D01*
X294337Y343742D01*
G03X293002Y345134I1726J2991D01*
G01X293070Y345005D01*
X291042Y342976D01*
X287956D01*
G02X287759Y343724I0J400D01*
G03X288642Y349031I-1695J3009D01*
G02X288940Y349697I299J266D01*
G01X290450D01*
X294337Y353584D01*
G03X293002Y354977I1727J2991D01*
G01X293070Y354847D01*
X289709Y351486D01*
X283205D01*
G02X282921Y352168I-1J400D01*
G01X284335Y353582D01*
X284465Y353514D01*
G03X283002Y354977I1598J3061D01*
G01X283070Y354847D01*
X281504Y353281D01*
X278608D01*
G02X278344Y353981I0J400D01*
G03X273784I-2280J2594D01*
G02X273520Y353281I-264J-300D01*
G01X265402D01*
X261470Y349349D01*
Y244372D01*
X261294Y244196D01*
X261180Y244228D01*
G03X262603Y241738I-561J-1972D01*
G02X263273Y241920I387J-101D01*
G01X266244Y238949D01*
X268421D01*
G02X268798Y238413I0J-400D01*
G03X268752Y238150I730J-263D01*
G01Y237599D01*
G03X268798Y237336I776J0D01*
G02X268421Y236801I-376J-135D01*
G01X262300D01*
G37*
G36*
G01X335054Y186586D02*
G03X331659Y188230I-2101J-11D01*
G01X331609Y188191D01*
X328048Y188010D01*
X322850Y192706D01*
X279220D01*
G02X278925Y193376I0J400D01*
G03X277413Y199004I-2546J2333D01*
G01X277273Y199048D01*
Y200457D01*
X278848Y202032D01*
Y212387D01*
G02X279531Y212670I400J0D01*
G01X280021Y212179D01*
X280010Y212084D01*
G03X280821Y210208I2038J-232D01*
G02X280827Y209571I-239J-321D01*
G03X280905Y206278I1260J-1618D01*
G02X280911Y205629I-231J-327D01*
G03X283972Y203082I1216J-1652D01*
G01X284966D01*
X285005Y203122D01*
X287221D01*
X290156Y206056D01*
G02X290838Y205773I282J-283D01*
G01Y203560D01*
X289022Y201744D01*
X288909Y201776D01*
G03X290320Y200366I-561J-1973D01*
G01X290287Y200479D01*
X292627Y202819D01*
Y206927D01*
G02X293247Y207262I400J0D01*
G03X296415Y209144I1124J1715D01*
G01X296407Y209236D01*
X296564Y209394D01*
Y214563D01*
G02X297100Y214940I400J0D01*
G03X297363Y214894I263J730D01*
G01X297914D01*
G03X298177Y214940I0J776D01*
G02X298712Y214563I135J-377D01*
G01Y206803D01*
X299765Y205751D01*
G02X299482Y205068I-283J-283D01*
G01X295897D01*
Y201705D01*
X300425D01*
Y201118D01*
G03X302214I895J-1846D01*
G01Y201705D01*
X303001D01*
Y202492D01*
X303361D01*
X305471Y202334D01*
X305897D01*
Y201547D01*
X306685D01*
Y199084D01*
X305897D01*
Y195720D01*
X313001D01*
Y196468D01*
X314697D01*
Y195287D01*
X318848D01*
Y199438D01*
X314697D01*
Y198257D01*
X313804D01*
X313765Y198297D01*
X313001D01*
Y199084D01*
X308474D01*
Y201547D01*
X313001D01*
Y202334D01*
X313765D01*
X313784Y202354D01*
X314697D01*
Y201173D01*
X318848D01*
Y204848D01*
G02X319531Y205131I400J0D01*
G01X320602Y204059D01*
Y201173D01*
X324753D01*
Y205508D01*
G02X325095Y205649I200J0D01*
G01X325484Y205260D01*
Y198966D01*
X325095Y198576D01*
G02X324753Y198718I-142J141D01*
G01Y199438D01*
X320602D01*
Y195287D01*
X324753D01*
Y196468D01*
X325517D01*
X327273Y198225D01*
Y206001D01*
X325489Y207785D01*
X322970D01*
X321249Y209505D01*
Y225529D01*
X317851Y228927D01*
X309139D01*
G02X308762Y229462I0J400D01*
G03X308808Y229725I-730J263D01*
G01Y230276D01*
G03X308762Y230539I-776J0D01*
G02X309139Y231075I377J136D01*
G01X339520D01*
Y230462D01*
X334992D01*
Y227098D01*
X342096D01*
Y230462D01*
X341308D01*
Y231075D01*
X343287D01*
X344281Y232069D01*
Y232689D01*
X346249D01*
Y241564D01*
X340523D01*
Y232864D01*
X337588D01*
Y241564D01*
X331862D01*
Y232864D01*
X329976D01*
G02X329693Y233546I0J400D01*
G01X331013Y234866D01*
Y249973D01*
X331179Y250139D01*
G02X331862Y249856I283J-283D01*
G01Y247256D01*
X337588D01*
Y256131D01*
X335620D01*
Y257091D01*
X336572Y258043D01*
X342411D01*
Y261407D01*
X335307D01*
Y259308D01*
X333831Y257832D01*
Y256131D01*
X331862D01*
Y252588D01*
X331099D01*
X329224Y250714D01*
Y235607D01*
X328449Y234832D01*
X309139D01*
G02X308762Y235368I0J400D01*
G03X308808Y235631I-730J263D01*
G01Y236182D01*
G03X308652Y236649I-776J0D01*
G02Y237131I319J241D01*
G03X308808Y237599I-620J467D01*
G01Y238150D01*
G03X308762Y238413I-776J0D01*
G02X309139Y238949I377J136D01*
G01X315757D01*
X316770Y239962D01*
G02X317453Y239679I283J-283D01*
G01Y236685D01*
X320816D01*
Y241212D01*
X322216D01*
Y236685D01*
X325580D01*
Y243789D01*
X324793D01*
Y244336D01*
G03X323004I-894J1846D01*
G01Y243789D01*
X322216D01*
Y243001D01*
X320816D01*
Y243789D01*
X317453D01*
Y243001D01*
X317280D01*
X315016Y240738D01*
X309139D01*
G02X308762Y241273I0J400D01*
G03X308808Y241536I-730J263D01*
G01Y242087D01*
G03X308652Y242555I-776J1D01*
G02Y243037I319J241D01*
G03X308808Y243505I-620J467D01*
G01Y244056D01*
G03X308762Y244319I-776J0D01*
G02X309139Y244854I377J135D01*
G01X309572D01*
X330517Y265799D01*
X345378D01*
X350366Y260811D01*
Y238882D01*
X356104Y233144D01*
G03X357497Y234479I2991J-1726D01*
G01X357367Y234411D01*
X352155Y239623D01*
Y261552D01*
X346119Y267588D01*
X329776D01*
X308831Y246643D01*
X308505D01*
X308455Y246675D01*
G03X308032Y246801I-424J-650D01*
G01X302442D01*
G03X301665Y246024I0J-777D01*
G01Y245473D01*
G03X301711Y245210I776J0D01*
G02X301335Y244675I-376J-135D01*
G01X296334D01*
G03Y242886I-1845J-895D01*
G01X301335D01*
G02X301711Y242350I0J-400D01*
G03X301665Y242087I730J-263D01*
G01Y241536D01*
G03X301822Y241068I776J0D01*
G02Y240586I-319J-241D01*
G03X301665Y240119I619J-468D01*
G01Y239568D01*
G03X301822Y239100I776J0D01*
G02Y238618I-319J-241D01*
G03X301665Y238150I619J-468D01*
G01Y237599D01*
G03X301711Y237336I776J0D01*
G02X301335Y236801I-376J-135D01*
G01X299011D01*
G03Y235012I-1845J-895D01*
G01X301335D01*
G02X301711Y234476I0J-400D01*
G03X301665Y234213I730J-263D01*
G01Y233662D01*
G03X301822Y233194I776J0D01*
G02Y232712I-319J-241D01*
G03X301665Y232245I619J-468D01*
G01Y231694D01*
G03X301822Y231226I776J0D01*
G02Y230744I-319J-241D01*
G03X301665Y230276I619J-468D01*
G01Y229725D01*
G03X301822Y229257I776J0D01*
G02Y228775I-319J-241D01*
G03X301665Y228308I619J-468D01*
G01Y227757D01*
G03X301822Y227289I776J0D01*
G02Y226807I-319J-241D01*
G03X301665Y226339I619J-468D01*
G01Y225788D01*
G03X301822Y225320I776J0D01*
G02Y224838I-319J-241D01*
G03X301665Y224371I619J-468D01*
G01Y223820D01*
G03X302442Y223043I776J-1D01*
G01X308032D01*
G03X308455Y223168I1J776D01*
G01X308505Y223201D01*
X309276D01*
X310268Y222209D01*
Y218769D01*
X309480D01*
Y217982D01*
X308459D01*
G03X308536Y216193I-1805J-974D01*
G01X309480D01*
Y215405D01*
X316584D01*
Y218769D01*
X312057D01*
Y222950D01*
X310520Y224486D01*
G02X310803Y225169I283J283D01*
G01X317031D01*
X317768Y224433D01*
Y206894D01*
X318655Y206007D01*
G02X318371Y205324I-283J-283D01*
G01X314697D01*
Y204143D01*
X313001D01*
Y204911D01*
X305897D01*
Y204123D01*
X305538D01*
X303428Y204281D01*
X303001D01*
Y205068D01*
X302214D01*
Y205832D01*
X300501Y207544D01*
Y215197D01*
X300534Y215247D01*
G03X300659Y215670I-651J422D01*
G01Y221260D01*
G03X299882Y222037I-776J1D01*
G01X299331D01*
G03X298864Y221880I1J-776D01*
G02X298382I-241J319D01*
G03X297914Y222037I-468J-619D01*
G01X297363D01*
G03X296895Y221880I0J-776D01*
G02X296413I-241J319D01*
G03X295945Y222037I-468J-619D01*
G01X295394D01*
G03X294927Y221880I1J-776D01*
G02X294445I-241J319D01*
G03X293977Y222037I-468J-619D01*
G01X293426D01*
G03X292958Y221880I0J-776D01*
G02X292476I-241J319D01*
G03X292008Y222037I-468J-619D01*
G01X291457D01*
G03X290990Y221880I1J-776D01*
G02X290508I-241J319D01*
G03X290040Y222037I-468J-619D01*
G01X289489D01*
G03X289021Y221880I0J-776D01*
G02X288539I-241J319D01*
G03X288071Y222037I-468J-619D01*
G01X287520D01*
G03X287053Y221880I1J-776D01*
G02X286571I-241J319D01*
G03X286103Y222037I-468J-619D01*
G01X285552D01*
G03X285084Y221880I0J-776D01*
G02X284602I-241J319D01*
G03X284134Y222037I-468J-619D01*
G01X283583D01*
G03X283320Y221991I0J-776D01*
G02X282785Y222367I-135J376D01*
G01Y241945D01*
X277067Y247664D01*
X277297Y247895D01*
X277417Y247852D01*
G03X277678Y247807I260J731D01*
G01X278229D01*
G03X278697Y247964I0J776D01*
G02X279179I241J-320D01*
G03X279646Y247807I468J619D01*
G01X280197D01*
G03X280665Y247964I0J776D01*
G02X281147I241J-320D01*
G03X281615Y247807I468J619D01*
G01X282166D01*
G03X282634Y247964I0J776D01*
G02X283116I241J-320D01*
G03X283583Y247807I468J619D01*
G01X283633D01*
G02X283984Y247215I0J-400D01*
G03X287671I1844J-1007D01*
G02X288022Y247807I351J192D01*
G01X288071D01*
G03X288539Y247964I0J776D01*
G02X289021I241J-320D01*
G03X289489Y247807I468J619D01*
G01X290040D01*
G03X290508Y247964I0J776D01*
G02X290990I241J-320D01*
G03X291457Y247807I468J619D01*
G01X292008D01*
G03X292476Y247964I0J776D01*
G02X292958I241J-320D01*
G03X293426Y247807I468J619D01*
G01X293977D01*
G03X294445Y247964I0J776D01*
G02X294927I241J-320D01*
G03X295394Y247807I468J619D01*
G01X295945D01*
G03X296413Y247964I0J776D01*
G02X296895I241J-320D01*
G03X297363Y247807I468J619D01*
G01X297914D01*
G03X298382Y247964I0J776D01*
G02X298864I241J-320D01*
G03X299331Y247807I468J619D01*
G01X299882D01*
G03X300659Y248583I1J776D01*
G01Y250484D01*
X310292D01*
X328284Y268476D01*
X346047D01*
X352728Y261795D01*
Y246520D01*
X356104Y243144D01*
G03X357497Y244479I2991J-1726D01*
G01X357367Y244411D01*
X354517Y247261D01*
Y262536D01*
X346788Y270265D01*
X327544D01*
X309551Y252273D01*
X300659D01*
Y254174D01*
G03X299882Y254950I-776J0D01*
G01X299331D01*
G03X298977Y254865I-1J-776D01*
G01X298847Y254798D01*
X298603Y255043D01*
X304714Y261154D01*
Y270636D01*
G03X305619Y271497I-894J1846D01*
G01X363857D01*
Y231953D01*
X372176Y222744D01*
X352408Y202976D01*
G03X350726Y201294I8587J-10269D01*
G01X335737Y186305D01*
G02X335054Y186586I-283J283D01*
G37*
G36*
G01X278848Y262410D02*
X277205Y264053D01*
G02X277488Y264736I283J283D01*
G01X280996D01*
Y255281D01*
G02X280460Y254904I-400J-1D01*
G03X280197Y254950I-263J-730D01*
G01X279646D01*
G03X279383Y254904I0J-776D01*
G02X278848Y255281I-135J377D01*
G01Y262410D01*
G37*
G36*
G01X276758Y247972D02*
X275725Y249005D01*
X272920D01*
X269785Y252140D01*
Y264308D01*
G02X270399Y264646I400J0D01*
G03X273361Y265523I1098J1732D01*
G01X273968D01*
Y264736D01*
X274756D01*
Y263973D01*
X277059Y261670D01*
Y254646D01*
X277027Y254597D01*
G03X276901Y254174I650J-424D01*
G01Y248583D01*
G03X276947Y248322I776J2D01*
G01X276989Y248203D01*
X276758Y247972D01*
G37*
G36*
G01X335832Y310422D02*
X335836Y313358D01*
X336623D01*
Y316722D01*
X329520D01*
Y315962D01*
G03X327253Y315986I-4502J-318218D01*
G01Y317568D01*
X322905D01*
Y312630D01*
X327253D01*
Y314195D01*
X327455D01*
G02X329520Y314173I-2339J-316452D01*
G01Y313358D01*
X334044D01*
X334040Y310426D01*
X334031Y307490D01*
X333240D01*
Y300386D01*
X336604D01*
Y304303D01*
X337047D01*
Y273859D01*
X305338D01*
G03X302301I-1518J-1378D01*
G01X280714D01*
X274410Y280163D01*
Y306131D01*
G02X275034Y306462I400J0D01*
G03X275287Y306317I1144J1702D01*
G01Y299906D01*
X277563Y297630D01*
X283745D01*
X283755Y297621D01*
X286541D01*
X286550Y297630D01*
X293388D01*
G02X293653Y296930I0J-400D01*
G03X296944Y294460I1390J-1575D01*
G01X298725D01*
X299871Y295607D01*
Y296012D01*
G02X300384Y296395I400J-1D01*
G03X300561Y296370I176J604D01*
G01X301330D01*
G03X301540Y296406I0J629D01*
G01X301659Y296448D01*
X301890Y296218D01*
X299559Y293887D01*
X297150D01*
X294539Y291277D01*
Y281623D01*
X293218D01*
Y286151D01*
X289854D01*
Y279047D01*
X293218D01*
Y279834D01*
X295434D01*
G03X295603Y279851I-5J895D01*
G01X295621Y279854D01*
X297925D01*
Y277886D01*
X304438D01*
Y283612D01*
X297925D01*
Y281643D01*
X296328D01*
Y290536D01*
X297891Y292098D01*
X300300D01*
X303898Y295696D01*
X308949Y290646D01*
Y290305D01*
X306586D01*
Y284579D01*
X313100D01*
Y286547D01*
X314387D01*
Y286606D01*
X316783D01*
Y282079D01*
X320147D01*
Y289182D01*
X316783D01*
Y288395D01*
X313100D01*
Y290305D01*
X310738D01*
Y291387D01*
X305777Y296347D01*
Y296627D01*
X305805Y296675D01*
G03X305895Y296998I-538J324D01*
G01Y300051D01*
G03X305894Y300095I-629J8D01*
G02X306292Y300523I399J28D01*
G01X306564D01*
Y300795D01*
G02X306993Y301194I400J0D01*
G03X307037Y301193I36J627D01*
G01X310090D01*
G03X310148Y301195I7J628D01*
G02X313180Y299924I-1584J-8030D01*
G03X322630Y295282I20901J30610D01*
G01Y293063D01*
X326978D01*
Y293744D01*
G02X327537Y294110I400J-1D01*
G02X328850Y293360I-2733J-6309D01*
G01Y291311D01*
X329677D01*
Y289557D01*
X328850D01*
Y286193D01*
X335954D01*
Y289557D01*
X331387D01*
Y291311D01*
X335954D01*
Y294675D01*
X329949D01*
G03X326978Y296107I-5144J-6874D01*
G01Y298001D01*
X322630D01*
Y297649D01*
G02X322094Y297273I-400J0D01*
G02X317260Y299437I11988J33260D01*
G02X317450Y300189I190J352D01*
G01X320521D01*
Y301194D01*
G02X320974Y301590I400J0D01*
G02X322630Y301299I-2627J-19807D01*
G01Y299165D01*
X326978D01*
Y304104D01*
X322630D01*
Y303610D01*
G02X322160Y303216I-400J0D01*
G03X320699Y303425I-3812J-21433D01*
G01X320521Y303444D01*
Y305127D01*
X316173D01*
Y304686D01*
G02X315687Y304295I-400J0D01*
G03X313897Y304638I-7146J-32449D01*
G02X313885Y305425I64J395D01*
G03X316393Y306270I-1857J9657D01*
G01X316434Y306291D01*
X320521D01*
Y307866D01*
X322905D01*
Y306527D01*
X327253D01*
Y311466D01*
X322905D01*
Y309655D01*
X320521D01*
Y311230D01*
X316173D01*
Y308188D01*
G02X312026Y307037I-4147J6894D01*
G01X311076D01*
G02X310692Y307549I0J400D01*
G03X310718Y307726I-602J179D01*
G01Y308495D01*
G03X310600Y308862I-629J0D01*
G02Y309329I325J233D01*
G03X310718Y309695I-510J367D01*
G01Y309827D01*
X311220Y310329D01*
X312539D01*
X314582Y312372D01*
X314696Y312338D01*
G03X316584Y316010I599J2013D01*
G01Y316901D01*
X316978D01*
Y320265D01*
X316584D01*
Y321350D01*
X316978D01*
Y324714D01*
X316584D01*
Y325760D01*
X316978D01*
Y327236D01*
X318870D01*
Y326842D01*
X322234D01*
Y329056D01*
X342464D01*
X345889Y325631D01*
X347734D01*
X354194Y332090D01*
X364179Y322105D01*
X363857Y321749D01*
Y321143D01*
X337047D01*
Y307273D01*
X336604D01*
Y307490D01*
X335823D01*
X335832Y310422D01*
G37*
G36*
G01X273323Y267312D02*
G03X270399Y268111I-1826J-933D01*
G02X269785Y268449I-214J338D01*
G01Y279048D01*
G02X270468Y279331I400J0D01*
G01X272048Y277751D01*
Y271497D01*
X278302D01*
X280996Y268803D01*
Y268100D01*
X273968D01*
Y267312D01*
X273323D01*
G37*
G36*
G01X289059Y309005D02*
X285358Y312706D01*
X278027D01*
G03X275034Y313511I-1845J-894D01*
G02X274410Y313843I-224J332D01*
G01Y329056D01*
X309874D01*
Y325760D01*
X314008D01*
Y324714D01*
X309874D01*
Y321350D01*
X314008D01*
Y320265D01*
X309874D01*
Y316901D01*
X314008D01*
Y316010D01*
G03X313282Y313751I1288J-1660D01*
G01X313317Y313637D01*
X311798Y312118D01*
X310479D01*
X309453Y311092D01*
X307037D01*
G03X306993Y311090I7J-628D01*
G02X306564Y311489I-29J399D01*
G01Y311761D01*
X306292D01*
G02X305894Y312190I1J400D01*
G03X305895Y312234I-628J36D01*
G01Y315287D01*
G03X305805Y315610I-628J-1D01*
G01X305777Y315657D01*
Y315937D01*
X306761Y316921D01*
Y320996D01*
X307549D01*
Y328100D01*
X304185D01*
Y320996D01*
X304972D01*
Y317662D01*
X303988Y316678D01*
Y316273D01*
G02X303475Y315889I-400J0D01*
G03X303299Y315915I-179J-602D01*
G01X302529D01*
G03X302353Y315889I3J-628D01*
G02X301840Y316273I-113J384D01*
G01Y320305D01*
G03X300051I-895J1900D01*
G01Y319985D01*
G02X299710Y319844I-200J1D01*
G01X295797Y323757D01*
Y325856D01*
X288693D01*
Y322492D01*
X294532D01*
X298082Y318941D01*
Y316273D01*
G02X297570Y315889I-400J0D01*
G03X297393Y315915I-179J-602D01*
G01X296624D01*
G03X295996Y315287I1J-629D01*
G01Y312234D01*
G03X295997Y312190I629J-8D01*
G02X295599Y311761I-399J-29D01*
G01X295327D01*
Y311489D01*
G02X294898Y311090I-400J0D01*
G03X294854Y311092I-51J-626D01*
G01X292438D01*
X291936Y311594D01*
Y311747D01*
X289850Y313833D01*
X289882Y313946D01*
G03X288472Y312536I-1972J562D01*
G01X288585Y312568D01*
X290147Y311006D01*
Y310853D01*
X291173Y309827D01*
Y309695D01*
G03X291199Y309518I628J2D01*
G02X290815Y309005I-384J-113D01*
G01X289059D01*
G37*
G36*
G01X466438Y118401D02*
G02X435301Y87264I-16359J-14778D01*
G01X333025Y179658D01*
G02X333010Y180238I268J297D01*
G01X346980Y194207D01*
G02X347661Y193889I283J-283D01*
G03X351530Y183242I13334J-1181D01*
G01X412775Y121996D01*
G03X431706Y140927I9466J9465D01*
G01X370460Y202172D01*
G03X359813Y206041I-9466J-9465D01*
G02X359495Y206722I-35J398D01*
G01X373464Y220692D01*
G02X374044Y220677I283J-283D01*
G01X415461Y174830D01*
G02X414882Y174279I-296J-268D01*
G01X414770Y174391D01*
X410686D01*
G03X406732Y176257I-3118J-1485D01*
G01X406622Y176230D01*
X405973Y176880D01*
Y177666D01*
X403242Y180398D01*
X400307Y183333D01*
X397928Y180955D01*
X399395Y179487D01*
X402609Y176273D01*
Y175486D01*
X404244Y173851D01*
X404216Y173742D01*
G03X410686Y171421I3351J-837D01*
G01X413540D01*
X414440Y170521D01*
X409755Y165835D01*
X414638Y160951D01*
X416031Y162343D01*
X416291Y162083D01*
Y160272D01*
X417828Y158734D01*
Y158688D01*
X418958Y157558D01*
X418819Y157418D01*
X419713Y156525D01*
Y153649D01*
X430355Y143007D01*
X434205D01*
X436769Y140443D01*
X440818Y144492D01*
X436769Y148541D01*
X434205Y145977D01*
X431584D01*
X429706Y147856D01*
X433580Y151730D01*
X429531Y155779D01*
X428557Y154804D01*
X428297Y155064D01*
Y157709D01*
X426082Y159924D01*
X426221Y160063D01*
X425328Y160957D01*
Y162869D01*
G02X426025Y163137I400J0D01*
G01X466438Y118401D01*
G37*
G36*
G01X337048Y306773D02*
X352008D01*
X352009Y308150D01*
X359882D01*
Y303426D01*
X352008D01*
Y304804D01*
X337048D01*
Y306773D01*
G37*
G36*
G01X366047Y324172D02*
G02X365467Y324158I-297J268D01*
G01X354703Y334922D01*
X353684D01*
X351634Y332871D01*
X349706Y334800D01*
X351033Y336127D01*
Y342173D01*
X347729Y345477D01*
X347717Y345536D01*
G03X345292Y343111I-2008J-417D01*
G01X345351Y343099D01*
X347670Y340780D01*
Y337521D01*
X347327Y337179D01*
X345379Y339127D01*
X341887Y335635D01*
X348142Y329380D01*
X346812Y328049D01*
X328226Y346634D01*
X329557Y347965D01*
X335635Y341887D01*
X339127Y345379D01*
X333049Y351457D01*
X334742Y353150D01*
X325273Y362619D01*
G02X325288Y363198I283J282D01*
G01X331262Y368594D01*
X340343D01*
X341913Y370164D01*
X341975Y370175D01*
G03X339545Y372605I-360J2070D01*
G01X339534Y372543D01*
X338949Y371958D01*
X331755D01*
G02X331487Y372655I0J400D01*
G01X435301Y466438D01*
G02X466438Y435301I14778J-16359D01*
G01X438951Y404874D01*
G02X438254Y405142I-297J268D01*
G01Y406646D01*
X440818Y409210D01*
X436769Y413259D01*
X432720Y409210D01*
X435284Y406646D01*
Y404496D01*
X433560Y402587D01*
G02X432980Y402573I-297J268D01*
G01X429531Y406021D01*
X425482Y401972D01*
X426457Y400998D01*
X426197Y400738D01*
X423552D01*
X421337Y398523D01*
X421198Y398662D01*
X418819Y396284D01*
X418958Y396144D01*
X418698Y395884D01*
X415781D01*
G02X415498Y396567I0J400D01*
G01X431706Y412775D01*
G03X412775Y431706I-9466J9466D01*
G01X351530Y370460D01*
G03X370460Y351530I9465J-9465D01*
G01X405006Y386075D01*
G02X405689Y385792I283J-283D01*
G01Y381552D01*
G03X403881Y377393I1485J-3118D01*
G01X403918Y377277D01*
X403314Y376674D01*
X402133D01*
X401003Y375544D01*
X400863Y375683D01*
X397928Y372747D01*
X400307Y370369D01*
X403242Y373304D01*
X403103Y373444D01*
X403363Y373704D01*
X404544D01*
X406018Y375177D01*
X406133Y375141D01*
G03X408659Y381552I1041J3293D01*
G01Y386086D01*
X415486Y392914D01*
X418588D01*
G02X418871Y392231I0J-400D01*
G01X415637Y388997D01*
X414245Y390388D01*
X409361Y385505D01*
X414245Y380621D01*
X419129Y385505D01*
X417737Y386897D01*
X421109Y390269D01*
X422573D01*
X423703Y391399D01*
X423843Y391260D01*
X424736Y392154D01*
X426560D01*
G02X426856Y391486I-1J-400D01*
G01X366047Y324172D01*
G37*
G36*
G01X352008Y286497D02*
X359882D01*
Y281772D01*
X352008D01*
Y286497D01*
G37*
%LPC*%
G75*
G36*
G01X158753Y189223D02*
X155818Y186288D01*
X153439Y188666D01*
X156374Y191602D01*
X158753Y189223D01*
G37*
G36*
G01X215344Y359052D02*
X215269Y359073D01*
X214545Y358349D01*
X214534D01*
X214401Y358216D01*
X214368Y358138D01*
X215434Y357071D01*
X209158Y350795D01*
X205666Y354287D01*
X211942Y360563D01*
X213031Y359474D01*
X213764Y360208D01*
X213775D01*
X213955Y360387D01*
X213934Y360462D01*
G02X215344Y359052I1972J562D01*
G37*
G36*
G01X158729Y370325D02*
X161107Y372704D01*
X164043Y369769D01*
X161664Y367390D01*
X158729Y370325D01*
G37*
G36*
G01X140927Y431706D02*
X202172Y370460D01*
G02X183242Y351530I-9465J-9465D01*
G01X121996Y412775D01*
G02X140927Y431706I9465J9466D01*
G37*
G36*
G01X203739Y347233D02*
X203637Y347251D01*
X203301Y346916D01*
Y346887D01*
X201932Y345518D01*
X202907Y344544D01*
X196631Y338268D01*
X193139Y341760D01*
X199415Y348036D01*
X200389Y347062D01*
X201119Y347791D01*
Y347820D01*
X202094Y348794D01*
X202075Y348897D01*
G02X203739Y347233I2020J356D01*
G37*
G36*
G01X180548Y342216D02*
X180580Y342329D01*
X177748Y345162D01*
G02X173614Y348054I-1291J2555D01*
G01X173631Y348191D01*
X166309Y352034D01*
X165935Y352408D01*
X165378Y351851D01*
X160355Y356874D01*
X160912Y357431D01*
X160586Y357757D01*
X157161Y362427D01*
X156931Y362657D01*
X156374Y362100D01*
X153439Y365036D01*
X155818Y367414D01*
X158753Y364479D01*
X158196Y363922D01*
X158522Y363596D01*
X161947Y358925D01*
X162177Y358696D01*
X162733Y359253D01*
X163290Y358696D01*
X163577Y358983D01*
X166352Y361600D01*
X166620Y361869D01*
X166063Y362425D01*
X168442Y364804D01*
X173466Y359781D01*
X171087Y357402D01*
X167885Y360604D01*
X167598Y360317D01*
X164823Y357699D01*
X164555Y357431D01*
X167757Y354229D01*
X167200Y353673D01*
X167381Y353491D01*
X174462Y349775D01*
X174565Y349866D01*
G02X179013Y346427I1892J-2149D01*
G01X181845Y343594D01*
X181958Y343627D01*
G02X180548Y342216I563J-1972D01*
G37*
G36*
G01X215434Y196631D02*
X211942Y193139D01*
X205666Y199415D01*
X209158Y202907D01*
X215434Y196631D01*
G37*
G36*
G01X205539Y224343D02*
X211815Y218067D01*
X208323Y214575D01*
X202650Y220248D01*
X199206D01*
G02Y223612I-1174J1682D01*
G01X204808D01*
X205539Y224343D01*
G37*
G36*
G01X196631Y215434D02*
X202907Y209158D01*
X199415Y205666D01*
X193139Y211942D01*
X194238Y213042D01*
X193658Y213622D01*
X193543Y213588D01*
G02X194939Y215038I-589J1964D01*
G01X194910Y214928D01*
X195517Y214321D01*
X196631Y215434D01*
G37*
G36*
G01X224295Y203428D02*
X224995Y202728D01*
X225108Y202760D01*
G02X223697Y201350I561J-1973D01*
G01X223730Y201463D01*
X223554Y201639D01*
X223486D01*
X221964Y203161D01*
X220851Y202047D01*
X214575Y208323D01*
X218067Y211815D01*
X224343Y205539D01*
X223229Y204426D01*
X224227Y203428D01*
X224295D01*
G37*
G36*
G01X201029Y244933D02*
X200151D01*
X200107Y244793D01*
G02X200088Y246918I-3295J1033D01*
G01X200134Y246781D01*
X203555D01*
Y251308D01*
X206919D01*
Y250541D01*
X207840D01*
G02Y248752I1846J-894D01*
G01X206919D01*
Y244205D01*
X203555D01*
Y244992D01*
X201088D01*
X201029Y244933D01*
G37*
G36*
G01X251446Y316212D02*
X251249D01*
Y311290D01*
G02X248279I-1485J-1486D01*
G01Y316212D01*
X248082D01*
Y316803D01*
X247041D01*
X246470Y317374D01*
X243671D01*
Y316783D01*
X236567D01*
Y320147D01*
X237138D01*
Y323831D01*
X236153D01*
Y327982D01*
X240305D01*
Y323831D01*
X239320D01*
Y321208D01*
X239340Y321189D01*
Y320147D01*
X243671D01*
Y319557D01*
X247374D01*
X247400Y319531D01*
G03X248082Y319814I282J283D01*
G01Y323316D01*
X248279D01*
Y323866D01*
X248260Y323886D01*
Y325484D01*
X248063D01*
Y328848D01*
X248260D01*
Y330327D01*
X248063D01*
Y333690D01*
X248122D01*
Y335405D01*
X247138D01*
Y342312D01*
X252076D01*
Y335405D01*
X251092D01*
Y333690D01*
X255167D01*
Y330327D01*
X251230D01*
Y328848D01*
X255167D01*
Y325484D01*
X251230D01*
Y325116D01*
X251249Y325096D01*
Y323316D01*
X251446D01*
Y316212D01*
G37*
G36*
G01X360563Y211942D02*
X354287Y205666D01*
X350795Y209158D01*
X357071Y215434D01*
X360563Y211942D01*
G37*
G36*
G01X313946Y260523D02*
X308107D01*
X306486Y258902D01*
Y258677D01*
X306590Y258620D01*
G02X304697Y258673I-999J-1848D01*
G01Y259643D01*
X306842Y261788D01*
Y263887D01*
X313946D01*
Y260523D01*
G37*
G36*
G01X340872Y212295D02*
X327200D01*
G02Y214084I-1845J895D01*
G01X340131D01*
X343000Y216953D01*
X341887Y218067D01*
X348163Y224343D01*
X351655Y220851D01*
X345379Y214575D01*
X344265Y215688D01*
X340872Y212295D01*
G37*
G36*
G01X334163Y203359D02*
Y199678D01*
G02X330799I-1682J-1173D01*
G01Y204099D01*
X329359Y205539D01*
X335635Y211815D01*
X339127Y208323D01*
X334163Y203359D01*
G37*
G36*
G01X338043Y194296D02*
X338156Y194264D01*
X338332Y194440D01*
Y194468D01*
X339381Y195517D01*
X338268Y196631D01*
X344544Y202907D01*
X348036Y199415D01*
X341760Y193139D01*
X340646Y194252D01*
X340121Y193727D01*
Y193699D01*
X339421Y192999D01*
X339453Y192885D01*
G02X338043Y194296I-1973J-561D01*
G37*
G36*
G01X276311Y323169D02*
G02X278887I1288J1596D01*
G01Y321879D01*
X283238D01*
Y318516D01*
X276134D01*
Y321879D01*
X276311D01*
Y323169D01*
G37*
G36*
G01X394973Y183377D02*
X392595Y180998D01*
X389659Y183933D01*
X392038Y186312D01*
X394973Y183377D01*
G37*
G36*
G01X400263Y188666D02*
X397884Y186288D01*
X394949Y189223D01*
X395506Y189779D01*
X392037Y193248D01*
G02X391288Y194258I3028J3029D01*
G01X391274Y194284D01*
X391112Y194446D01*
X390842Y194177D01*
X388662Y191996D01*
G02X387848Y191368I-2849J2851D01*
G01X385811Y189331D01*
X380788Y194355D01*
X383166Y196733D01*
X386971Y192928D01*
G03X387396Y193261I-1160J1918D01*
G01X389578Y195442D01*
X389856Y195720D01*
X386654Y198921D01*
X387211Y199478D01*
X387025Y199664D01*
X379212Y203901D01*
X379108Y203811D01*
G02X374631Y207152I-1863J2174D01*
G01X374687Y207278D01*
X371778Y210186D01*
X371665Y210154D01*
G02X373075Y211565I-563J1972D01*
G01X373043Y211451D01*
X375954Y208540D01*
G02X380083Y205610I1291J-2555D01*
G01X380065Y205473D01*
X388106Y201113D01*
X388476Y200743D01*
X389032Y201300D01*
X394056Y196277D01*
X392871Y195092D01*
G03X393302Y194513I2195J1184D01*
G01X396771Y191044D01*
X397328Y191602D01*
X400263Y188666D01*
G37*
G36*
G01Y365036D02*
X397328Y362100D01*
X394949Y364479D01*
X397884Y367414D01*
X400263Y365036D01*
G37*
G36*
G01X360563Y341760D02*
X357071Y338268D01*
X350795Y344544D01*
X354287Y348036D01*
X360563Y341760D01*
G37*
G36*
G01X337048Y364197D02*
X337060Y364138D01*
X339865Y361334D01*
X339876D01*
X341203Y360007D01*
X341760Y360563D01*
X348036Y354287D01*
X344544Y350795D01*
X338268Y357071D01*
X338825Y357628D01*
X338482Y357970D01*
X338471D01*
X334682Y361760D01*
X334623Y361772D01*
G02X337048Y364197I417J2008D01*
G37*
G36*
G01X371429Y340636D02*
X371461Y340523D01*
G02X370051Y341934I-1973J-561D01*
G01X370164Y341901D01*
X374687Y346424D01*
X374631Y346550D01*
G02X377313Y350579I2614J1167D01*
G01X377451Y350576D01*
X380704Y358504D01*
X381108Y358909D01*
X380551Y359466D01*
X385575Y364489D01*
X386132Y363932D01*
X389259Y367059D01*
Y368255D01*
X390216Y369212D01*
X389659Y369769D01*
X392595Y372704D01*
X394973Y370325D01*
X392038Y367390D01*
X391481Y367947D01*
X391048Y367514D01*
Y366318D01*
X387397Y362667D01*
X387954Y362110D01*
X387397Y361554D01*
X387665Y361285D01*
X390401Y358707D01*
X390688Y358420D01*
X391244Y358977D01*
X393623Y356599D01*
X388599Y351575D01*
X386221Y353954D01*
X389423Y357155D01*
X389154Y357424D01*
X386419Y360002D01*
X386132Y360289D01*
X382930Y357087D01*
X382735Y357282D01*
G03X382082Y357151I-283J-283D01*
G01X379106Y349897D01*
X379206Y349803D01*
G02X375954Y345162I-1961J-2086D01*
G01X371429Y340636D01*
G37*
G54D52*
X198701Y272835D03*
G54D55*
X306064Y346733D03*
Y356575D03*
G54D57*
X359095Y251418D03*
G54D53*
X244134Y325906D03*
G54D60*
X450079Y103623D03*
Y450079D03*
G54D58*
X301182Y287442D03*
G54D59*
X309843Y280749D03*
G54D50*
X103623Y103623D03*
Y450079D03*
G54D51*
X196812Y235828D03*
X316064Y346732D03*
Y356576D03*
X359096Y261418D03*
G54D54*
X237796Y338858D03*
G54D56*
X343386Y251694D03*
%LPD*%
G75*
G54D10*
X124171Y151730D03*
X116933Y144492D03*
X124171Y401972D03*
X116933Y409210D03*
X429531Y151730D03*
Y401972D03*
X436769Y144492D03*
Y409210D03*
G54D20*
X198701Y272835D03*
Y280709D03*
Y288583D03*
G54D11*
X132504Y157419D03*
X129860Y160063D03*
Y393639D03*
X132504Y396283D03*
X162025Y196946D03*
X167143Y190411D03*
X169787Y193055D03*
X164669Y199590D03*
X171086Y359781D03*
X168442Y362425D03*
X162734Y356874D03*
X165378Y354230D03*
X178757Y216198D03*
X181401Y218842D03*
X224033Y359000D03*
X226677Y356356D03*
X383167Y194354D03*
X385811Y191710D03*
X388600Y353954D03*
X385575Y362110D03*
X382931Y359466D03*
X391677Y196277D03*
X389033Y198921D03*
X391244Y356598D03*
X423842Y160063D03*
X421198Y157419D03*
Y396283D03*
X423842Y393639D03*
G54D21*
X198701Y264370D03*
Y297048D03*
G54D30*
X237402Y234686D03*
X300945Y306142D03*
G54D12*
X146529Y175269D03*
X147710Y379614D03*
X196812Y255827D03*
Y245827D03*
X196457Y319449D03*
X256379Y195709D03*
X246379D03*
X276379D03*
X266379D03*
X276064Y346733D03*
Y356575D03*
X286064Y346733D03*
X296064D03*
X296024Y336890D03*
X286024D03*
X286064Y356575D03*
X296064D03*
X306064Y346733D03*
X306024Y336890D03*
X306064Y356575D03*
X359095Y231418D03*
Y241418D03*
Y251418D03*
X407567Y172907D03*
X407173Y378433D03*
G54D22*
X198023Y343152D03*
X206932Y334243D03*
X219459Y346770D03*
X210550Y355679D03*
X343152Y198023D03*
X346770Y219459D03*
X334243Y206932D03*
X355679Y210550D03*
G54D40*
X318347Y302658D03*
X324804Y295532D03*
Y301634D03*
X318347Y308760D03*
X325079Y315099D03*
Y308997D03*
G54D13*
X139457Y168197D03*
X140638Y386686D03*
X414639Y165835D03*
X414245Y385505D03*
G54D31*
X238229Y325906D03*
X244135D03*
X322678Y197363D03*
X316772D03*
X322678Y203249D03*
X316772D03*
G54D32*
X237795Y338859D03*
X249607D03*
G54D41*
X343387Y237127D03*
X334725D03*
X343387Y251693D03*
X334725D03*
G54D14*
X153117Y180676D03*
X156096Y188945D03*
X161386Y183655D03*
X397606Y364757D03*
X392316Y370047D03*
X400585Y373026D03*
G54D23*
X217796Y195355D03*
X206300Y236103D03*
X204410Y229213D03*
X216398Y246753D03*
X203898Y318426D03*
X214489Y328623D03*
X215827Y372520D03*
X222796Y189489D03*
X236457Y217599D03*
X234410Y221260D03*
X225434Y230119D03*
X219607Y220945D03*
X226024Y244095D03*
X231654Y276851D03*
X236694Y272127D03*
X222205Y277048D03*
X226851Y336694D03*
X245473Y248977D03*
X251654Y249292D03*
X259134Y252835D03*
X244292Y272520D03*
X249764Y309804D03*
X253465Y311300D03*
X244331Y311536D03*
X268977Y219764D03*
X262402Y356379D03*
X293780Y200867D03*
X285827Y246208D03*
X289371Y294764D03*
X285631Y289843D03*
X290709Y289804D03*
X295043Y295355D03*
X294922Y319253D03*
X287953Y319174D03*
X300945Y322205D03*
X303623Y212284D03*
X315906Y222796D03*
X315473Y245749D03*
X324056Y253505D03*
X305591Y256772D03*
X321733Y276851D03*
X319213Y268071D03*
X309804Y268229D03*
X312048Y294804D03*
X317402Y294961D03*
X319528Y316339D03*
X315296Y314351D03*
X314410Y336772D03*
X323426Y351457D03*
X332953Y186575D03*
X336615Y221851D03*
X324882Y223308D03*
X330237Y259922D03*
X328190Y279528D03*
X333938Y279607D03*
X325906Y323268D03*
X330394Y323308D03*
X328268Y337953D03*
X341615Y372245D03*
X350827Y227796D03*
X357166Y220552D03*
X346851Y259764D03*
G54D15*
X153117Y373026D03*
X156096Y364757D03*
X161386Y370047D03*
X392316Y183655D03*
X397606Y188945D03*
X400585Y180676D03*
G54D33*
X245394Y283386D03*
Y299922D03*
G54D24*
X210060Y228229D03*
X213800D03*
X205237Y249627D03*
Y245887D03*
X212481Y260099D03*
Y263839D03*
X212638Y269154D03*
Y272894D03*
X209863Y322757D03*
X213603D03*
X229312Y215670D03*
X233052D03*
X222697Y225434D03*
X218957D03*
X219686Y260099D03*
X233898Y256083D03*
Y259823D03*
X221162Y272914D03*
X224902D03*
X219686Y263839D03*
X238249Y318465D03*
X227363Y311654D03*
Y315394D03*
X223898Y322717D03*
X220158D03*
X223878Y327914D03*
X220138D03*
X243603Y215631D03*
X239863D03*
X255040Y237264D03*
Y233524D03*
X257481Y221201D03*
Y224941D03*
X245079Y259705D03*
Y255965D03*
X239882Y256044D03*
Y259784D03*
X251418Y265532D03*
Y269272D03*
X253426Y293682D03*
Y289942D03*
X241989Y318465D03*
X249764Y317894D03*
Y321634D03*
X253485Y327166D03*
X249745D03*
X253485Y332008D03*
X249745D03*
X239942Y332205D03*
X243682D03*
X269213Y208091D03*
Y211831D03*
X264410D03*
Y208091D03*
X275650Y266418D03*
X279390D03*
X281556Y320197D03*
X277816D03*
X301319Y203386D03*
X297579D03*
X291536Y280729D03*
Y284469D03*
X294115Y324174D03*
X290375D03*
X311162Y217087D03*
X314902D03*
X311319Y203229D03*
X307579D03*
X311319Y197402D03*
X307579D03*
X323898Y238367D03*
X319134D03*
X323898Y242107D03*
X319134D03*
X308524Y262205D03*
X312264D03*
X318465Y283761D03*
Y287501D03*
X311556Y323032D03*
X315296D03*
X311556Y318583D03*
X315296D03*
X305867Y322678D03*
X311556Y327442D03*
X315296D03*
X305867Y326418D03*
X320552Y328524D03*
Y332264D03*
X340414Y228780D03*
X336674D03*
X336989Y259725D03*
X340729D03*
X334922Y302068D03*
X334272Y292993D03*
X330532D03*
X334272Y287875D03*
X330532D03*
X334941Y315040D03*
X331201D03*
X334922Y305808D03*
G54D42*
G01X253426Y293682D02*
Y296721D01*
X250225Y299922D01*
X245394D01*
G01X277599Y324764D02*
Y320414D01*
X277816Y320197D01*
G01X315296Y327442D02*
Y323032D01*
G01Y318583D02*
Y323032D01*
G01Y318583D02*
Y314351D01*
G01X320631Y338502D02*
Y335246D01*
X320552Y335168D01*
Y332264D01*
G01Y328524D02*
X316379D01*
X315296Y327442D01*
X337993Y305788D03*
G54D43*
G01X198023Y343152D02*
X202210Y347339D01*
Y347368D01*
X204095Y349253D01*
G01X238229Y325906D02*
Y320757D01*
X238249Y320737D01*
Y318465D01*
G01X241989D02*
X246922D01*
X247493Y317894D01*
X249764D01*
G01X243682Y332205D02*
Y334796D01*
X243701Y334816D01*
Y338859D01*
G54D25*
X216398Y235532D03*
X213839D03*
X216398Y241240D03*
X213839D03*
X221517Y235532D03*
X218958D03*
X221517Y241240D03*
X218958D03*
G54D16*
X176457Y205985D03*
Y347717D03*
X377245Y205985D03*
Y347717D03*
G54D34*
X243701Y346733D03*
G54D44*
G01X184607Y221930D02*
X184489D01*
X181401Y218842D01*
G01X193871Y280709D02*
X193662D01*
X191024Y278071D01*
Y229213D01*
X186694Y224882D01*
G01X188190Y328465D02*
Y325341D01*
X191024Y322203D01*
Y283556D01*
X193871Y280709D01*
G01D02*
X198701D01*
G01Y288583D02*
X204255Y294137D01*
Y294282D01*
X206339Y296366D01*
Y304201D01*
X201091Y309449D01*
X196457D01*
G01X206932Y219459D02*
X206931D01*
X204460Y221930D01*
X198032D01*
G01X214016Y286488D02*
X208238Y280709D01*
X198701D01*
G01X214016Y291654D02*
Y304595D01*
X215316Y305894D01*
Y311044D01*
X212816Y313544D01*
G01X214016Y291654D02*
Y286488D01*
G01X212816Y313544D02*
X209843D01*
G01X341615Y372245D02*
X339646Y370276D01*
X330614D01*
X322203Y362678D01*
X231499D01*
X221597Y371623D01*
X220604Y372520D01*
X215827D01*
G01X222796Y189489D02*
X229799D01*
X231499Y191024D01*
X322203D01*
X327438Y186295D01*
X332953Y186575D01*
G01X233702Y291654D02*
X233701D01*
Y304595D01*
X231800Y306497D01*
X224568D01*
X221260Y309804D01*
X220079D01*
G01X245394Y283386D02*
X236064D01*
X233701Y285749D01*
Y291654D01*
X233702D01*
G01X245394Y299922D02*
X235199Y310117D01*
X235160D01*
X232875Y312402D01*
G01D02*
Y325552D01*
X231024Y327402D01*
G01D02*
Y347638D01*
G01X223741Y351221D02*
Y351053D01*
G01X243701Y338859D02*
Y345276D01*
X241339Y347638D01*
X231024D01*
G01X334243Y206932D02*
Y206931D01*
X332481Y205169D01*
Y198505D01*
G01X343152Y355679D02*
X339179Y359652D01*
X339168D01*
X335040Y363780D01*
G01X346770Y334243D02*
X346771D01*
X349351Y336824D01*
Y341477D01*
X345709Y345119D01*
G01X400585Y180676D02*
X404291Y176970D01*
Y176183D01*
X407567Y172907D01*
G54D35*
X279922Y218465D03*
X277953D03*
Y251379D03*
X279922D03*
X299607Y218465D03*
X297638D03*
X295670D03*
X293701D03*
X291733D03*
X289764D03*
X287796D03*
X285827D03*
X283859D03*
X281890D03*
Y251379D03*
X283859D03*
X285827D03*
X287796D03*
X289764D03*
X291733D03*
X293701D03*
X295670D03*
X297638D03*
X299607D03*
G54D26*
X214016Y291654D03*
X233702D03*
G54D17*
X174882Y211890D03*
X192953Y215552D03*
X184607Y221930D03*
X186694Y224882D03*
X188190Y328465D03*
X182520Y341654D03*
X211851Y179449D03*
X198032Y221930D03*
X209686Y249646D03*
X217638Y268229D03*
X200473Y327757D03*
X215906Y361024D03*
X204095Y349253D03*
X225670Y200788D03*
X237402Y234686D03*
X222284Y247638D03*
X236457Y250355D03*
X218977Y250394D03*
X230079D03*
X233898Y264134D03*
X232875Y312402D03*
X231024Y347638D03*
X223741Y351221D03*
X218583Y368977D03*
X256418Y215040D03*
X250414Y233524D03*
X254115Y221201D03*
X243347Y222087D03*
X259056Y228505D03*
X247127Y218623D03*
X260618Y242256D03*
X252008Y259134D03*
X256300Y279489D03*
X264410Y215945D03*
X282048Y211851D03*
X282087Y207953D03*
X282127Y203977D03*
X278347Y231969D03*
X263544Y230001D03*
X278820Y239449D03*
X273583Y257087D03*
X271497Y266379D03*
X279116Y300997D03*
X279174Y304646D03*
X276182Y311812D03*
Y308162D03*
X270001Y337993D03*
X277599Y324764D03*
X301320Y199272D03*
X294371Y208977D03*
X288347Y199804D03*
X297166Y235906D03*
X294489Y243780D03*
X289607Y259682D03*
X298097Y267456D03*
X295531Y264860D03*
X300788Y269922D03*
X292166Y262284D03*
X287910Y314508D03*
X282835Y309095D03*
X300945Y306142D03*
X285945Y325749D03*
X306654Y217008D03*
X323898Y246182D03*
X303820Y272481D03*
X320631Y338502D03*
X337481Y192323D03*
X343780Y176615D03*
X325355Y213190D03*
X332481Y198505D03*
X345709Y345119D03*
X328347Y352678D03*
X335040Y363780D03*
X336260Y374528D03*
X371103Y212127D03*
X375552Y199528D03*
X369371Y205434D03*
X369489Y339961D03*
X368623Y333662D03*
G54D45*
G01X154765Y190275D02*
X156096Y188945D01*
G01D02*
X157427Y187614D01*
G01X154487Y187336D02*
X156096Y188945D01*
G01D02*
X157705Y190554D01*
G01X163339Y200921D02*
X164670Y199591D01*
X164669Y199590D01*
G01D02*
X164670Y199591D01*
X166000Y198260D01*
G01X164669Y199590D02*
X166000Y200921D01*
G01X171086Y359781D02*
X171087D01*
X172418Y358450D01*
G01X169756D02*
X171087Y359781D01*
X171086D01*
G01D02*
X171087D01*
X172418Y361111D01*
G01X159777Y371656D02*
X161386Y370047D01*
G01D02*
X162995Y368438D01*
G01X160055Y368716D02*
X161386Y370047D01*
G01X178757Y216198D02*
X180088Y214867D01*
G01X177426D02*
X178757Y216198D01*
G01X193670Y264371D02*
X198701D01*
Y264370D01*
G01X193670Y297048D02*
X198701D01*
G01X210550Y198023D02*
X213830Y194743D01*
G01X208663Y196135D02*
X210550Y198023D01*
G01X207271Y201302D02*
X210550Y198023D01*
G01D02*
X212438Y199910D01*
G01X196812Y232174D02*
Y235827D01*
G01D02*
Y239481D01*
G01Y235827D02*
X200465D01*
G01X210060Y228229D02*
Y230111D01*
G01X208178Y228229D02*
X210060D01*
G01X212351Y241241D02*
X213839D01*
Y241240D01*
G01X212481Y258217D02*
Y260099D01*
G01X213839Y239753D02*
Y241240D01*
G01D02*
Y242729D01*
G01X198701Y264370D02*
Y264371D01*
X203733D01*
G01X198701Y264370D02*
Y267827D01*
G01X210599Y260099D02*
X212481D01*
G01D02*
X214363D01*
G01X198701Y293591D02*
Y297048D01*
G01D02*
Y300505D01*
G01Y297048D02*
X203733D01*
G01X196457Y315796D02*
Y319449D01*
G01D02*
Y323103D01*
G01Y319449D02*
X200111D01*
G01X217016Y313544D02*
X220079D01*
G01X229312Y215670D02*
Y217552D01*
G01X227430Y215670D02*
X229312D01*
G01X221516Y234044D02*
Y235532D01*
X221517D01*
G01D02*
X221516D01*
Y237020D01*
G01X222697Y223552D02*
Y225434D01*
G01D02*
Y227316D01*
G01Y225434D02*
X224579D01*
G01X221517Y235532D02*
X223005D01*
G01X219686Y258217D02*
Y260099D01*
G01X229725Y239607D02*
Y240820D01*
G01X227430Y239607D02*
X229725D01*
G01X217804Y260099D02*
X219686D01*
G01D02*
X221568D01*
G01X224902Y271032D02*
Y272914D01*
G01D02*
Y274796D01*
G01Y272914D02*
X226784D01*
G01X227363Y309772D02*
Y311654D01*
G01X225481D02*
X227363D01*
G01D02*
X229245D01*
G01X220079Y313544D02*
X223142D01*
G01X237796Y335205D02*
Y338859D01*
X237795D01*
G01D02*
X237796D01*
Y342512D01*
G01X235127Y338859D02*
X237795D01*
G01D02*
X240465D01*
G01X238060Y332205D02*
X239942D01*
G01X222702Y360331D02*
X224032Y359000D01*
X224033D01*
G01X222702Y357670D02*
X224032Y359000D01*
X224033D01*
G01D02*
X224032D01*
X225363Y360331D01*
G01X226677Y356356D02*
Y356355D01*
X228008Y355025D01*
G01X225347D02*
X226677Y356355D01*
Y356356D01*
G01D02*
Y356355D01*
X228008Y357686D01*
G01X246379Y195709D02*
Y199363D01*
G01X242725Y195709D02*
X246379D01*
G01D02*
X250032D01*
G01X243603Y215631D02*
Y217512D01*
G01Y215631D02*
X245485D01*
G01X255599Y224942D02*
X257481D01*
Y224941D01*
G01X255040Y237264D02*
Y239146D01*
G01X253158Y237264D02*
X255040D01*
G01D02*
X256922D01*
G01X257481Y224941D02*
Y226823D01*
G01X245079Y239607D02*
Y240820D01*
G01Y239607D02*
X247375D01*
G01X245079Y259705D02*
Y261587D01*
G01X243197Y259705D02*
X245079D01*
G01D02*
X246961D01*
G01X251418Y269272D02*
Y271154D01*
G01X249536Y269272D02*
X251418D01*
G01D02*
X253300D01*
G01X251418Y263650D02*
Y265532D01*
G01X249536D02*
X251418D01*
G01D02*
X253300D01*
G01X253426Y288060D02*
Y289942D01*
G01X251544D02*
X253426D01*
G01D02*
X255308D01*
G01X244134Y323631D02*
Y325906D01*
X244135D01*
G01D02*
X244134D01*
Y328182D01*
G01X241859Y325906D02*
X244135D01*
G01D02*
X246410D01*
G01X253485Y325284D02*
Y327166D01*
G01D02*
Y329048D01*
G01Y327166D02*
X255367D01*
G01X253485Y330127D02*
Y332008D01*
G01D02*
Y333890D01*
G01Y332008D02*
X255367D01*
G01X239942Y330323D02*
Y332205D01*
G01D02*
Y334087D01*
G01X269213Y211831D02*
Y213713D01*
G01X267331Y211831D02*
X269213D01*
G01D02*
X271095D01*
G01X279922Y247607D02*
Y251379D01*
G01D02*
Y255150D01*
G01X279390Y264536D02*
Y266418D01*
G01D02*
Y268300D01*
G01X297579Y201505D02*
Y203386D01*
G01X295697D02*
X297579D01*
G01X291536Y284469D02*
Y286351D01*
G01X289654Y284469D02*
X291536D01*
G01D02*
X293418D01*
G01X290375Y322292D02*
Y324174D01*
G01X281556Y318316D02*
Y320197D01*
G01D02*
Y322079D01*
G01Y320197D02*
X283438D01*
G01X290375Y324174D02*
Y326056D01*
G01X288493Y324174D02*
X290375D01*
G01X286024Y336890D02*
Y340544D01*
G01X282371Y336890D02*
X286024D01*
G01D02*
X289678D01*
G01X302410Y356575D02*
X306064D01*
G01X302410Y346733D02*
X306064D01*
G01X314902Y215205D02*
Y217087D01*
G01D02*
Y218969D01*
G01Y217087D02*
X316784D01*
G01X312264Y260323D02*
Y262205D01*
G01D02*
Y264087D01*
G01Y262205D02*
X314146D01*
G01X316583Y283760D02*
X318465D01*
Y283761D01*
G01D02*
Y283760D01*
X320347D01*
G01X318465Y281879D02*
Y283761D01*
G01X311556Y321150D02*
Y323032D01*
G01D02*
Y324914D01*
G01X309674Y323032D02*
X311556D01*
G01Y316701D02*
Y318583D01*
G01D02*
Y320465D01*
G01X309674Y318583D02*
X311556D01*
G01X305867Y326418D02*
Y328300D01*
G01X303985Y326418D02*
X305867D01*
G01D02*
X307749D01*
G01X311556Y325560D02*
Y327442D01*
G01X309674D02*
X311556D01*
G01X306064Y343079D02*
Y346733D01*
G01Y352922D02*
Y356575D01*
G01D02*
Y360229D01*
G01Y356575D02*
X309717D01*
G01X306064Y346733D02*
Y350386D01*
G01Y346733D02*
X309717D01*
G01X323898Y236485D02*
Y238367D01*
G01D02*
X325780D01*
G01X336674Y226898D02*
Y228780D01*
G01X334792D02*
X336674D01*
G01X340729Y257843D02*
Y259725D01*
G01D02*
Y261607D01*
G01Y259725D02*
X342611D01*
G01X334922Y300186D02*
Y302068D01*
G01X333040D02*
X334922D01*
G01X334272Y291111D02*
Y292993D01*
G01D02*
Y294875D01*
G01Y292993D02*
X336154D01*
G01X334272Y285993D02*
Y287875D01*
G01D02*
Y289757D01*
G01Y287875D02*
X336154D01*
G01X353792Y212438D02*
X355679Y210550D01*
G01D02*
X357567Y208663D01*
G01X352400Y207271D02*
X355679Y210550D01*
G01D02*
X358959Y213830D01*
G01X359095Y247764D02*
Y251418D01*
G01D02*
Y255071D01*
G01X355442Y251418D02*
X359095D01*
G01D02*
X362749D01*
G01X381836Y193024D02*
X383166Y194355D01*
X383167Y194354D01*
G01D02*
X383166Y194355D01*
X384497Y195685D01*
G01X381836D02*
X383167Y194354D01*
G01X387269Y355284D02*
X388599Y353954D01*
X388600D01*
G01X387269Y352623D02*
X388599Y353954D01*
X388600D01*
G01X390707Y185264D02*
X392316Y183655D01*
G01D02*
X393925Y182046D01*
G01X392316Y183655D02*
X393647Y184986D01*
G01X388600Y353954D02*
X388599D01*
X389930Y352623D01*
G01X396275Y366088D02*
X397606Y364757D01*
G01D02*
X398937Y363427D01*
G01X395997Y363148D02*
X397606Y364757D01*
G01D02*
X399215Y366366D01*
G54D36*
X272323Y224095D03*
Y226064D03*
Y228032D03*
Y230001D03*
Y231969D03*
Y233938D03*
Y235906D03*
Y237875D03*
Y239843D03*
Y241812D03*
Y243780D03*
Y245749D03*
X305237Y237875D03*
Y235906D03*
Y233938D03*
Y231969D03*
Y230001D03*
Y228032D03*
Y226064D03*
Y224095D03*
Y239843D03*
Y245749D03*
Y243780D03*
Y241812D03*
G54D27*
X209843Y317284D03*
Y313544D03*
Y309804D03*
X220079Y317284D03*
Y313544D03*
Y309804D03*
G54D18*
X198023Y210550D03*
X210550Y198023D03*
X219459Y206932D03*
X206932Y219459D03*
X334243Y346770D03*
X346770Y334243D03*
X343152Y355679D03*
X355679Y343152D03*
G54D46*
G01X124171Y151730D02*
X126891Y154450D01*
X129535D01*
X132504Y157418D01*
Y157419D01*
G01X116933Y144492D02*
Y149777D01*
X122731Y156195D01*
X123090Y156555D01*
X125059D01*
X126683Y158179D01*
X127975D01*
X129859Y160063D01*
X129860D01*
G01X146529Y175269D02*
X146528Y175268D01*
Y168536D01*
X137295Y159303D01*
X134389D01*
X132504Y157418D01*
Y157419D01*
G01X129860Y160063D02*
X129859D01*
X131744Y161948D01*
X133208D01*
X139457Y168197D01*
G01X147710Y379614D02*
X147709Y379615D01*
X139570D01*
X131744Y388277D01*
Y391754D01*
X129859Y393639D01*
X129860D01*
G01X124171Y401972D02*
X126890Y399253D01*
Y396608D01*
X129859Y393639D01*
X129860D01*
G01X140638Y386686D02*
X137501Y389823D01*
Y391319D01*
X134421Y394399D01*
X134389D01*
X132504Y396284D01*
Y396283D01*
G01D02*
Y396284D01*
X130620Y398168D01*
Y401323D01*
X122732Y409210D01*
X116933D01*
G01X153117Y180676D02*
X150954Y178513D01*
X149773D01*
X146529Y175269D01*
G01X153117Y373026D02*
X147709Y378434D01*
Y379615D01*
X147710Y379614D01*
G01X161386Y183655D02*
X163549Y185818D01*
Y186816D01*
X167143Y190410D01*
Y190411D01*
G01X219459Y346770D02*
Y346939D01*
X223741Y351221D01*
G01X249764Y317894D02*
Y309804D01*
G01Y321634D02*
Y324481D01*
X249745Y324501D01*
Y327166D01*
G01X249607Y338859D02*
Y332146D01*
X249745Y332008D01*
G01Y327166D02*
Y332008D01*
G01X407567Y172907D02*
X407568Y172906D01*
X414155D01*
X423843Y163218D01*
Y160063D01*
X423842D01*
G01X421198Y396283D02*
Y396284D01*
X419313Y394399D01*
X414871D01*
X407174Y386701D01*
Y378434D01*
X407173Y378433D01*
G01X400585Y373026D02*
X402748Y375189D01*
X403929D01*
X407173Y378433D01*
G01X421198Y157419D02*
Y154264D01*
X430970Y144492D01*
X436769D01*
G01X429531Y151730D02*
X426812Y154449D01*
Y157094D01*
X423843Y160063D01*
X423842D01*
G01X421198Y157419D02*
Y157418D01*
X419313Y159303D01*
Y159349D01*
X417776Y160887D01*
Y162698D01*
X414638Y165835D01*
X414639D01*
G01X423842Y393639D02*
X423843D01*
X421958Y391754D01*
X420494D01*
X414245Y385505D01*
G01X429531Y401972D02*
X426812Y399253D01*
X424167D01*
X421198Y396284D01*
Y396283D01*
G01X423842Y393639D02*
X427477D01*
X436769Y403925D01*
Y409210D01*
G54D28*
X236418Y227009D03*
X234449D03*
X232481D03*
X238386D03*
X232481Y242363D03*
X234449D03*
X236418D03*
X238386D03*
X242323Y227009D03*
X240355D03*
Y242363D03*
X242323D03*
G54D37*
X301181Y280749D03*
Y287441D03*
X309843Y280749D03*
Y287441D03*
G54D19*
X196812Y235827D03*
X196457Y309449D03*
X236379Y195709D03*
X276024Y336890D03*
X316064Y346733D03*
Y356575D03*
X359095Y261418D03*
G54D47*
G01X217638Y268229D02*
X213564D01*
X212638Y269154D01*
G01X209843Y317284D02*
Y320805D01*
X209863Y320825D01*
Y322757D01*
G01X308687Y302205D02*
X308563D01*
G54D38*
X300945Y298524D03*
X298976D03*
X297008D03*
Y313760D03*
X298976D03*
X300945D03*
X302914Y298524D03*
X304882D03*
X302914Y313760D03*
X304882D03*
G54D29*
X229725Y229765D03*
Y231733D03*
Y233702D03*
Y235670D03*
Y237639D03*
Y239607D03*
X245079Y237639D03*
Y235670D03*
Y233702D03*
Y231733D03*
Y229765D03*
Y239607D03*
G54D48*
G01X324804Y295532D02*
G02X313662Y300631I9280J35001D01*
G03X308564Y302205I-5097J-7466D01*
G01X308563D01*
G01X330532Y292993D02*
Y287875D01*
G01X324804Y295532D02*
G02X330532Y292993I0J-7731D01*
G54D39*
X293327Y302205D03*
Y304173D03*
Y306142D03*
Y308111D03*
Y310079D03*
X308563Y302205D03*
Y310079D03*
Y308111D03*
Y306142D03*
Y304173D03*
G54D49*
G01X162025Y196946D02*
X163492Y195479D01*
X165676Y191877D01*
X167143Y190410D01*
Y190411D01*
G01X176457Y205985D02*
X171255Y194522D01*
X169788Y193055D01*
X169787D01*
G01X162734Y356874D02*
X162733D01*
X164200Y358341D01*
X166975Y360958D01*
X168442Y362425D01*
G01X156096Y364757D02*
X157842Y363012D01*
X161266Y358341D01*
X162733Y356874D01*
X162734D01*
G01X165378Y354230D02*
Y354229D01*
X166845Y352762D01*
X176457Y347717D01*
G01X198023Y210550D02*
X194607Y213966D01*
X194579D01*
X192993Y215552D01*
X192953D01*
G01X272323Y233938D02*
X260670D01*
X251221Y224489D01*
Y217796D01*
X246260Y212835D01*
X221654D01*
X208823Y225667D01*
X196139D01*
X176457Y205985D01*
G01X182520Y341654D02*
X176457Y347717D01*
G01X216398Y240020D02*
X213839Y237461D01*
Y235532D01*
G01X213800Y228229D02*
Y231890D01*
X213839Y231930D01*
Y235532D01*
G01X216398D02*
Y233170D01*
G01X205237Y245887D02*
Y245886D01*
X200717D01*
X200658Y245827D01*
X196812D01*
G01X216398Y241240D02*
Y246753D01*
G01Y240020D02*
X218957Y237461D01*
Y235532D01*
X218958D01*
G01X216398Y241240D02*
Y240020D01*
G01X205237Y249627D02*
X205257Y249646D01*
X209686D01*
G01X219686Y263839D02*
X212481D01*
G01X212638Y269154D02*
Y267079D01*
X212481Y266922D01*
Y263839D01*
G01X212638Y272894D02*
X219068D01*
X219087Y272914D01*
X221162D01*
G01X214016Y286488D02*
Y279501D01*
X212638Y278123D01*
Y272894D01*
G01X213603Y322757D02*
Y314331D01*
X212816Y313544D01*
G01X206932Y334243D02*
X206931D01*
X202219Y329531D01*
Y329502D01*
X200473Y327757D01*
G01X210550Y355679D02*
X214149Y359279D01*
X214160D01*
X215906Y361024D01*
G01X219459Y206932D02*
Y206931D01*
X223857Y202534D01*
X223924D01*
X225670Y200788D01*
G01X233052Y215670D02*
Y219902D01*
X234410Y221260D01*
G01X218957Y225434D02*
Y235532D01*
X218958D01*
G01X234410Y221260D02*
Y224481D01*
X234449Y224520D01*
Y227009D01*
G01X236418D02*
Y224646D01*
G01X238386Y227009D02*
Y219182D01*
X239863Y217705D01*
Y215631D01*
G01X221517Y241240D02*
X221516Y241241D01*
Y243505D01*
X222284Y244272D01*
Y247638D01*
G01X218958Y241240D02*
X218957Y241241D01*
X218977Y241260D01*
Y250394D01*
G01X233898Y259823D02*
X235973D01*
X237808Y259784D01*
X239882D01*
G01X233898Y259823D02*
Y264134D01*
G01X234449Y242363D02*
Y248347D01*
X236457Y250355D01*
G01D02*
X239882Y253780D01*
Y256044D01*
G01X230079Y250394D02*
X218977D01*
G01X232481Y242363D02*
Y247993D01*
X230079Y250394D01*
G01D02*
X232548D01*
X233898Y251745D01*
Y256083D01*
G01X220138Y327914D02*
Y324812D01*
X220158Y324792D01*
Y322717D01*
G01X227363Y315394D02*
X225473Y317284D01*
X220079D01*
G01D02*
Y320564D01*
X220158Y320642D01*
Y322717D01*
G01X223878Y327914D02*
X223879D01*
Y324812D01*
X223898Y324792D01*
Y322717D01*
G01X223878Y327914D02*
X230512D01*
X231024Y327402D01*
G01X256418Y208091D02*
X256379D01*
Y195709D01*
G01X256418Y215040D02*
Y208091D01*
G01X264410D02*
X256418D01*
G01X257481Y224941D02*
Y224942D01*
X259556D01*
G01X245079Y229765D02*
Y229764D01*
G03X251221Y229686I6113J239489D01*
G03X255040Y233524I-20J3838D01*
G01D02*
X250414D01*
G01X272323Y224095D02*
X262449D01*
X259556Y221201D01*
X257481D01*
G01D02*
X254115D01*
G01X256300Y279489D02*
Y241536D01*
X261930Y235906D01*
X272323D01*
G01X242323Y227009D02*
Y225555D01*
X243347Y224531D01*
Y222087D01*
G01X240355Y224449D02*
Y227009D01*
G01X255040Y237264D02*
G03X252638Y239725I-2461J0D01*
G01X259556Y224942D02*
X260678Y226064D01*
G01X252638Y239725D02*
G03X245079Y239607I-2303J-94641D01*
G01X240355Y242363D02*
G02X245079Y255965I21944J0D01*
G01X272323Y228032D02*
X276288D01*
X277284Y227036D01*
Y222993D01*
X274922Y220631D01*
Y204213D01*
X266379Y195709D01*
G01X277953Y218465D02*
Y202402D01*
X276379Y200827D01*
Y195709D01*
G01X264410Y211831D02*
Y215945D01*
G01X269213Y208091D02*
X264410D01*
G01X279922Y218465D02*
Y213544D01*
X281615Y211851D01*
X282048D01*
G01X278347Y231969D02*
X272323D01*
G01Y230001D02*
X265107D01*
X265068Y229961D01*
X263583D01*
X263544Y230001D01*
G01X278820Y239449D02*
Y239213D01*
X277481Y237875D01*
X272323D01*
G01X260678Y226064D02*
X272323D01*
G01X277953Y251379D02*
Y262040D01*
X275650Y264343D01*
Y266418D01*
G01X272323Y245749D02*
X268359D01*
X267532Y246575D01*
Y340366D01*
X268753Y341587D01*
X284893D01*
X285387Y342081D01*
X291412D01*
X296064Y346733D01*
G01X286064D02*
X282205Y342875D01*
X267678D01*
X266245Y341442D01*
Y245331D01*
X267796Y243780D01*
X272323D01*
G01X276064Y346733D02*
X267993D01*
X264957Y343697D01*
Y243981D01*
X267127Y241812D01*
X272323D01*
G01Y239843D02*
X266615D01*
X263670Y242788D01*
Y347922D01*
X266339Y350591D01*
X290079D01*
X296064Y356575D01*
G01X286064D02*
X281875Y352386D01*
X265772D01*
X262364Y348978D01*
Y244001D01*
X260618Y242256D01*
G01X270001Y337993D02*
Y335524D01*
X268890Y334414D01*
Y249497D01*
X270276Y248111D01*
X275355D01*
X281890Y241575D01*
Y218465D01*
G01X275650Y266418D02*
X271536D01*
X271497Y266379D01*
G01X283859Y251379D02*
Y255343D01*
X283713Y255489D01*
Y262601D01*
X283859Y262747D01*
Y269449D01*
X271465Y281843D01*
Y330127D01*
X272835Y331497D01*
X297629D01*
X306024Y336890D01*
G01X296024D02*
X288671Y332875D01*
X271851D01*
X270178Y331201D01*
Y280886D01*
X281890Y269173D01*
Y251379D01*
G01X279116Y300997D02*
X287630D01*
X288838Y302205D01*
X293327D01*
G01X276182Y308162D02*
Y300276D01*
X277934Y298524D01*
X284116D01*
X284125Y298515D01*
X286171D01*
X286180Y298524D01*
X297008D01*
G01X279174Y304646D02*
X285934D01*
X286406Y304174D01*
X293327D01*
Y304173D01*
G01X276182Y311812D02*
X284988D01*
X288689Y308111D01*
X293327D01*
G01X301319Y203386D02*
X301320D01*
Y199272D01*
G01X299607Y218465D02*
Y207174D01*
X301320Y205461D01*
Y203386D01*
X301319D01*
G01D02*
X303394D01*
X305505Y203229D01*
X307579D01*
G01X295670Y218465D02*
Y209764D01*
X294882Y208977D01*
X294371D01*
G01X291733Y218465D02*
Y203190D01*
X288347Y199804D01*
G01X297579Y203386D02*
Y205461D01*
G01D02*
X297638Y205520D01*
G01D02*
Y218465D01*
G01X287796D02*
Y211109D01*
X284640Y207953D01*
X282087D01*
G01X289764Y218465D02*
Y214501D01*
X289725Y214461D01*
Y206890D01*
X286851Y204016D01*
X284634D01*
X284595Y203977D01*
X282127D01*
G01X305237Y235906D02*
X297166D01*
G01X299607Y251379D02*
X309922D01*
X327914Y269371D01*
X346418D01*
X353623Y262166D01*
Y246890D01*
X359095Y241418D01*
G01X294489Y243780D02*
X305237D01*
G01X297638Y251379D02*
Y255343D01*
X303820Y261524D01*
Y272481D01*
G01X293701Y251379D02*
Y255343D01*
X298097Y259739D01*
Y267456D01*
G01X291733Y251379D02*
Y255343D01*
X295531Y259142D01*
Y264860D01*
G01X287796Y251379D02*
Y257871D01*
X289607Y259682D01*
G01X295670Y251379D02*
Y255343D01*
X300788Y260461D01*
Y269922D01*
G01X289764Y251379D02*
Y255749D01*
X292166Y258150D01*
Y262284D01*
G01X285827Y251379D02*
Y246208D01*
G01X301181Y280749D02*
X295434D01*
G01D02*
Y290906D01*
X297520Y292993D01*
X299930D01*
X302914Y295977D01*
Y298524D01*
G01X291536Y280729D02*
X295434D01*
Y280749D01*
G01X298976Y298524D02*
X298977D01*
Y295977D01*
X298355Y295355D01*
X295043D01*
G01X300945Y298524D02*
Y295906D01*
G01X298976Y313760D02*
X298977D01*
Y319312D01*
X294115Y324174D01*
G01X287910Y314508D02*
X291042Y311377D01*
Y311223D01*
X292186Y310079D01*
X293327D01*
G01X282835Y309095D02*
X285788Y306142D01*
X293327D01*
G01X297008Y313760D02*
Y316182D01*
G01X300945Y313760D02*
Y322205D01*
G01X305237Y224095D02*
X309646D01*
X311162Y222579D01*
Y217087D01*
G01D02*
X306733D01*
X306654Y217008D01*
G01X307579Y203229D02*
Y197402D01*
G01X305237Y228032D02*
X317481D01*
X320355Y225158D01*
Y209134D01*
X322599Y206890D01*
X325119D01*
X326379Y205631D01*
Y198595D01*
X325146Y197363D01*
X322678D01*
G01X305237Y226064D02*
X317402D01*
X318662Y224803D01*
Y207264D01*
X322678Y203249D01*
G01X316772D02*
X313414D01*
X313394Y203229D01*
X311319D01*
G01X316772Y197363D02*
X313434D01*
X313394Y197402D01*
X311319D01*
G01X340394Y231969D02*
X305237D01*
G01Y233938D02*
X328820D01*
X330119Y235237D01*
Y250343D01*
X331469Y251694D01*
X334725D01*
Y251693D01*
G01X319134Y238367D02*
X323898D01*
G01X305237Y237875D02*
X314429D01*
G01D02*
X314921Y238367D01*
G01D02*
X319134D01*
G01X323898Y242107D02*
X319134D01*
G01X305237Y239843D02*
X315386D01*
X317650Y242107D01*
X319134D01*
G01X359095Y231418D02*
X351260Y239253D01*
Y261182D01*
X345749Y266694D01*
X330146D01*
X309201Y245749D01*
X305237D01*
G01X305591Y256772D02*
Y259272D01*
X308524Y262205D01*
G01X318465Y287501D02*
X313493D01*
Y287442D01*
X309843D01*
Y287441D01*
G01X304882Y298524D02*
Y295977D01*
X309843Y291016D01*
Y287441D01*
G01X318347Y302658D02*
G02X324804Y301634I-1J-20875D01*
G01X308563Y304173D02*
X308564Y304174D01*
G02X318347Y302658I-1J-32332D01*
G01X302914Y316182D02*
Y313760D01*
G01X308563Y308111D02*
X312087D01*
G01X308563Y310079D02*
X309705D01*
X310849Y311223D01*
X312168D01*
X315296Y314351D01*
G01X318347Y308760D02*
X324509D01*
G03X325079Y308997I-1J806D01*
G01X308563Y306142D02*
X312026D01*
G03X318347Y308760I0J8939D01*
G01X305867Y322678D02*
Y317292D01*
X304882Y316308D01*
Y313760D01*
G01X343152Y198023D02*
X339227Y194097D01*
Y194069D01*
X337481Y192323D01*
G01X346770Y219459D02*
X346771D01*
X340501Y213190D01*
X325355D01*
G01X343387Y237127D02*
X343386D01*
Y232439D01*
X342916Y231969D01*
X340394D01*
G01X340414Y228780D02*
Y231949D01*
X340394Y231969D01*
G01X323898Y246182D02*
Y242107D01*
G01X334725Y251693D02*
Y257461D01*
X336989Y259725D01*
G01X334941Y315040D02*
X334942D01*
G02X334922Y305808I-2164981J74D01*
G01X325079Y315099D02*
G02X331201Y315040I3J-317356D01*
G01X334922Y305808D02*
X337960D01*
G01X334243Y346770D02*
Y346771D01*
X330093Y350921D01*
Y350932D01*
X328347Y352678D01*
G01X385811Y191710D02*
G03X388029Y192629I0J3136D01*
G01X390210Y194809D01*
X391677Y196277D01*
G01X377245Y205985D02*
X387566Y200388D01*
X389032Y198921D01*
X389033D01*
G01X377245Y205985D02*
X371103Y212127D01*
G01X369489Y339961D02*
X377245Y347717D01*
G01D02*
X381463Y357999D01*
X382930Y359466D01*
X382931D01*
G01X385575Y362110D02*
X387042Y360644D01*
X389777Y358066D01*
X391244Y356599D01*
Y356598D01*
G01X392316Y370047D02*
X390153Y367884D01*
Y366689D01*
X385575Y362110D01*
G01X397606Y188945D02*
Y188944D01*
X392670Y193881D01*
G02X391677Y196277I2395J2396D01*
M02*
